# Momo 3D Model - Back Shell (Enclosure & Battery Stand)
v -20.0000 -15.0000 15.0000
v -20.0000 15.0000 15.0000
v -20.0000 -15.0000 -10.0000
v -18.0000 -15.0000 15.0000
v -20.0000 15.0000 -10.0000
v -19.9491 -15.7116 -10.0000
v -19.9491 -15.7043 -10.1013
v -19.9384 -15.7822 15.0000
v -19.7975 -16.4087 -10.0000
v -17.9631 -15.4693 15.0000
v -17.8532 -15.9271 15.0000
v -19.7553 -16.5451 15.0000
v -17.8532 -15.9271 -10.0000
v -17.6730 -16.3620 -10.0000
v -17.9631 -15.4693 -10.0000
v -17.9631 -15.4635 -10.0734
v -18.0000 -15.0000 -10.0000
v -18.0000 -6.6964 9.0000
v -18.0000 -6.8536 12.0000
v -18.0000 -2.6964 9.0000
v -18.0000 2.5391 12.0000
v -18.8000 -6.6964 9.0000
v -18.8000 -2.6964 9.0000
v -18.8000 -6.8536 12.0000
v -18.8000 -2.5391 12.0000
v -18.0000 -2.5391 12.0000
v -18.0000 15.0000 15.0000
v -19.9384 15.7822 15.0000
v -17.9631 15.4693 15.0000
v -19.9491 15.7116 -10.0000
v -19.8987 15.7116 -10.7043
v -19.7975 16.4087 -10.0000
v -19.7553 16.5451 15.0000
v -19.7486 16.4087 -10.6828
v -19.7553 16.5451 -10.0000
v -19.5019 17.0771 -10.6473
v -19.5482 17.0771 -10.0000
v -19.3639 17.0771 -11.2814
v -19.6031 16.4087 -11.3516
v -19.0359 17.7032 -11.1850
v -19.1635 17.7032 -10.5986
v -18.8262 17.7032 -11.7473
v -19.1372 17.0771 -11.8894
v -18.4373 18.2743 -11.5697
v -18.6257 18.2743 -11.0646
v -18.1789 18.2743 -12.0429
v -18.5385 17.7032 -12.2741
v -17.7545 18.7787 -11.7702
v -17.9784 18.7787 -11.3602
v -17.4746 18.7787 -12.1442
v -17.8558 18.2743 -12.4746
v -17.0429 19.2063 -11.7702
v -17.2741 19.2063 -11.4615
v -16.7702 19.2063 -12.0429
v -17.1442 18.7787 -12.4746
v -16.3602 19.5482 -11.5697
v -16.5697 19.5482 -11.3602
v -16.1230 19.5482 -11.7473
v -16.4615 19.2063 -12.2741
v -15.7616 19.7975 -11.1850
v -15.9225 19.7975 -11.0646
v -15.5852 19.7975 -11.2814
v -15.8628 19.5482 -11.8894
v -15.2956 19.9491 -10.6473
v -15.3847 19.9491 -10.5986
v -15.2005 19.9491 -10.6828
v -15.3969 19.7975 -11.3516
v -15.0000 20.0000 -10.0000
v -15.1013 19.9491 -10.7043
v -15.0000 19.9491 -10.7116
v 15.0000 20.0000 -10.0000
v -15.0000 19.9384 -10.7822
v 15.0000 19.9491 -10.7116
v -15.2005 19.7975 -11.3943
v -15.0000 19.7975 -11.4087
v -15.5852 19.5482 -11.9929
v -15.2956 19.5482 -12.0559
v -16.1230 19.2063 -12.4589
v -15.7616 19.2063 -12.5937
v -16.7702 18.7787 -12.7545
v -16.3602 18.7787 -12.9784
v -17.4746 18.2743 -12.8558
v -17.0429 18.2743 -13.1789
v -18.1789 17.7032 -12.7545
v -17.7545 17.7032 -13.1789
v -18.8262 17.0771 -12.4589
v -18.4373 17.0771 -12.9784
v -19.3639 16.4087 -11.9929
v -19.0359 16.4087 -12.5937
v -19.7486 15.7116 -11.3943
v -19.5019 15.7116 -12.0559
v -19.9384 15.0000 -10.7822
v -19.7975 15.0000 -11.4087
v -19.9491 15.0000 -10.7116
v -19.9384 -15.0000 -10.7822
v -19.9491 -15.0000 -10.7116
v -19.9491 -15.1013 -10.7043
v -19.9491 -15.2005 -10.6828
v -19.7975 -15.3969 -11.3516
v -19.9491 -15.2956 -10.6473
v -19.7975 -15.5852 -11.2814
v -19.9491 -15.3847 -10.5986
v -19.7975 -15.7616 -11.1850
v -19.9491 -15.4660 -10.5378
v -19.7975 -15.9225 -11.0646
v -19.9491 -15.5378 -10.4660
v -19.7975 -16.0646 -10.9225
v -19.9491 -15.5986 -10.3847
v -19.7975 -16.1850 -10.7616
v -19.9491 -15.6473 -10.2956
v -19.7975 -16.2814 -10.5852
v -19.9491 -15.6828 -10.2005
v -19.7975 -16.3516 -10.3969
v -19.7975 -16.3943 -10.2005
v -19.7553 -16.5451 -10.0000
v -19.5482 -17.0771 -10.0000
v -19.4550 -17.2700 15.0000
v -19.4550 -17.2700 -10.0000
v -17.6730 -16.3620 15.0000
v -17.4271 -16.7634 15.0000
v -19.0451 -17.9389 15.0000
v -17.4271 -16.7634 -10.0000
v -17.1213 -17.1213 -10.0000
v -17.6730 -16.3452 -10.2131
v -17.8532 -15.9156 -10.1450
v -17.4271 -16.7416 -10.2758
v -17.6730 -16.2953 -10.4209
v -17.4271 -16.6771 -10.5449
v -17.8532 -15.8817 -10.2865
v -17.8532 -15.8260 -10.4209
v -17.9631 -15.4463 -10.1450
v -17.9631 -15.4182 -10.2131
v -17.9631 -15.3797 -10.2758
v -17.9631 -15.3318 -10.3318
v -17.8532 -15.7500 -10.5449
v -17.9631 -15.2759 -10.3797
v -17.8532 -15.6555 -10.6555
v -17.9631 -15.2131 -10.4182
v -17.8532 -15.5449 -10.7500
v -17.9631 -15.1450 -10.4463
v -17.8532 -15.4209 -10.8260
v -17.9631 -15.0734 -10.4635
v -17.8532 -15.2865 -10.8817
v -17.9631 -15.0000 -10.4693
v -17.8532 -15.1450 -10.9156
v -17.9631 15.0000 -10.4693
v -18.0000 15.0000 -10.0000
v -17.8532 15.0000 -10.9271
v -17.8532 -15.0000 -10.9271
v -17.8180 15.4693 -10.9156
v -17.9266 15.4693 -10.4635
v -17.6401 15.4693 -11.3452
v -17.5422 15.9271 -11.2953
v -17.6730 15.0000 -11.3620
v -17.3972 15.4693 -11.7416
v -17.3083 15.9271 -11.6771
v -17.4271 15.0000 -11.7634
v -17.6730 -15.0000 -11.3620
v -17.0952 15.4693 -12.0952
v -17.0175 15.9271 -12.0175
v -17.1213 15.0000 -12.1213
v -17.4271 -15.0000 -11.7634
v -16.7416 15.4693 -12.3972
v -16.6771 15.9271 -12.3083
v -16.7634 15.0000 -12.4271
v -17.1213 -15.0000 -12.1213
v -16.3452 15.4693 -12.6401
v -16.2953 15.9271 -12.5422
v -16.3620 15.0000 -12.6730
v -16.7634 -15.0000 -12.4271
v -15.9156 15.4693 -12.8180
v -15.8817 15.9271 -12.7135
v -15.9271 15.0000 -12.8532
v -16.3620 -15.0000 -12.6730
v -15.4635 15.4693 -12.9266
v -15.4463 15.9271 -12.8180
v -15.4693 15.0000 -12.9631
v -15.9271 -15.0000 -12.8532
v -15.0000 15.4693 -12.9631
v -15.0000 15.9271 -12.8532
v -15.0000 15.0000 -13.0000
v -15.4693 -15.0000 -12.9631
v 15.0000 15.0000 -13.0000
v 15.0000 15.4693 -12.9631
v -12.4000 8.3250 -13.0000
v 12.4000 8.3250 -13.0000
v -12.4000 -8.3250 -13.0000
v -15.0000 -15.0000 -13.0000
v -12.4000 8.3250 -15.0000
v -12.4000 -8.3250 -15.0000
v 12.4000 8.3250 -15.0000
v -15.0000 15.0000 -15.0000
v 12.4000 -8.3250 -15.0000
v 15.0000 15.0000 -15.0000
v 12.4000 -8.3250 -13.0000
v 15.0000 -15.0000 -13.0000
v 15.4693 15.0000 -12.9631
v 15.4693 -15.0000 -12.9631
v 15.4635 15.4693 -12.9266
v 15.9156 15.4693 -12.8180
v 15.4463 15.9271 -12.8180
v 15.8817 15.9271 -12.7135
v 15.0000 15.9271 -12.8532
v 15.4182 16.3620 -12.6401
v -15.0000 16.3620 -12.6730
v 15.0000 16.3620 -12.6730
v -15.4182 16.3620 -12.6401
v -15.0000 16.7634 -12.4271
v -15.8260 16.3620 -12.5422
v -15.3797 16.7634 -12.3972
v -16.2135 16.3620 -12.3817
v -15.7500 16.7634 -12.3083
v -16.5712 16.3620 -12.1625
v -16.1019 16.7634 -12.1625
v -16.8901 16.3620 -11.8901
v -16.4266 16.7634 -11.9635
v -17.1625 16.3620 -11.5712
v -16.7162 16.7634 -11.7162
v -17.3817 16.3620 -11.2135
v -16.9635 16.7634 -11.4266
v -17.7135 15.9271 -10.8817
v -17.5422 16.3620 -10.8260
v -17.8180 15.9271 -10.4463
v -17.9631 15.4693 -10.0000
v -17.8532 15.9271 -10.0000
v -17.6401 16.3620 -10.4182
v -17.8532 15.9271 15.0000
v -17.6730 16.3620 15.0000
v -18.0000 6.8536 12.0000
v -18.0000 6.6964 9.0000
v -18.8000 6.6964 9.0000
v -18.0000 2.6964 9.0000
v -18.8000 2.6964 9.0000
v -18.8000 2.5391 12.0000
v -18.8000 6.8536 12.0000
v -19.4550 17.2700 15.0000
v -19.4550 17.2700 -10.0000
v -19.2063 17.7032 -10.0000
v -19.0451 17.9389 -10.0000
v -19.0451 17.9389 15.0000
v -18.7403 18.2743 -10.5378
v -18.7787 18.2743 -10.0000
v -18.1417 18.7787 -10.9225
v -18.2410 18.7787 -10.4660
v -17.4589 19.2063 -11.1230
v -17.5937 19.2063 -10.7616
v -16.7473 19.5482 -11.1230
v -16.8894 19.5482 -10.8628
v -16.0646 19.7975 -10.9225
v -16.1850 19.7975 -10.7616
v -15.4660 19.9491 -10.5378
v -15.5378 19.9491 -10.4660
v -15.5986 19.9491 -10.3847
v -15.6473 19.9491 -10.2956
v -16.2814 19.7975 -10.5852
v -15.6828 19.9491 -10.2005
v -16.3516 19.7975 -10.3969
v -15.7043 19.9491 -10.1013
v -16.3943 19.7975 -10.2005
v -15.7116 19.9491 -10.0000
v -16.4087 19.7975 -10.0000
v -15.0000 20.0000 15.0000
v -15.7822 19.9384 15.0000
v 15.0000 20.0000 15.0000
v -15.0000 18.0000 15.0000
v 15.7822 19.9384 15.0000
v 15.0000 18.0000 15.0000
v 15.7116 19.9491 -10.0000
v 16.4087 19.7975 -10.0000
v 15.7043 19.9491 -10.1013
v 16.3943 19.7975 -10.2005
v 15.6828 19.9491 -10.2005
v 16.3516 19.7975 -10.3969
v 15.6473 19.9491 -10.2956
v 16.2814 19.7975 -10.5852
v 15.5986 19.9491 -10.3847
v 16.1850 19.7975 -10.7616
v 15.5378 19.9491 -10.4660
v 16.0646 19.7975 -10.9225
v 15.4660 19.9491 -10.5378
v 15.9225 19.7975 -11.0646
v 15.3847 19.9491 -10.5986
v 15.7616 19.7975 -11.1850
v 15.2956 19.9491 -10.6473
v 15.5852 19.7975 -11.2814
v 15.2005 19.9491 -10.6828
v 15.3969 19.7975 -11.3516
v 15.1013 19.9491 -10.7043
v 15.2005 19.7975 -11.3943
v 15.0000 19.9384 -10.7822
v 15.0000 19.7975 -11.4087
v -15.0000 19.7553 -11.5451
v 15.0000 19.7553 -11.5451
v -15.0000 19.5482 -12.0771
v -15.0000 19.4550 -12.2700
v 15.0000 19.5482 -12.0771
v -15.3847 19.2063 -12.6757
v -15.0000 19.2063 -12.7032
v -15.9225 18.7787 -13.1417
v -15.4660 18.7787 -13.2410
v -16.5697 18.2743 -13.4373
v -16.0646 18.2743 -13.6257
v -17.2741 17.7032 -13.5385
v -16.7473 17.7032 -13.8262
v -17.9784 17.0771 -13.4373
v -17.4589 17.0771 -13.8262
v -18.6257 16.4087 -13.1417
v -18.1417 16.4087 -13.6257
v -19.1635 15.7116 -12.6757
v -18.7403 15.7116 -13.2410
v -19.4550 15.0000 -12.2700
v -19.2063 15.0000 -12.7032
v -19.5482 15.0000 -12.0771
v -19.4550 -15.0000 -12.2700
v -19.7553 15.0000 -11.5451
v -19.5482 -15.0000 -12.0771
v -19.7553 -15.0000 -11.5451
v -19.7975 -15.0000 -11.4087
v -19.7975 -15.2005 -11.3943
v -19.5482 -15.5852 -11.9929
v -19.5482 -15.2956 -12.0559
v -19.5482 -15.8628 -11.8894
v -19.2063 -16.1230 -12.4589
v -19.5482 -16.1230 -11.7473
v -19.2063 -16.4615 -12.2741
v -19.5482 -16.3602 -11.5697
v -19.2063 -16.7702 -12.0429
v -19.5482 -16.5697 -11.3602
v -19.2063 -17.0429 -11.7702
v -19.5482 -16.7473 -11.1230
v -19.2063 -17.2741 -11.4615
v -19.5482 -16.8894 -10.8628
v -19.2063 -17.4589 -11.1230
v -19.5482 -16.9929 -10.5852
v -19.2063 -17.5937 -10.7616
v -19.5482 -17.0559 -10.2956
v -19.2063 -17.6757 -10.3847
v -19.2063 -17.7032 -10.0000
v -19.0451 -17.9389 -10.0000
v -18.7787 -18.2743 -10.0000
v -18.5355 -18.5355 15.0000
v -18.5355 -18.5355 -10.0000
v -17.1213 -17.1213 15.0000
v -16.7634 -17.4271 15.0000
v -17.9389 -19.0451 15.0000
v -16.7634 -17.4271 -10.0000
v -16.3620 -17.6730 -10.0000
v -17.1213 -17.0952 -10.3318
v -16.7634 -17.3972 -10.3797
v -17.1213 -17.0175 -10.6555
v -16.7634 -17.3083 -10.7500
v -17.4271 -16.5712 -10.8005
v -17.1213 -16.8901 -10.9631
v -17.6730 -16.2135 -10.6183
v -17.6730 -16.1019 -10.8005
v -17.6730 -15.9631 -10.9631
v -17.4271 -16.4266 -11.0365
v -17.6730 -15.8005 -11.1019
v -17.4271 -16.2469 -11.2469
v -17.6730 -15.6183 -11.2135
v -17.4271 -16.0365 -11.4266
v -17.6730 -15.4209 -11.2953
v -17.4271 -15.8005 -11.5712
v -17.6730 -15.2131 -11.3452
v -17.4271 -15.5449 -11.6771
v -17.4271 -15.2759 -11.7416
v -17.1213 -15.3318 -12.0952
v -17.1213 -15.6555 -12.0175
v -16.7634 -15.3797 -12.3972
v -16.7634 -15.7500 -12.3083
v -16.3620 -15.4182 -12.6401
v -16.3620 -15.8260 -12.5422
v -15.9271 -15.4463 -12.8180
v -15.9271 -15.8817 -12.7135
v -15.4693 -15.4635 -12.9266
v -15.4693 -15.9156 -12.8180
v -15.0000 -15.4693 -12.9631
v -15.0000 -15.9271 -12.8532
v 15.0000 -15.4693 -12.9631
v 15.0000 -15.9271 -12.8532
v 15.4693 -15.4635 -12.9266
v 15.4693 -15.9156 -12.8180
v 15.9271 -15.4463 -12.8180
v 15.9271 -15.8817 -12.7135
v 15.9271 -15.0000 -12.8532
v 16.3620 -15.4182 -12.6401
v 15.9271 15.0000 -12.8532
v 16.3620 15.0000 -12.6730
v 16.3452 15.4693 -12.6401
v 16.2953 15.9271 -12.5422
v 16.7416 15.4693 -12.3972
v 16.6771 15.9271 -12.3083
v 16.7634 15.0000 -12.4271
v 16.3620 -15.0000 -12.6730
v 17.0952 15.4693 -12.0952
v 17.0175 15.9271 -12.0175
v 17.1213 15.0000 -12.1213
v 16.7634 -15.0000 -12.4271
v 17.3972 15.4693 -11.7416
v 17.3083 15.9271 -11.6771
v 17.4271 15.0000 -11.7634
v 17.1213 -15.0000 -12.1213
v 17.6401 15.4693 -11.3452
v 17.5422 15.9271 -11.2953
v 17.6730 15.0000 -11.3620
v 17.4271 -15.0000 -11.7634
v 17.8180 15.4693 -10.9156
v 17.7135 15.9271 -10.8817
v 17.8532 15.0000 -10.9271
v 17.6730 -15.0000 -11.3620
v 17.9266 15.4693 -10.4635
v 17.8180 15.9271 -10.4463
v 17.9631 15.0000 -10.4693
v 17.8532 -15.0000 -10.9271
v 17.9631 15.4693 -10.0000
v 17.8532 15.9271 -10.0000
v 18.0000 15.0000 -10.0000
v 17.9631 -15.0000 -10.4693
v 18.0000 15.0000 15.0000
v 17.9631 15.4693 15.0000
v 18.0000 6.6964 9.0000
v 18.0000 2.6964 9.0000
v 18.0000 6.8536 12.0000
v 18.8000 6.6964 9.0000
v 18.0000 2.5391 12.0000
v 18.8000 6.8536 12.0000
v 18.0000 -2.5391 12.0000
v 18.0000 -15.0000 15.0000
v 18.0000 -2.6964 9.0000
v 18.8000 -2.6964 9.0000
v 18.8000 -2.5391 12.0000
v 18.8000 -6.6964 9.0000
v 18.0000 -6.6964 9.0000
v 18.8000 -6.8536 12.0000
v 18.0000 -6.8536 12.0000
v 18.0000 -15.0000 -10.0000
v 17.9631 -15.4693 15.0000
v 17.9631 -15.4693 -10.0000
v 19.9384 -15.7822 15.0000
v 19.7553 -16.5451 15.0000
v 20.0000 -15.0000 15.0000
v 20.0000 -15.0000 -10.0000
v 20.0000 15.0000 15.0000
v 20.0000 15.0000 -10.0000
v 19.9384 15.7822 15.0000
v 19.9491 15.7116 -10.0000
v 17.8532 15.9271 15.0000
v 19.7553 16.5451 15.0000
v 17.6730 16.3620 -10.0000
v 17.6730 16.3620 15.0000
v 17.6401 16.3620 -10.4182
v 17.4271 16.7634 -10.0000
v 17.5422 16.3620 -10.8260
v 17.3972 16.7634 -10.3797
v 17.3817 16.3620 -11.2135
v 17.3083 16.7634 -10.7500
v 17.1625 16.3620 -11.5712
v 17.1625 16.7634 -11.1019
v 16.8901 16.3620 -11.8901
v 16.9635 16.7634 -11.4266
v 16.5712 16.3620 -12.1625
v 16.7162 16.7634 -11.7162
v 16.2135 16.3620 -12.3817
v 16.4266 16.7634 -11.9635
v 15.8260 16.3620 -12.5422
v 16.1019 16.7634 -12.1625
v 15.7500 16.7634 -12.3083
v 15.3797 16.7634 -12.3972
v 15.6555 17.1213 -12.0175
v 15.9631 17.1213 -11.8901
v 15.3318 17.1213 -12.0952
v 15.0000 16.7634 -12.4271
v 15.5449 17.4271 -11.6771
v 15.8005 17.4271 -11.5712
v 15.2758 17.4271 -11.7416
v 15.0000 17.1213 -12.1213
v 15.4209 17.6730 -11.2953
v 15.6183 17.6730 -11.2135
v 15.2131 17.6730 -11.3452
v 15.0000 17.4271 -11.7634
v 15.2865 17.8532 -10.8817
v 15.4209 17.8532 -10.8260
v 15.1450 17.8532 -10.9156
v 15.0000 17.6730 -11.3620
v 15.1450 17.9631 -10.4463
v 15.2131 17.9631 -10.4182
v 15.0734 17.9631 -10.4635
v 15.0000 17.8532 -10.9271
v 15.0000 18.0000 -10.0000
v 15.0000 17.9631 -10.4693
v -15.0000 18.0000 -10.0000
v -15.0000 17.9631 -10.4693
v -15.0000 17.8532 -10.9271
v -15.1450 17.8532 -10.9156
v -15.0000 17.6730 -11.3620
v -15.2131 17.6730 -11.3452
v -15.0000 17.4271 -11.7634
v -15.2759 17.4271 -11.7416
v -15.0000 17.1213 -12.1213
v -15.3318 17.1213 -12.0952
v -15.6555 17.1213 -12.0175
v -15.9631 17.1213 -11.8901
v -15.5449 17.4271 -11.6771
v -16.2469 17.1213 -11.7162
v -15.8005 17.4271 -11.5712
v -16.5000 17.1213 -11.5000
v -16.0365 17.4271 -11.4266
v -16.7162 17.1213 -11.2469
v -16.2469 17.4271 -11.2469
v -17.1625 16.7634 -11.1019
v -16.8901 17.1213 -10.9631
v -17.3083 16.7634 -10.7500
v -17.0175 17.1213 -10.6555
v -17.3972 16.7634 -10.3797
v -16.5712 17.4271 -10.8005
v -16.4266 17.4271 -11.0365
v -16.6771 17.4271 -10.5449
v -17.0952 17.1213 -10.3318
v -16.2135 17.6730 -10.6183
v -16.1019 17.6730 -10.8005
v -16.2953 17.6730 -10.4209
v -16.7416 17.4271 -10.2758
v -15.8260 17.8532 -10.4209
v -15.7500 17.8532 -10.5449
v -15.8817 17.8532 -10.2865
v -16.3452 17.6730 -10.2131
v -15.4182 17.9631 -10.2131
v -15.3797 17.9631 -10.2758
v -15.4463 17.9631 -10.1450
v -15.9156 17.8532 -10.1450
v -15.4635 17.9631 -10.0734
v -15.4693 17.9631 -10.0000
v -15.9271 17.8532 -10.0000
v -15.4693 17.9631 15.0000
v -16.3620 17.6730 -10.0000
v -15.9271 17.8532 15.0000
v -16.7634 17.4271 -10.0000
v -16.3620 17.6730 15.0000
v -17.1213 17.1213 -10.0000
v -16.7634 17.4271 15.0000
v -17.4271 16.7634 -10.0000
v -17.1213 17.1213 15.0000
v -17.6730 16.3620 -10.0000
v -17.4271 16.7634 15.0000
v -18.5355 18.5355 15.0000
v -18.5355 18.5355 -10.0000
v -18.2743 18.7787 -10.0000
v -17.6757 19.2063 -10.3847
v -17.9389 19.0451 -10.0000
v -16.9929 19.5482 -10.5852
v -17.0559 19.5482 -10.2956
v -17.0771 19.5482 -10.0000
v -17.2700 19.4550 -10.0000
v -16.5451 19.7553 -10.0000
v -16.5451 19.7553 15.0000
v -17.2700 19.4550 15.0000
v -17.9389 19.0451 15.0000
v -17.7032 19.2063 -10.0000
v 15.4693 17.9631 15.0000
v 15.4693 17.9631 -10.0000
v 16.5451 19.7553 15.0000
v 15.9271 17.8532 15.0000
v 16.5451 19.7553 -10.0000
v 17.0771 19.5482 -10.0000
v 17.0559 19.5482 -10.2956
v 16.9929 19.5482 -10.5852
v 17.5937 19.2063 -10.7616
v 16.8894 19.5482 -10.8628
v 17.4589 19.2063 -11.1230
v 16.7473 19.5482 -11.1230
v 17.2741 19.2063 -11.4615
v 16.5697 19.5482 -11.3602
v 17.0429 19.2063 -11.7702
v 16.3602 19.5482 -11.5697
v 16.7702 19.2063 -12.0429
v 16.1230 19.5482 -11.7473
v 16.4615 19.2063 -12.2741
v 15.8628 19.5482 -11.8894
v 16.1230 19.2063 -12.4589
v 15.5852 19.5482 -11.9929
v 15.7616 19.2063 -12.5937
v 15.2956 19.5482 -12.0559
v 15.3847 19.2063 -12.6757
v 15.0000 19.4550 -12.2700
v 15.0000 19.2063 -12.7032
v -15.0000 19.0451 -12.9389
v 15.0000 19.0451 -12.9389
v -15.0000 18.7787 -13.2743
v -15.5378 18.2743 -13.7403
v -15.0000 18.5355 -13.5355
v -16.1850 17.7032 -14.0359
v -15.5986 17.7032 -14.1635
v -16.8894 17.0771 -14.1372
v -16.2814 17.0771 -14.3639
v -17.5937 16.4087 -14.0359
v -16.9929 16.4087 -14.3639
v -18.2410 15.7116 -13.7403
v -17.6757 15.7116 -14.1635
v -18.5355 15.0000 -13.5355
v -18.2743 15.0000 -13.7787
v -18.7787 15.0000 -13.2743
v -18.5355 -15.0000 -13.5355
v -19.0451 15.0000 -12.9389
v -18.7787 -15.0000 -13.2743
v -19.0451 -15.0000 -12.9389
v -19.2063 -15.0000 -12.7032
v -19.2063 -15.3847 -12.6757
v -19.2063 -15.7616 -12.5937
v -18.7787 -15.9225 -13.1417
v -18.7787 -16.3602 -12.9784
v -18.7787 -16.7702 -12.7545
v -18.2743 -17.0429 -13.1789
v -18.7787 -17.1442 -12.4746
v -18.2743 -17.4746 -12.8558
v -18.7787 -17.4746 -12.1442
v -18.2743 -17.8558 -12.4746
v -18.7787 -17.7545 -11.7702
v -18.2743 -18.1789 -12.0429
v -18.7787 -17.9784 -11.3602
v -18.2743 -18.4373 -11.5697
v -18.7787 -18.1417 -10.9225
v -18.2743 -18.6257 -11.0646
v -18.7787 -18.2410 -10.4660
v -18.2743 -18.7403 -10.5378
v -18.2743 -18.7787 -10.0000
v -17.9389 -19.0451 -10.0000
v -17.7032 -19.2063 -10.0000
v -17.7032 -19.1635 -10.5986
v -17.2700 -19.4550 15.0000
v -17.2700 -19.4550 -10.0000
v -16.3620 -17.6730 15.0000
v -15.9271 -17.8532 15.0000
v -16.5451 -19.7553 15.0000
v -15.9271 -17.8532 -10.0000
v -15.4693 -17.9631 -10.0000
v -16.3620 -17.6401 -10.4182
v -15.9271 -17.8180 -10.4463
v -16.3620 -17.5422 -10.8260
v -15.9271 -17.7135 -10.8817
v -16.7634 -17.1625 -11.1019
v -16.3620 -17.3817 -11.2135
v -17.1213 -16.7162 -11.2469
v -16.7634 -16.9635 -11.4266
v -17.1213 -16.5000 -11.5000
v -17.1213 -16.2469 -11.7162
v -16.7634 -16.7162 -11.7162
v -17.1213 -15.9631 -11.8901
v -16.7634 -16.4266 -11.9635
v -16.7634 -16.1019 -12.1625
v -16.3620 -16.2135 -12.3817
v -16.3620 -16.5712 -12.1625
v -15.9271 -16.2953 -12.5422
v -15.9271 -16.6771 -12.3083
v -15.4693 -16.3452 -12.6401
v -15.4693 -16.7416 -12.3972
v -15.0000 -16.3620 -12.6730
v -15.0000 -16.7634 -12.4271
v 15.0000 -16.3620 -12.6730
v 15.0000 -16.7634 -12.4271
v 15.4693 -16.3452 -12.6401
v 15.4693 -16.7416 -12.3972
v 15.9271 -16.6771 -12.3083
v 15.4693 -17.0952 -12.0952
v 15.9271 -17.0175 -12.0175
v 15.0000 -17.1213 -12.1213
v 15.4693 -17.3972 -11.7416
v 15.9271 -17.3083 -11.6771
v 15.0000 -17.4271 -11.7634
v -15.0000 -17.1213 -12.1213
v 15.4693 -17.6401 -11.3452
v 15.9271 -17.5422 -11.2953
v 15.0000 -17.6730 -11.3620
v -15.0000 -17.4271 -11.7634
v 15.4693 -17.8180 -10.9156
v 15.9271 -17.7135 -10.8817
v 15.0000 -17.8532 -10.9271
v -15.0000 -17.6730 -11.3620
v 15.4693 -17.9266 -10.4635
v 15.9271 -17.8180 -10.4463
v 15.0000 -17.9631 -10.4693
v -15.0000 -17.8532 -10.9271
v 15.4693 -17.9631 -10.0000
v 15.9271 -17.8532 -10.0000
v 15.0000 -18.0000 -10.0000
v -15.0000 -17.9631 -10.4693
v 15.0000 -18.0000 15.0000
v -15.0000 -18.0000 -10.0000
v 15.4693 -17.9631 15.0000
v 15.0000 -20.0000 15.0000
v 15.9271 -17.8532 15.0000
v 15.7822 -19.9384 15.0000
v 16.3620 -17.6730 -10.0000
v 16.3620 -17.6730 15.0000
v 16.3620 -17.6401 -10.4182
v 16.7634 -17.4271 -10.0000
v 16.3620 -17.5422 -10.8260
v 16.7634 -17.3972 -10.3797
v 16.3620 -17.3817 -11.2135
v 16.7634 -17.3083 -10.7500
v 16.3620 -17.1625 -11.5712
v 16.7634 -17.1625 -11.1019
v 16.3620 -16.8901 -11.8901
v 16.7634 -16.9635 -11.4266
v 16.3620 -16.5712 -12.1625
v 16.7634 -16.7162 -11.7162
v 15.9271 -16.2953 -12.5422
v 16.3620 -16.2135 -12.3817
v 16.3620 -15.8260 -12.5422
v 16.7634 -16.1019 -12.1625
v 16.7634 -15.7500 -12.3083
v 16.7634 -15.3797 -12.3972
v 17.1213 -15.6555 -12.0175
v 17.1213 -15.9631 -11.8901
v 17.1213 -15.3318 -12.0952
v 17.4271 -15.5449 -11.6771
v 17.4271 -15.8005 -11.5712
v 17.4271 -15.2759 -11.7416
v 17.6730 -15.4209 -11.2953
v 17.6730 -15.6183 -11.2135
v 17.6730 -15.2131 -11.3452
v 17.8532 -15.2865 -10.8817
v 17.8532 -15.4209 -10.8260
v 17.8532 -15.1450 -10.9156
v 17.9631 -15.1450 -10.4463
v 17.9631 -15.2131 -10.4182
v 17.9631 -15.0734 -10.4635
v 17.9631 -15.2759 -10.3797
v 17.9631 -15.3318 -10.3318
v 17.8532 -15.5449 -10.7500
v 17.9631 -15.3797 -10.2758
v 17.8532 -15.6555 -10.6555
v 17.9631 -15.4182 -10.2131
v 17.8532 -15.7500 -10.5449
v 17.9631 -15.4463 -10.1450
v 17.8532 -15.8260 -10.4209
v 17.9631 -15.4635 -10.0734
v 17.8532 -15.8817 -10.2865
v 17.8532 -15.9156 -10.1450
v 17.8532 -15.9271 -10.0000
v 17.6730 -16.3452 -10.2131
v 17.8532 -15.9271 15.0000
v 17.6730 -16.3620 15.0000
v 19.4550 -17.2700 15.0000
v 19.5482 -17.0771 -10.0000
v 19.7553 -16.5451 -10.0000
v 19.4550 -17.2700 -10.0000
v 19.2063 -17.7032 -10.0000
v 19.5482 -17.0559 -10.2956
v 19.2063 -17.6757 -10.3847
v 19.2063 -17.5937 -10.7616
v 18.7787 -18.1417 -10.9225
v 19.5482 -16.9929 -10.5852
v 19.2063 -17.4589 -11.1230
v 19.7975 -16.3943 -10.2005
v 19.7975 -16.3516 -10.3969
v 19.7975 -16.4087 -10.0000
v 19.9491 -15.7116 -10.0000
v 19.9491 -15.7043 -10.1013
v 19.9491 -15.6828 -10.2005
v 19.9491 -15.6473 -10.2956
v 19.7975 -16.2814 -10.5852
v 19.9491 -15.5986 -10.3847
v 19.7975 -16.1850 -10.7616
v 19.9491 -15.5378 -10.4660
v 19.7975 -16.0646 -10.9225
v 19.9491 -15.4660 -10.5378
v 19.7975 -15.9225 -11.0646
v 19.9491 -15.3847 -10.5986
v 19.7975 -15.7616 -11.1850
v 19.9491 -15.2956 -10.6473
v 19.7975 -15.5852 -11.2814
v 19.9491 -15.2005 -10.6828
v 19.7975 -15.3969 -11.3516
v 19.9491 -15.1013 -10.7043
v 19.7975 -15.2005 -11.3943
v 19.9491 -15.0000 -10.7116
v 19.9384 -15.0000 -10.7822
v 19.9491 15.0000 -10.7116
v 19.9384 15.0000 -10.7822
v 19.8987 15.7116 -10.7043
v 19.7486 15.7116 -11.3943
v 19.7975 16.4087 -10.0000
v 19.7486 16.4087 -10.6828
v 19.7553 16.5451 -10.0000
v 19.5482 17.0771 -10.0000
v 19.5019 17.0771 -10.6473
v 19.4550 17.2700 15.0000
v 19.4550 17.2700 -10.0000
v 17.4271 16.7634 15.0000
v 19.0451 17.9389 15.0000
v 17.1213 17.1213 -10.0000
v 17.1213 17.1213 15.0000
v 17.0952 17.1213 -10.3318
v 16.7634 17.4271 -10.0000
v 17.0175 17.1213 -10.6555
v 16.7416 17.4271 -10.2758
v 16.8901 17.1213 -10.9631
v 16.6771 17.4271 -10.5449
v 16.7162 17.1213 -11.2469
v 16.5712 17.4271 -10.8005
v 16.5000 17.1213 -11.5000
v 16.4266 17.4271 -11.0365
v 16.2469 17.1213 -11.7162
v 16.2469 17.4271 -11.2469
v 16.0365 17.4271 -11.4266
v 15.8005 17.6730 -11.1019
v 15.9631 17.6730 -10.9631
v 15.5449 17.8532 -10.7500
v 15.6555 17.8532 -10.6555
v 15.2758 17.9631 -10.3797
v 15.3318 17.9631 -10.3318
v 15.3797 17.9631 -10.2758
v 15.4182 17.9631 -10.2131
v 15.7500 17.8532 -10.5449
v 15.4463 17.9631 -10.1450
v 15.8260 17.8532 -10.4209
v 15.4635 17.9631 -10.0734
v 15.8817 17.8532 -10.2865
v 15.9156 17.8532 -10.1450
v 15.9271 17.8532 -10.0000
v 16.3452 17.6730 -10.2131
v 16.3620 17.6730 15.0000
v 16.3620 17.6730 -10.0000
v 17.2700 19.4550 15.0000
v 17.9389 19.0451 15.0000
v 17.2700 19.4550 -10.0000
v 17.7032 19.2063 -10.0000
v 17.6757 19.2063 -10.3847
v 18.1417 18.7787 -10.9225
v 18.2410 18.7787 -10.4660
v 17.9784 18.7787 -11.3602
v 18.4373 18.2743 -11.5697
v 17.7545 18.7787 -11.7702
v 18.1789 18.2743 -12.0429
v 17.4746 18.7787 -12.1442
v 17.8558 18.2743 -12.4746
v 17.1442 18.7787 -12.4746
v 17.4746 18.2743 -12.8558
v 16.7702 18.7787 -12.7545
v 17.0429 18.2743 -13.1789
v 16.3602 18.7787 -12.9784
v 16.5697 18.2743 -13.4373
v 15.9225 18.7787 -13.1417
v 16.0646 18.2743 -13.6257
v 15.4660 18.7787 -13.2410
v 15.5378 18.2743 -13.7403
v 15.0000 18.7787 -13.2743
v 15.0000 18.5355 -13.5355
v -15.0000 18.2743 -13.7787
v 15.0000 18.2743 -13.7787
v -15.0000 17.9389 -14.0451
v -15.0000 17.7032 -14.2063
v 15.0000 17.9389 -14.0451
v -15.0000 17.2700 -14.4550
v 15.0000 17.7032 -14.2063
v -15.6473 17.0771 -14.5019
v -15.0000 17.0771 -14.5482
v -16.3516 16.4087 -14.6031
v -15.6828 16.4087 -14.7486
v -17.0559 15.7116 -14.5019
v -16.3943 15.7116 -14.7486
v -17.2700 15.0000 -14.4550
v -17.0771 15.0000 -14.5482
v -17.7032 15.0000 -14.2063
v -17.2700 -15.0000 -14.4550
v -17.9389 15.0000 -14.0451
v -17.7032 -15.0000 -14.2063
v -17.9389 -15.0000 -14.0451
v -18.2743 -15.0000 -13.7787
v -18.2743 -15.5378 -13.7403
v -18.7787 -15.4660 -13.2410
v -18.2743 -16.0646 -13.6257
v -17.7032 -16.1850 -14.0359
v -18.2743 -16.5697 -13.4373
v -17.7032 -16.7473 -13.8262
v -17.7032 -17.2741 -13.5385
v -17.7032 -17.7545 -13.1789
v -17.0771 -17.9784 -13.4373
v -17.7032 -18.1789 -12.7545
v -17.0771 -18.4373 -12.9784
v -17.7032 -18.5385 -12.2741
v -17.0771 -18.8262 -12.4589
v -17.7032 -18.8262 -11.7473
v -17.0771 -19.1372 -11.8894
v -17.7032 -19.0359 -11.1850
v -17.0771 -19.3639 -11.2814
v -17.0771 -19.5019 -10.6473
v -17.0771 -19.5482 -10.0000
v -16.5451 -19.7553 -10.0000
v -16.4087 -19.7975 -10.0000
v -16.4087 -19.7486 -10.6828
v -15.7822 -19.9384 15.0000
v -15.7116 -19.9491 -10.0000
v -15.4693 -17.9631 15.0000
v -15.0000 -18.0000 15.0000
v -15.0000 -20.0000 15.0000
v -15.4693 -17.9266 -10.4635
v -15.4693 -17.8180 -10.9156
v -15.9271 -17.5422 -11.2953
v -15.4693 -17.6401 -11.3452
v -15.9271 -17.3083 -11.6771
v -16.3620 -17.1625 -11.5712
v -15.4693 -17.3972 -11.7416
v -15.9271 -17.0175 -12.0175
v -16.3620 -16.8901 -11.8901
v -15.4693 -17.0952 -12.0952
v 15.0000 -20.0000 -10.0000
v -15.0000 -20.0000 -10.0000
v 15.7116 -19.9491 -10.0000
v 15.0000 -19.9491 -10.7116
v 15.7116 -19.8987 -10.7043
v -15.0000 -19.9491 -10.7116
v -15.7116 -19.8987 -10.7043
v 15.0000 -19.9384 -10.7822
v -15.0000 -19.9384 -10.7822
v 15.7116 -19.7486 -11.3943
v 15.0000 -19.7975 -11.4087
v 16.4087 -19.7486 -10.6828
v 16.4087 -19.6031 -11.3516
v 16.4087 -19.7975 -10.0000
v 16.5451 -19.7553 -10.0000
v 16.5451 -19.7553 15.0000
v 17.2700 -19.4550 15.0000
v 17.0771 -19.5482 -10.0000
v 16.7634 -17.4271 15.0000
v 17.9389 -19.0451 15.0000
v 17.1213 -17.1213 -10.0000
v 17.1213 -17.1213 15.0000
v 17.1213 -17.0952 -10.3318
v 17.4271 -16.7634 -10.0000
v 17.1213 -17.0175 -10.6555
v 17.4271 -16.7416 -10.2758
v 17.1213 -16.8901 -10.9631
v 17.4271 -16.6771 -10.5449
v 17.1213 -16.7162 -11.2469
v 17.4271 -16.5712 -10.8005
v 17.1213 -16.5000 -11.5000
v 17.4271 -16.4266 -11.0365
v 16.7634 -16.4266 -11.9635
v 17.1213 -16.2469 -11.7162
v 17.4271 -16.0365 -11.4266
v 17.4271 -16.2469 -11.2469
v 17.6730 -15.8005 -11.1019
v 17.6730 -15.9631 -10.9631
v 17.6730 -16.1019 -10.8005
v 17.6730 -16.2135 -10.6183
v 17.6730 -16.2953 -10.4209
v 17.6730 -16.3620 -10.0000
v 17.4271 -16.7634 15.0000
v 19.0451 -17.9389 15.0000
v 18.5355 -18.5355 15.0000
v 19.0451 -17.9389 -10.0000
v 18.7787 -18.2743 -10.0000
v 18.7787 -18.2410 -10.4660
v 18.2743 -18.6257 -11.0646
v 18.2743 -18.7403 -10.5378
v 18.2743 -18.4373 -11.5697
v 17.7032 -18.8262 -11.7473
v 18.7787 -17.9784 -11.3602
v 18.2743 -18.1789 -12.0429
v 18.7787 -17.7545 -11.7702
v 19.2063 -17.2741 -11.4615
v 18.7787 -17.4746 -12.1442
v 19.5482 -16.8894 -10.8628
v 19.5482 -16.7473 -11.1230
v 19.5482 -16.5697 -11.3602
v 19.2063 -17.0429 -11.7702
v 19.5482 -16.3602 -11.5697
v 19.2063 -16.7702 -12.0429
v 19.5482 -16.1230 -11.7473
v 19.2063 -16.4615 -12.2741
v 19.5482 -15.8628 -11.8894
v 19.2063 -16.1230 -12.4589
v 19.5482 -15.5852 -11.9929
v 19.2063 -15.7616 -12.5937
v 19.5482 -15.2956 -12.0559
v 19.2063 -15.3847 -12.6757
v 19.5482 -15.0000 -12.0771
v 19.4550 -15.0000 -12.2700
v 19.7553 -15.0000 -11.5451
v 19.5482 15.0000 -12.0771
v 19.7975 -15.0000 -11.4087
v 19.7553 15.0000 -11.5451
v 19.7975 15.0000 -11.4087
v 19.5019 15.7116 -12.0559
v 19.6031 16.4087 -11.3516
v 19.3639 16.4087 -11.9929
v 19.3639 17.0771 -11.2814
v 19.1635 17.7032 -10.5986
v 19.0359 17.7032 -11.1850
v 19.2063 17.7032 -10.0000
v 19.0451 17.9389 -10.0000
v 18.7787 18.2743 -10.0000
v 18.7403 18.2743 -10.5378
v 18.5355 18.5355 15.0000
v 18.5355 18.5355 -10.0000
v 16.7634 17.4271 15.0000
v 16.2953 17.6730 -10.4209
v 16.2135 17.6730 -10.6183
v 16.1019 17.6730 -10.8005
v 18.2743 18.7787 -10.0000
v 17.9389 19.0451 -10.0000
v 18.6257 18.2743 -11.0646
v 18.8262 17.7032 -11.7473
v 18.5385 17.7032 -12.2741
v 18.8262 17.0771 -12.4589
v 18.1789 17.7032 -12.7545
v 18.4373 17.0771 -12.9784
v 17.7545 17.7032 -13.1789
v 17.9784 17.0771 -13.4373
v 17.2741 17.7032 -13.5385
v 17.4589 17.0771 -13.8262
v 16.7473 17.7032 -13.8262
v 16.8894 17.0771 -14.1372
v 16.1850 17.7032 -14.0359
v 16.2814 17.0771 -14.3639
v 15.5986 17.7032 -14.1635
v 15.6473 17.0771 -14.5019
v 15.0000 17.2700 -14.4550
v 15.0000 17.0771 -14.5482
v -15.0000 16.5451 -14.7553
v 15.0000 16.5451 -14.7553
v -15.0000 16.4087 -14.7975
v -15.0000 15.7822 -14.9384
v 15.0000 16.4087 -14.7975
v -15.7043 15.7116 -14.8987
v -15.0000 15.7116 -14.9491
v -15.7822 15.0000 -14.9384
v -15.7116 15.0000 -14.9491
v -16.4087 15.0000 -14.7975
v -15.7822 -15.0000 -14.9384
v -16.5451 15.0000 -14.7553
v -16.4087 -15.0000 -14.7975
v -16.5451 -15.0000 -14.7553
v -17.0771 -15.0000 -14.5482
v -17.0771 -15.6473 -14.5019
v -17.7032 -15.5986 -14.1635
v -17.0771 -16.2814 -14.3639
v -16.4087 -16.3516 -14.6031
v -17.0771 -16.8894 -14.1372
v -16.4087 -16.9929 -14.3639
v -17.0771 -17.4589 -13.8262
v -16.4087 -17.5937 -14.0359
v -16.4087 -18.1417 -13.6257
v -16.4087 -18.6257 -13.1417
v -15.7116 -18.7403 -13.2410
v -16.4087 -19.0359 -12.5937
v -15.7116 -19.1635 -12.6757
v -16.4087 -19.3639 -11.9929
v -15.7116 -19.5019 -12.0559
v -16.4087 -19.6031 -11.3516
v -15.7116 -19.7486 -11.3943
v -15.0000 -19.7975 -11.4087
v -15.0000 -19.7553 -11.5451
v 15.0000 -19.7553 -11.5451
v -15.0000 -19.5482 -12.0771
v 15.0000 -19.5482 -12.0771
v -15.0000 -19.4550 -12.2700
v 15.0000 -19.4550 -12.2700
v -15.0000 -19.2063 -12.7032
v 15.0000 -19.2063 -12.7032
v -15.0000 -19.0451 -12.9389
v 15.0000 -19.0451 -12.9389
v -15.0000 -18.7787 -13.2743
v 15.0000 -18.7787 -13.2743
v -15.0000 -18.5355 -13.5355
v 15.0000 -18.5355 -13.5355
v -15.7116 -18.2410 -13.7403
v -15.0000 -18.2743 -13.7787
v -15.7116 -17.6757 -14.1635
v -15.0000 -17.9389 -14.0451
v -15.7116 -17.0559 -14.5019
v -15.0000 -17.2700 -14.4550
v -15.7116 -16.3943 -14.7486
v -15.0000 -16.5451 -14.7553
v -16.4087 -15.6828 -14.7486
v -15.7116 -15.7043 -14.8987
v -15.7116 -15.0000 -14.9491
v -15.0000 -15.7116 -14.9491
v -15.0000 -15.0000 -15.0000
v -15.0000 -15.7822 -14.9384
v 15.0000 -15.7116 -14.9491
v -15.0000 -16.4087 -14.7975
v 15.0000 -15.7822 -14.9384
v 15.0000 -16.4087 -14.7975
v 15.0000 -16.5451 -14.7553
v 15.7116 -16.3943 -14.7486
v 15.7116 -15.7043 -14.8987
v 15.7116 -17.0559 -14.5019
v 15.0000 -17.0771 -14.5482
v 16.4087 -16.9929 -14.3639
v 16.4087 -16.3516 -14.6031
v 16.4087 -17.5937 -14.0359
v 15.7116 -17.6757 -14.1635
v 17.0771 -17.4589 -13.8262
v 17.0771 -16.8894 -14.1372
v 17.0771 -17.9784 -13.4373
v 16.4087 -18.1417 -13.6257
v 17.7032 -17.7545 -13.1789
v 17.7032 -17.2741 -13.5385
v 17.7032 -18.1789 -12.7545
v 17.0771 -18.4373 -12.9784
v 18.2743 -17.8558 -12.4746
v 18.2743 -17.4746 -12.8558
v 17.7032 -18.5385 -12.2741
v 18.7787 -17.1442 -12.4746
v 18.2743 -17.0429 -13.1789
v 18.7787 -16.7702 -12.7545
v 18.7787 -16.3602 -12.9784
v 18.2743 -16.5697 -13.4373
v 18.7787 -15.9225 -13.1417
v 18.2743 -16.0646 -13.6257
v 18.7787 -15.4660 -13.2410
v 18.2743 -15.5378 -13.7403
v 18.7787 -15.0000 -13.2743
v 18.5355 -15.0000 -13.5355
v 19.0451 -15.0000 -12.9389
v 18.7787 15.0000 -13.2743
v 19.2063 -15.0000 -12.7032
v 19.0451 15.0000 -12.9389
v 19.2063 15.0000 -12.7032
v 19.4550 15.0000 -12.2700
v 19.1635 15.7116 -12.6757
v 18.7403 15.7116 -13.2410
v 19.0359 16.4087 -12.5937
v 19.1371 17.0771 -11.8894
v 18.6257 16.4087 -13.1417
v 18.1417 16.4087 -13.6257
v 18.2410 15.7116 -13.7403
v 17.5937 16.4087 -14.0359
v 17.6757 15.7116 -14.1635
v 16.9929 16.4087 -14.3639
v 17.0559 15.7116 -14.5019
v 16.3516 16.4087 -14.6031
v 16.3943 15.7116 -14.7486
v 15.6828 16.4087 -14.7486
v 15.7043 15.7116 -14.8987
v 15.0000 15.7822 -14.9384
v 15.0000 15.7116 -14.9491
v 15.0000 -15.0000 -15.0000
v 15.7116 -15.0000 -14.9491
v 15.7822 -15.0000 -14.9384
v 15.7116 15.0000 -14.9491
v 16.4087 -15.6828 -14.7486
v 16.4087 -15.0000 -14.7975
v 17.0771 -16.2814 -14.3639
v 17.0771 -15.6473 -14.5019
v 17.7032 -16.7473 -13.8262
v 17.7032 -16.1850 -14.0359
v 17.7032 -15.5986 -14.1635
v 17.9389 -15.0000 -14.0451
v 17.7032 -15.0000 -14.2063
v 18.2743 -15.0000 -13.7787
v 17.9389 15.0000 -14.0451
v 18.2743 15.0000 -13.7787
v 18.5355 15.0000 -13.5355
v 17.7032 15.0000 -14.2063
v 17.2700 15.0000 -14.4550
v 17.0771 15.0000 -14.5482
v 17.2700 -15.0000 -14.4550
v 16.5451 15.0000 -14.7553
v 17.0771 -15.0000 -14.5482
v 16.4087 15.0000 -14.7975
v 16.5451 -15.0000 -14.7553
v 15.7822 15.0000 -14.9384
v 17.0771 -18.8262 -12.4589
v 17.0771 -19.1372 -11.8894
v 16.4087 -18.6257 -13.1417
v 16.4087 -19.0359 -12.5937
v 15.7116 -18.2410 -13.7403
v 15.7116 -18.7403 -13.2410
v 15.0000 -17.9389 -14.0451
v 15.0000 -18.2743 -13.7787
v 15.0000 -17.7032 -14.2063
v 15.0000 -17.2700 -14.4550
v -15.0000 -17.7032 -14.2063
v -15.0000 -17.0771 -14.5482
v 15.7116 -19.1635 -12.6757
v 16.4087 -19.3639 -11.9929
v 15.7116 -19.5019 -12.0559
v 17.0771 -19.3639 -11.2814
v 17.7032 -19.0359 -11.1850
v 17.7032 -19.1635 -10.5986
v 17.0771 -19.5019 -10.6473
v 17.9389 -19.0451 -10.0000
v 18.2743 -18.7787 -10.0000
v 17.7032 -19.2063 -10.0000
v 17.2700 -19.4550 -10.0000
v 18.5355 -18.5355 -10.0000
v -15.3318 17.9631 -10.3318
v -15.2759 17.9631 -10.3797
v -15.6555 17.8532 -10.6555
v -15.2131 17.9631 -10.4182
v -15.5449 17.8532 -10.7500
v -15.1450 17.9631 -10.4463
v -15.4209 17.8532 -10.8260
v -15.0734 17.9631 -10.4635
v -15.2865 17.8532 -10.8817
v -15.4209 17.6730 -11.2953
v -15.6183 17.6730 -11.2135
v -15.8005 17.6730 -11.1019
v -15.9631 17.6730 -10.9631
v 18.8000 2.5391 12.0000
v 18.8000 2.6964 9.0000
f 1 2 3
f 4 2 1
f 3 2 5
f 1 3 6
f 7 6 3
f 1 6 8
f 8 6 9
f 10 1 8
f 4 1 10
f 10 8 11
f 11 8 12
f 11 13 10
f 11 14 13
f 10 13 15
f 16 15 13
f 10 15 4
f 4 15 17
f 17 15 16
f 18 4 17
f 19 4 18
f 18 17 20
f 20 17 21
f 20 22 18
f 23 22 20
f 22 24 18
f 22 25 24
f 18 24 19
f 24 25 19
f 19 25 26
f 25 23 26
f 4 19 26
f 26 27 4
f 26 21 27
f 27 2 4
f 27 28 2
f 29 28 27
f 28 5 2
f 30 5 28
f 31 5 30
f 30 28 32
f 32 28 33
f 34 30 32
f 31 30 34
f 34 32 35
f 32 33 35
f 34 35 36
f 36 35 37
f 38 34 36
f 39 34 38
f 38 36 40
f 40 36 41
f 42 38 40
f 43 38 42
f 42 40 44
f 44 40 45
f 46 42 44
f 47 42 46
f 46 44 48
f 48 44 49
f 50 46 48
f 51 46 50
f 50 48 52
f 52 48 53
f 54 50 52
f 55 50 54
f 54 52 56
f 56 52 57
f 58 54 56
f 59 54 58
f 58 56 60
f 60 56 61
f 62 58 60
f 63 58 62
f 62 60 64
f 64 60 65
f 66 62 64
f 67 62 66
f 66 64 68
f 64 65 68
f 69 66 68
f 69 67 66
f 68 70 69
f 68 71 70
f 69 70 72
f 70 73 72
f 69 72 74
f 72 75 74
f 74 67 69
f 74 76 67
f 77 76 74
f 76 63 67
f 76 78 63
f 67 63 62
f 79 78 76
f 78 59 63
f 78 80 59
f 63 59 58
f 81 80 78
f 80 55 59
f 80 82 55
f 59 55 54
f 83 82 80
f 82 51 55
f 82 84 51
f 55 51 50
f 85 84 82
f 84 47 51
f 84 86 47
f 51 47 46
f 87 86 84
f 86 43 47
f 86 88 43
f 47 43 42
f 89 88 86
f 88 39 43
f 88 90 39
f 43 39 38
f 91 90 88
f 90 31 39
f 90 92 31
f 39 31 34
f 93 92 90
f 92 94 31
f 92 95 94
f 94 5 31
f 94 96 5
f 94 95 96
f 5 96 3
f 3 96 97
f 97 96 95
f 97 98 3
f 97 99 98
f 98 100 3
f 98 101 100
f 100 102 3
f 100 103 102
f 102 104 3
f 102 105 104
f 104 106 3
f 104 107 106
f 106 108 3
f 106 109 108
f 108 110 3
f 108 111 110
f 110 112 3
f 110 113 112
f 112 7 3
f 112 114 7
f 113 114 112
f 114 9 7
f 114 115 9
f 7 9 6
f 114 116 115
f 9 115 12
f 12 115 116
f 8 9 12
f 12 116 117
f 116 118 117
f 119 12 117
f 11 12 119
f 119 117 120
f 120 117 121
f 120 122 119
f 120 123 122
f 119 122 14
f 124 14 122
f 119 14 11
f 14 124 125
f 122 126 124
f 126 122 123
f 124 126 127
f 126 128 127
f 124 127 129
f 129 127 130
f 125 124 129
f 125 129 131
f 131 129 132
f 16 125 131
f 13 125 16
f 16 131 17
f 131 132 17
f 132 133 17
f 132 130 133
f 133 134 17
f 133 135 134
f 134 136 17
f 134 137 136
f 136 138 17
f 136 139 138
f 138 140 17
f 138 141 140
f 17 140 142
f 142 140 143
f 17 142 144
f 144 142 145
f 146 17 144
f 147 17 146
f 146 144 148
f 148 144 149
f 150 146 148
f 150 151 146
f 152 150 148
f 153 150 152
f 152 148 154
f 148 149 154
f 155 152 154
f 156 152 155
f 155 154 157
f 154 158 157
f 159 155 157
f 160 155 159
f 159 157 161
f 157 162 161
f 163 159 161
f 164 159 163
f 163 161 165
f 161 166 165
f 167 163 165
f 168 163 167
f 167 165 169
f 165 170 169
f 171 167 169
f 172 167 171
f 171 169 173
f 169 174 173
f 175 171 173
f 176 171 175
f 175 173 177
f 173 178 177
f 179 175 177
f 180 175 179
f 179 177 181
f 177 182 181
f 183 179 181
f 184 179 183
f 185 183 181
f 186 183 185
f 185 181 187
f 187 181 188
f 187 189 185
f 190 189 187
f 189 191 185
f 189 192 191
f 185 191 186
f 191 193 186
f 191 194 193
f 186 193 195
f 193 190 195
f 195 196 186
f 195 188 196
f 186 196 183
f 196 197 183
f 198 197 196
f 183 197 199
f 200 199 197
f 183 199 184
f 184 199 201
f 202 201 199
f 184 201 203
f 203 201 204
f 203 180 184
f 203 205 180
f 184 180 179
f 206 205 203
f 205 176 180
f 205 207 176
f 180 176 175
f 208 207 205
f 207 172 176
f 207 209 172
f 176 172 171
f 210 209 207
f 209 168 172
f 209 211 168
f 172 168 167
f 212 211 209
f 211 164 168
f 211 213 164
f 168 164 163
f 214 213 211
f 213 160 164
f 213 215 160
f 164 160 159
f 216 215 213
f 215 156 160
f 215 217 156
f 160 156 155
f 218 217 215
f 217 153 156
f 217 219 153
f 156 153 152
f 220 219 217
f 219 221 153
f 219 222 221
f 153 221 150
f 221 151 150
f 221 223 151
f 222 223 221
f 224 151 223
f 147 151 224
f 224 223 225
f 225 223 226
f 225 227 224
f 225 228 227
f 224 227 29
f 227 33 29
f 224 29 147
f 147 29 27
f 27 229 147
f 21 229 27
f 147 229 230
f 229 231 230
f 147 230 17
f 17 230 232
f 230 233 232
f 17 232 21
f 232 234 21
f 233 234 232
f 234 235 21
f 234 233 235
f 21 235 229
f 235 231 229
f 235 233 231
f 231 233 230
f 227 236 33
f 29 33 28
f 228 236 227
f 37 33 236
f 35 33 37
f 37 236 237
f 237 236 238
f 36 37 237
f 36 237 41
f 41 237 238
f 41 238 239
f 238 240 239
f 41 239 241
f 241 239 242
f 45 41 241
f 40 41 45
f 45 241 243
f 243 241 244
f 49 45 243
f 44 45 49
f 49 243 245
f 245 243 246
f 53 49 245
f 48 49 53
f 53 245 247
f 247 245 248
f 57 53 247
f 52 53 57
f 57 247 249
f 249 247 250
f 61 57 249
f 56 57 61
f 61 249 251
f 251 249 252
f 65 61 251
f 60 61 65
f 65 251 68
f 251 252 68
f 252 253 68
f 252 250 253
f 253 254 68
f 253 255 254
f 254 256 68
f 254 257 256
f 256 258 68
f 256 259 258
f 258 260 68
f 258 261 260
f 260 262 68
f 260 263 262
f 262 264 68
f 265 264 262
f 68 264 71
f 71 264 266
f 267 266 264
f 266 268 71
f 266 269 268
f 268 270 71
f 271 270 268
f 270 272 71
f 270 273 272
f 272 274 71
f 272 275 274
f 274 276 71
f 274 277 276
f 276 278 71
f 276 279 278
f 278 280 71
f 278 281 280
f 280 282 71
f 280 283 282
f 282 284 71
f 282 285 284
f 284 286 71
f 284 287 286
f 286 288 71
f 286 289 288
f 71 288 73
f 288 290 73
f 70 71 73
f 288 291 290
f 72 73 290
f 72 290 75
f 75 290 291
f 75 291 292
f 292 291 293
f 74 75 292
f 74 292 77
f 292 294 77
f 292 293 294
f 77 294 295
f 294 296 295
f 77 295 297
f 295 298 297
f 297 79 77
f 297 299 79
f 77 79 76
f 300 299 297
f 299 81 79
f 299 301 81
f 79 81 78
f 302 301 299
f 301 83 81
f 301 303 83
f 81 83 80
f 304 303 301
f 303 85 83
f 303 305 85
f 83 85 82
f 306 305 303
f 305 87 85
f 305 307 87
f 85 87 84
f 308 307 305
f 307 89 87
f 307 309 89
f 87 89 86
f 310 309 307
f 309 91 89
f 309 311 91
f 89 91 88
f 312 311 309
f 311 313 91
f 311 314 313
f 313 315 91
f 313 316 315
f 91 315 90
f 315 93 90
f 315 317 93
f 315 316 317
f 93 317 318
f 319 318 317
f 93 318 92
f 92 318 95
f 95 318 319
f 97 95 319
f 319 99 97
f 319 320 99
f 321 320 319
f 320 322 99
f 320 323 322
f 99 322 101
f 322 324 101
f 99 101 98
f 322 325 324
f 101 324 103
f 324 326 103
f 101 103 100
f 324 327 326
f 103 326 105
f 326 328 105
f 103 105 102
f 326 329 328
f 105 328 107
f 328 330 107
f 105 107 104
f 328 331 330
f 107 330 109
f 330 332 109
f 107 109 106
f 330 333 332
f 109 332 111
f 332 334 111
f 109 111 108
f 332 335 334
f 111 334 113
f 334 336 113
f 111 113 110
f 334 337 336
f 113 336 114
f 336 116 114
f 336 118 116
f 338 118 336
f 117 118 338
f 336 337 338
f 337 339 338
f 337 340 339
f 338 339 121
f 121 339 340
f 117 338 121
f 121 340 341
f 340 342 341
f 343 121 341
f 120 121 343
f 343 341 344
f 344 341 345
f 344 346 343
f 344 347 346
f 343 346 123
f 348 123 346
f 343 123 120
f 123 348 126
f 346 349 348
f 349 346 347
f 348 349 350
f 349 351 350
f 348 350 128
f 128 350 352
f 126 348 128
f 350 353 352
f 128 352 354
f 354 352 355
f 127 128 354
f 127 354 130
f 130 354 135
f 354 355 135
f 130 135 133
f 135 355 137
f 355 356 137
f 135 137 134
f 355 357 356
f 137 356 139
f 356 358 139
f 137 139 136
f 356 359 358
f 139 358 141
f 141 358 360
f 139 141 138
f 360 358 361
f 143 141 360
f 140 141 143
f 143 360 362
f 362 360 363
f 145 143 362
f 142 143 145
f 145 362 364
f 364 362 365
f 149 145 364
f 144 145 149
f 149 364 158
f 158 364 366
f 154 149 158
f 364 365 366
f 158 366 162
f 162 366 367
f 157 158 162
f 366 368 367
f 162 367 166
f 166 367 369
f 161 162 166
f 367 370 369
f 166 369 170
f 170 369 371
f 165 166 170
f 369 372 371
f 170 371 174
f 174 371 373
f 169 170 174
f 371 374 373
f 174 373 178
f 178 373 375
f 173 174 178
f 373 376 375
f 178 375 182
f 182 375 377
f 177 178 182
f 375 378 377
f 182 377 188
f 377 379 188
f 181 182 188
f 377 380 379
f 188 379 196
f 196 379 381
f 382 381 379
f 196 381 198
f 198 381 383
f 384 383 381
f 198 383 385
f 385 383 386
f 385 387 198
f 385 388 387
f 198 387 197
f 200 197 387
f 389 200 387
f 390 200 389
f 389 387 388
f 391 389 388
f 392 389 391
f 391 388 393
f 394 393 388
f 395 391 393
f 396 391 395
f 395 393 397
f 398 397 393
f 399 395 397
f 400 395 399
f 399 397 401
f 402 401 397
f 403 399 401
f 404 399 403
f 403 401 405
f 406 405 401
f 407 403 405
f 408 403 407
f 407 405 409
f 410 409 405
f 411 407 409
f 412 407 411
f 411 409 413
f 414 413 409
f 415 411 413
f 416 411 415
f 415 413 417
f 418 417 413
f 419 415 417
f 420 415 419
f 417 421 419
f 417 422 421
f 419 421 423
f 424 423 421
f 419 423 425
f 426 425 423
f 427 419 425
f 427 428 419
f 427 425 429
f 429 425 422
f 430 427 429
f 431 427 430
f 430 429 432
f 432 429 433
f 434 430 432
f 431 430 434
f 432 433 434
f 434 433 435
f 433 436 435
f 434 435 431
f 431 435 427
f 435 428 427
f 435 436 428
f 436 437 428
f 438 437 436
f 437 439 428
f 437 440 439
f 428 439 441
f 439 442 441
f 428 441 419
f 419 441 443
f 441 444 443
f 419 443 420
f 420 443 445
f 443 446 445
f 420 445 447
f 447 445 448
f 447 416 420
f 447 449 416
f 420 416 415
f 450 449 447
f 449 412 416
f 449 451 412
f 416 412 411
f 452 451 449
f 451 408 412
f 451 453 408
f 412 408 407
f 454 453 451
f 453 404 408
f 453 455 404
f 408 404 403
f 456 455 453
f 455 400 404
f 455 457 400
f 404 400 399
f 458 457 455
f 457 396 400
f 457 459 396
f 400 396 395
f 460 459 457
f 459 392 396
f 459 461 392
f 396 392 391
f 462 461 459
f 461 390 392
f 461 463 390
f 392 390 389
f 464 463 461
f 463 202 390
f 463 465 202
f 390 202 200
f 202 199 200
f 466 465 463
f 465 201 202
f 204 201 465
f 204 465 467
f 467 465 466
f 468 204 467
f 206 204 468
f 468 467 469
f 469 467 470
f 471 468 469
f 472 468 471
f 471 469 473
f 473 469 474
f 475 471 473
f 476 471 475
f 475 473 477
f 477 473 478
f 479 475 477
f 480 475 479
f 479 477 481
f 481 477 482
f 483 479 481
f 484 479 483
f 483 481 485
f 485 481 486
f 487 483 485
f 488 483 487
f 487 485 489
f 485 486 489
f 489 490 487
f 489 491 490
f 487 490 488
f 490 492 488
f 490 491 492
f 488 492 493
f 492 494 493
f 488 493 484
f 484 493 495
f 483 488 484
f 493 496 495
f 484 495 480
f 480 495 497
f 479 484 480
f 495 498 497
f 480 497 476
f 476 497 499
f 475 480 476
f 497 500 499
f 476 499 472
f 472 499 208
f 471 476 472
f 499 210 208
f 472 208 206
f 206 208 205
f 468 472 206
f 499 500 210
f 208 210 207
f 500 212 210
f 500 501 212
f 210 212 209
f 498 501 500
f 501 214 212
f 501 502 214
f 212 214 211
f 503 502 501
f 502 216 214
f 502 504 216
f 214 216 213
f 505 504 502
f 504 218 216
f 504 506 218
f 216 218 215
f 507 506 504
f 506 220 218
f 506 508 220
f 218 220 217
f 509 508 506
f 508 510 220
f 511 510 508
f 220 510 219
f 510 222 219
f 512 222 510
f 226 222 512
f 512 510 511
f 513 512 511
f 514 512 513
f 513 511 515
f 515 511 516
f 517 513 515
f 518 513 517
f 517 515 519
f 519 515 520
f 521 517 519
f 522 517 521
f 521 519 523
f 523 519 524
f 525 521 523
f 526 521 525
f 525 523 527
f 527 523 528
f 529 525 527
f 530 525 529
f 529 527 491
f 527 528 491
f 531 529 491
f 531 530 529
f 491 532 531
f 491 265 532
f 531 532 533
f 532 534 533
f 533 530 531
f 530 533 535
f 533 536 535
f 535 526 530
f 526 535 537
f 530 526 525
f 535 538 537
f 537 522 526
f 522 537 539
f 526 522 521
f 537 540 539
f 539 518 522
f 518 539 541
f 522 518 517
f 539 542 541
f 541 514 518
f 514 541 543
f 518 514 513
f 541 544 543
f 543 226 514
f 226 543 225
f 514 226 512
f 543 228 225
f 543 544 228
f 544 240 228
f 544 545 240
f 228 240 236
f 238 236 240
f 542 545 544
f 242 240 545
f 239 240 242
f 242 545 546
f 546 545 547
f 241 242 546
f 241 546 244
f 244 546 547
f 244 547 548
f 548 547 549
f 246 244 548
f 243 244 246
f 246 548 550
f 550 548 551
f 248 246 550
f 245 246 248
f 248 550 255
f 255 550 257
f 250 248 255
f 247 248 250
f 250 255 253
f 550 551 257
f 255 257 254
f 257 551 259
f 551 552 259
f 257 259 256
f 551 553 552
f 259 552 554
f 552 555 554
f 259 554 261
f 554 555 261
f 259 261 258
f 261 555 263
f 536 263 555
f 261 263 260
f 534 263 536
f 536 555 538
f 538 555 556
f 535 536 538
f 552 556 555
f 538 556 540
f 540 556 557
f 537 538 540
f 558 557 556
f 540 557 542
f 542 557 545
f 539 540 542
f 547 545 557
f 547 557 549
f 549 557 558
f 548 549 558
f 551 548 558
f 558 553 551
f 558 556 553
f 553 556 552
f 534 262 263
f 533 534 536
f 265 262 534
f 532 265 534
f 541 542 544
f 489 265 491
f 267 265 489
f 267 264 265
f 267 489 559
f 559 489 560
f 559 266 267
f 559 561 266
f 562 561 559
f 561 269 266
f 561 563 269
f 564 563 561
f 271 269 563
f 268 269 271
f 271 563 565
f 563 564 565
f 565 566 271
f 565 567 566
f 271 566 273
f 566 568 273
f 271 273 270
f 566 569 568
f 273 568 275
f 568 570 275
f 273 275 272
f 568 571 570
f 275 570 277
f 570 572 277
f 275 277 274
f 570 573 572
f 277 572 279
f 572 574 279
f 277 279 276
f 572 575 574
f 279 574 281
f 574 576 281
f 279 281 278
f 574 577 576
f 281 576 283
f 576 578 283
f 281 283 280
f 576 579 578
f 283 578 285
f 578 580 285
f 283 285 282
f 578 581 580
f 285 580 287
f 580 582 287
f 285 287 284
f 580 583 582
f 287 582 289
f 582 296 289
f 287 289 286
f 582 584 296
f 289 296 293
f 294 293 296
f 289 293 291
f 289 291 288
f 585 584 582
f 295 296 584
f 295 584 298
f 298 584 585
f 298 585 586
f 586 585 587
f 297 298 586
f 297 586 300
f 300 586 588
f 586 587 588
f 300 588 589
f 589 588 590
f 589 302 300
f 589 591 302
f 300 302 299
f 592 591 589
f 591 304 302
f 591 593 304
f 302 304 301
f 594 593 591
f 593 306 304
f 593 595 306
f 304 306 303
f 596 595 593
f 595 308 306
f 595 597 308
f 306 308 305
f 598 597 595
f 597 310 308
f 597 599 310
f 308 310 307
f 600 599 597
f 599 601 310
f 599 602 601
f 601 603 310
f 601 604 603
f 310 603 309
f 603 312 309
f 603 605 312
f 603 604 605
f 312 605 606
f 607 606 605
f 312 606 311
f 311 606 314
f 314 606 607
f 321 314 607
f 321 316 314
f 607 608 321
f 607 609 608
f 321 608 320
f 608 323 320
f 608 610 323
f 609 610 608
f 610 611 323
f 610 612 611
f 323 611 325
f 611 613 325
f 323 325 322
f 611 614 613
f 325 613 327
f 613 615 327
f 325 327 324
f 613 616 615
f 327 615 329
f 615 617 329
f 327 329 326
f 615 618 617
f 329 617 331
f 617 619 331
f 329 331 328
f 617 620 619
f 331 619 333
f 619 621 333
f 331 333 330
f 619 622 621
f 333 621 335
f 621 623 335
f 333 335 332
f 621 624 623
f 335 623 337
f 623 340 337
f 335 337 334
f 623 342 340
f 624 342 623
f 624 625 342
f 624 626 625
f 341 342 625
f 341 625 345
f 625 626 345
f 345 626 627
f 628 627 626
f 345 627 629
f 627 630 629
f 631 345 629
f 344 345 631
f 631 629 632
f 632 629 633
f 632 634 631
f 632 635 634
f 631 634 347
f 636 347 634
f 631 347 344
f 347 636 349
f 634 637 636
f 635 637 634
f 636 637 638
f 638 637 639
f 636 638 351
f 351 638 640
f 349 636 351
f 640 638 641
f 351 640 353
f 353 640 642
f 350 351 353
f 642 640 643
f 353 642 357
f 357 642 359
f 352 353 357
f 352 357 355
f 359 642 644
f 357 359 356
f 644 642 643
f 361 359 644
f 358 359 361
f 361 644 645
f 645 644 646
f 363 361 645
f 360 361 363
f 363 645 647
f 647 645 648
f 365 363 647
f 362 363 365
f 365 647 368
f 368 647 649
f 366 365 368
f 647 648 649
f 368 649 370
f 370 649 650
f 367 368 370
f 649 651 650
f 370 650 372
f 372 650 652
f 369 370 372
f 650 653 652
f 372 652 374
f 374 652 654
f 371 372 374
f 652 655 654
f 374 654 376
f 376 654 656
f 373 374 376
f 654 657 656
f 376 656 378
f 656 658 378
f 375 376 378
f 656 659 658
f 378 658 380
f 660 380 658
f 378 380 377
f 660 382 380
f 661 660 658
f 662 660 661
f 661 658 659
f 663 661 659
f 664 661 663
f 663 659 665
f 657 665 659
f 666 663 665
f 667 663 666
f 666 665 668
f 669 668 665
f 670 666 668
f 671 666 670
f 670 668 672
f 673 672 668
f 674 670 672
f 675 670 674
f 674 672 676
f 677 676 672
f 678 674 676
f 679 674 678
f 678 676 680
f 681 680 676
f 682 678 680
f 683 678 682
f 682 680 684
f 685 684 680
f 684 686 682
f 687 686 684
f 682 686 688
f 686 689 688
f 682 688 683
f 683 688 690
f 688 691 690
f 683 690 692
f 692 690 693
f 692 679 683
f 692 694 679
f 683 679 678
f 695 694 692
f 694 675 679
f 694 696 675
f 679 675 674
f 697 696 694
f 696 671 675
f 696 698 671
f 675 671 670
f 699 698 696
f 698 667 671
f 698 700 667
f 671 667 666
f 701 700 698
f 700 664 667
f 700 702 664
f 667 664 663
f 703 702 700
f 702 662 664
f 702 704 662
f 664 662 661
f 705 704 702
f 704 706 662
f 704 707 706
f 662 706 660
f 706 382 660
f 706 384 382
f 707 384 706
f 384 381 382
f 707 708 384
f 709 708 707
f 708 383 384
f 386 383 708
f 386 708 710
f 710 708 709
f 711 386 710
f 394 386 711
f 711 710 712
f 712 710 713
f 714 711 712
f 398 711 714
f 714 712 715
f 715 712 716
f 717 714 715
f 402 714 717
f 717 715 718
f 718 715 719
f 720 717 718
f 406 717 720
f 720 718 721
f 721 718 722
f 723 720 721
f 410 720 723
f 723 721 724
f 724 721 725
f 726 723 724
f 414 723 726
f 726 724 436
f 724 725 436
f 436 418 726
f 436 417 418
f 726 418 414
f 418 413 414
f 436 422 417
f 436 429 422
f 433 429 436
f 725 727 436
f 725 722 727
f 727 728 436
f 727 729 728
f 728 730 436
f 728 731 730
f 730 732 436
f 730 733 732
f 732 734 436
f 732 735 734
f 436 734 736
f 736 734 737
f 436 736 438
f 438 736 738
f 736 737 738
f 438 738 739
f 739 738 740
f 739 741 438
f 739 742 741
f 438 741 437
f 741 440 437
f 741 743 440
f 742 743 741
f 744 440 743
f 745 440 744
f 744 743 746
f 746 743 747
f 748 744 746
f 745 744 748
f 748 746 749
f 746 747 749
f 749 750 748
f 749 751 750
f 748 750 752
f 750 753 752
f 748 752 754
f 754 752 755
f 754 745 748
f 754 756 745
f 757 756 754
f 756 440 745
f 756 439 440
f 757 439 756
f 757 442 439
f 757 758 442
f 754 758 757
f 758 759 442
f 758 755 759
f 759 760 442
f 759 761 760
f 760 762 442
f 760 763 762
f 762 764 442
f 762 765 764
f 764 766 442
f 764 767 766
f 766 768 442
f 766 769 768
f 768 770 442
f 768 771 770
f 770 772 442
f 770 773 772
f 772 774 442
f 772 775 774
f 442 774 776
f 774 777 776
f 778 442 776
f 444 442 778
f 778 776 779
f 779 776 777
f 778 779 780
f 780 779 781
f 780 446 778
f 780 782 446
f 778 446 444
f 443 444 446
f 783 782 780
f 445 446 782
f 445 782 448
f 782 784 448
f 783 784 782
f 448 784 785
f 786 785 784
f 448 785 787
f 785 788 787
f 450 448 787
f 447 448 450
f 450 787 789
f 789 787 790
f 789 452 450
f 789 791 452
f 450 452 449
f 792 791 789
f 791 454 452
f 791 793 454
f 452 454 451
f 794 793 791
f 793 456 454
f 793 795 456
f 454 456 453
f 796 795 793
f 795 458 456
f 795 797 458
f 456 458 455
f 798 797 795
f 797 460 458
f 797 799 460
f 458 460 457
f 800 799 797
f 799 462 460
f 799 801 462
f 460 462 459
f 802 801 799
f 801 464 462
f 801 803 464
f 462 464 461
f 804 803 801
f 803 466 464
f 470 466 803
f 464 466 463
f 467 466 470
f 470 803 805
f 805 803 804
f 474 470 805
f 469 470 474
f 474 805 806
f 806 805 807
f 478 474 806
f 473 474 478
f 478 806 808
f 808 806 809
f 482 478 808
f 477 478 482
f 482 808 810
f 810 808 811
f 486 482 810
f 481 482 486
f 486 810 489
f 810 811 489
f 811 812 489
f 811 809 812
f 812 813 489
f 812 814 813
f 813 815 489
f 813 816 815
f 489 815 817
f 817 815 818
f 489 817 560
f 560 817 819
f 817 818 819
f 560 819 820
f 820 819 821
f 562 560 820
f 559 560 562
f 562 820 822
f 822 820 823
f 822 824 562
f 822 825 824
f 562 824 561
f 824 564 561
f 824 826 564
f 827 826 824
f 565 564 826
f 565 826 828
f 826 827 828
f 828 567 565
f 828 829 567
f 830 829 828
f 829 831 567
f 829 832 831
f 567 831 569
f 831 833 569
f 567 569 566
f 831 834 833
f 569 833 571
f 833 835 571
f 569 571 568
f 833 836 835
f 571 835 573
f 835 837 573
f 571 573 570
f 835 838 837
f 573 837 575
f 837 839 575
f 573 575 572
f 837 840 839
f 575 839 577
f 839 841 577
f 575 577 574
f 839 842 841
f 577 841 579
f 841 843 579
f 577 579 576
f 841 844 843
f 579 843 581
f 843 845 581
f 579 581 578
f 843 846 845
f 581 845 583
f 845 847 583
f 581 583 580
f 845 848 847
f 583 847 587
f 588 587 847
f 583 587 585
f 582 583 585
f 588 847 590
f 590 847 848
f 590 848 849
f 849 848 850
f 590 849 589
f 589 849 851
f 849 850 851
f 589 851 592
f 851 852 592
f 851 853 852
f 592 852 854
f 852 855 854
f 592 854 856
f 854 857 856
f 856 594 592
f 856 858 594
f 592 594 591
f 859 858 856
f 858 596 594
f 858 860 596
f 594 596 593
f 861 860 858
f 860 598 596
f 860 862 598
f 596 598 595
f 863 862 860
f 862 864 598
f 862 865 864
f 864 866 598
f 864 867 866
f 598 866 597
f 866 600 597
f 866 868 600
f 866 867 868
f 600 868 869
f 870 869 868
f 600 869 599
f 599 869 602
f 602 869 870
f 870 604 602
f 871 604 870
f 601 602 604
f 871 605 604
f 870 872 871
f 870 873 872
f 871 872 609
f 872 874 609
f 871 609 607
f 607 605 871
f 872 875 874
f 609 874 610
f 874 612 610
f 874 876 612
f 875 876 874
f 876 877 612
f 876 878 877
f 612 877 614
f 877 879 614
f 612 614 611
f 877 880 879
f 614 879 616
f 879 881 616
f 614 616 613
f 879 882 881
f 616 881 618
f 881 883 618
f 616 618 615
f 881 884 883
f 618 883 620
f 883 885 620
f 618 620 617
f 883 886 885
f 620 885 622
f 885 628 622
f 620 622 619
f 885 887 628
f 622 628 624
f 628 626 624
f 622 624 621
f 886 887 885
f 887 630 628
f 887 888 630
f 628 630 627
f 887 889 888
f 629 630 888
f 629 888 633
f 888 889 633
f 633 889 890
f 891 890 889
f 633 890 892
f 892 890 893
f 894 633 892
f 632 633 894
f 894 892 895
f 895 892 896
f 895 687 894
f 895 686 687
f 894 687 635
f 687 897 635
f 894 635 632
f 687 685 897
f 635 897 637
f 639 637 897
f 639 897 898
f 898 897 685
f 899 639 898
f 641 639 899
f 899 898 900
f 900 898 681
f 901 899 900
f 902 899 901
f 901 900 903
f 903 900 677
f 904 901 903
f 905 901 904
f 904 903 906
f 906 903 673
f 653 904 906
f 651 904 653
f 653 906 655
f 655 906 669
f 652 653 655
f 906 673 669
f 655 669 657
f 669 665 657
f 654 655 657
f 673 668 669
f 651 905 904
f 650 651 653
f 648 905 651
f 648 646 905
f 649 648 651
f 645 646 648
f 646 902 905
f 646 643 902
f 905 902 901
f 644 643 646
f 643 641 902
f 643 640 641
f 902 641 899
f 903 677 673
f 677 672 673
f 900 681 677
f 681 676 677
f 898 685 681
f 685 680 681
f 641 638 639
f 687 684 685
f 895 896 686
f 686 896 689
f 689 896 907
f 907 896 908
f 909 689 907
f 909 691 689
f 910 909 907
f 911 909 910
f 907 908 910
f 910 908 912
f 912 908 913
f 910 912 914
f 914 912 915
f 910 914 911
f 911 914 916
f 914 917 916
f 911 916 918
f 918 916 919
f 918 920 911
f 918 921 920
f 911 920 909
f 920 691 909
f 920 922 691
f 921 922 920
f 690 691 922
f 690 922 693
f 693 922 923
f 924 923 922
f 693 923 925
f 925 923 926
f 695 693 925
f 692 693 695
f 695 925 927
f 927 925 928
f 927 697 695
f 927 929 697
f 695 697 694
f 930 929 927
f 929 699 697
f 929 931 699
f 697 699 696
f 932 931 929
f 931 701 699
f 931 933 701
f 699 701 698
f 934 933 931
f 933 703 701
f 933 935 703
f 701 703 700
f 936 935 933
f 935 705 703
f 935 937 705
f 703 705 702
f 938 937 935
f 937 939 705
f 937 940 939
f 705 939 704
f 939 707 704
f 939 709 707
f 940 709 939
f 713 709 940
f 710 709 713
f 713 940 941
f 941 940 942
f 716 713 941
f 712 713 716
f 716 941 943
f 943 941 944
f 719 716 943
f 715 716 719
f 719 943 729
f 729 943 731
f 722 719 729
f 718 719 722
f 722 729 727
f 943 944 731
f 729 731 728
f 731 944 733
f 944 945 733
f 731 733 730
f 944 942 945
f 733 945 735
f 735 945 946
f 733 735 732
f 946 945 938
f 737 735 946
f 734 735 737
f 737 946 947
f 947 946 936
f 738 737 947
f 738 947 740
f 740 947 934
f 947 936 934
f 740 934 932
f 932 934 931
f 948 740 932
f 739 740 948
f 948 932 930
f 930 932 929
f 930 949 948
f 930 928 949
f 948 949 742
f 949 950 742
f 948 742 739
f 949 951 950
f 742 950 743
f 747 743 950
f 747 950 952
f 952 950 953
f 749 747 952
f 749 952 954
f 954 952 953
f 954 751 749
f 954 955 751
f 956 955 954
f 955 957 751
f 955 958 957
f 751 957 959
f 957 960 959
f 751 959 750
f 750 959 753
f 959 961 753
f 959 960 961
f 753 961 962
f 961 963 962
f 753 962 964
f 964 962 965
f 752 753 964
f 752 964 755
f 755 964 761
f 964 965 761
f 755 761 759
f 761 965 763
f 965 966 763
f 761 763 760
f 965 967 966
f 763 966 765
f 966 968 765
f 763 765 762
f 966 969 968
f 765 968 767
f 968 970 767
f 765 767 764
f 968 971 970
f 767 970 769
f 970 972 769
f 767 769 766
f 970 973 972
f 769 972 771
f 972 974 771
f 769 771 768
f 972 975 974
f 771 974 773
f 974 976 773
f 771 773 770
f 974 977 976
f 773 976 775
f 976 978 775
f 773 775 772
f 976 979 978
f 775 978 980
f 981 980 978
f 775 980 982
f 983 982 980
f 775 982 774
f 774 982 777
f 984 777 982
f 779 777 984
f 984 982 983
f 984 983 781
f 781 983 985
f 779 984 781
f 983 981 985
f 781 985 986
f 986 985 987
f 783 781 986
f 780 781 783
f 783 986 786
f 786 986 988
f 786 784 783
f 986 987 988
f 786 988 989
f 989 988 990
f 989 788 786
f 989 991 788
f 788 785 786
f 992 991 989
f 787 788 991
f 787 991 790
f 991 992 790
f 790 992 993
f 994 993 992
f 790 993 995
f 993 996 995
f 792 790 995
f 789 790 792
f 792 995 997
f 997 995 825
f 997 794 792
f 997 823 794
f 792 794 791
f 822 823 997
f 823 796 794
f 823 821 796
f 794 796 793
f 820 821 823
f 821 798 796
f 821 998 798
f 796 798 795
f 819 998 821
f 998 800 798
f 998 999 800
f 798 800 797
f 818 999 998
f 999 802 800
f 999 1000 802
f 800 802 799
f 816 1000 999
f 1000 804 802
f 807 804 1000
f 802 804 801
f 805 804 807
f 807 1000 814
f 814 1000 816
f 809 807 814
f 806 807 809
f 809 814 812
f 814 816 813
f 818 816 999
f 815 816 818
f 819 818 998
f 997 825 822
f 995 1001 825
f 995 996 1001
f 1001 1002 825
f 830 1002 1001
f 825 1002 827
f 828 827 1002
f 825 827 824
f 828 1002 830
f 830 1001 994
f 994 1001 996
f 994 1003 830
f 994 990 1003
f 830 1003 829
f 1003 832 829
f 1003 1004 832
f 990 1004 1003
f 1004 1005 832
f 1004 1006 1005
f 832 1005 834
f 1005 1007 834
f 832 834 831
f 1005 1008 1007
f 834 1007 836
f 1007 1009 836
f 834 836 833
f 1007 1010 1009
f 836 1009 838
f 1009 1011 838
f 836 838 835
f 1009 1012 1011
f 838 1011 840
f 1011 1013 840
f 838 840 837
f 1011 1014 1013
f 840 1013 842
f 1013 1015 842
f 840 842 839
f 1013 1016 1015
f 842 1015 844
f 1015 1017 844
f 842 844 841
f 1015 1018 1017
f 844 1017 846
f 1017 853 846
f 844 846 843
f 1017 855 853
f 846 853 850
f 851 850 853
f 846 850 848
f 846 848 845
f 1017 1019 855
f 852 853 855
f 1018 1019 1017
f 854 855 1019
f 854 1019 857
f 857 1019 1020
f 1018 1020 1019
f 857 1020 1021
f 1021 1020 1022
f 856 857 1021
f 856 1021 859
f 1021 1023 859
f 1021 1022 1023
f 859 1023 1024
f 1023 1025 1024
f 859 1024 1026
f 1026 1024 1027
f 1026 861 859
f 1026 1028 861
f 859 861 858
f 1029 1028 1026
f 1028 1030 861
f 1028 1031 1030
f 1030 1032 861
f 1030 1033 1032
f 861 1032 860
f 1032 863 860
f 1032 1034 863
f 1032 1033 1034
f 863 1034 1035
f 1036 1035 1034
f 863 1035 862
f 862 1035 865
f 865 1035 1036
f 1037 865 1036
f 1037 867 865
f 1036 1038 1037
f 1036 1039 1038
f 1037 1038 873
f 1038 1040 873
f 1037 873 870
f 870 868 1037
f 868 867 1037
f 1038 1041 1040
f 873 1040 875
f 1040 1042 875
f 873 875 872
f 1040 1043 1042
f 875 1042 876
f 1042 878 876
f 1042 1044 878
f 1043 1044 1042
f 1044 1045 878
f 1044 1046 1045
f 878 1045 880
f 1045 1047 880
f 878 880 877
f 1045 1048 1047
f 880 1047 882
f 1047 1049 882
f 880 882 879
f 1047 1050 1049
f 882 1049 884
f 1049 1051 884
f 882 884 881
f 1049 1052 1051
f 884 1051 886
f 1051 891 886
f 884 886 883
f 1051 913 891
f 886 891 887
f 891 889 887
f 1052 913 1051
f 913 893 891
f 913 908 893
f 891 893 890
f 892 893 908
f 908 896 892
f 1052 915 913
f 1053 915 1052
f 915 912 913
f 917 915 1053
f 1054 1053 1052
f 1055 1053 1054
f 1050 1054 1052
f 1056 1054 1050
f 1050 1052 1049
f 1057 1054 1056
f 1058 1056 1050
f 1059 1056 1058
f 1048 1058 1050
f 1060 1058 1048
f 1048 1050 1047
f 1061 1058 1060
f 1062 1060 1048
f 1063 1060 1062
f 1046 1062 1048
f 1064 1062 1046
f 1046 1048 1045
f 1065 1062 1064
f 1066 1064 1046
f 1067 1064 1066
f 1068 1066 1046
f 1069 1066 1068
f 1068 1046 1044
f 1043 1068 1044
f 1070 1068 1043
f 1070 1071 1068
f 1041 1070 1043
f 1072 1070 1041
f 1041 1043 1040
f 1072 1073 1070
f 1039 1072 1041
f 1074 1072 1039
f 1039 1041 1038
f 1074 1075 1072
f 1076 1074 1039
f 1077 1074 1076
f 1076 1039 1036
f 1036 1034 1076
f 1034 1033 1076
f 1076 1033 1031
f 1030 1031 1033
f 1076 1031 1077
f 1077 1031 1078
f 1028 1078 1031
f 1077 1078 1079
f 1079 1078 1080
f 1079 1081 1077
f 1082 1081 1079
f 1077 1081 1074
f 1081 1083 1074
f 1084 1083 1081
f 1083 1075 1074
f 1085 1075 1083
f 1086 1075 1085
f 1085 1083 1084
f 1085 1084 1087
f 1087 1084 1088
f 1086 1085 1087
f 1089 1086 1087
f 1090 1086 1089
f 1089 1087 1091
f 1091 1087 1092
f 1093 1089 1091
f 1094 1089 1093
f 1093 1091 1095
f 1095 1091 1096
f 1097 1093 1095
f 1098 1093 1097
f 1097 1095 1099
f 1099 1095 1100
f 1101 1097 1099
f 1102 1097 1101
f 1101 1099 1103
f 1103 1099 1104
f 960 1101 1103
f 1105 1101 960
f 960 1103 961
f 961 1103 963
f 1103 1104 963
f 963 1104 1106
f 1104 1107 1106
f 963 1106 967
f 967 1106 969
f 962 963 967
f 962 967 965
f 1106 1108 969
f 967 969 966
f 1106 1107 1108
f 969 1108 971
f 1108 1109 971
f 969 971 968
f 1108 1110 1109
f 971 1109 973
f 1109 1111 973
f 971 973 970
f 1109 1112 1111
f 973 1111 975
f 1111 1113 975
f 973 975 972
f 1111 1114 1113
f 975 1113 977
f 1113 1115 977
f 975 977 974
f 1113 1116 1115
f 977 1115 1117
f 1118 1117 1115
f 977 1117 1119
f 1120 1119 1117
f 976 977 1119
f 1119 979 976
f 1121 979 1119
f 1122 979 1121
f 1121 1119 1120
f 1121 1120 1123
f 1123 1120 1124
f 1122 1121 1123
f 985 1122 1123
f 981 1122 985
f 985 1123 987
f 987 1123 1125
f 1123 1124 1125
f 987 1125 1126
f 1126 1125 1006
f 988 987 1126
f 988 1126 990
f 990 1126 1004
f 1126 1006 1004
f 1125 1127 1006
f 1125 1124 1127
f 1006 1127 1008
f 1127 1128 1008
f 1006 1008 1005
f 1127 1129 1128
f 1008 1128 1010
f 1128 1130 1010
f 1008 1010 1007
f 1128 1131 1130
f 1010 1130 1012
f 1130 1132 1012
f 1010 1012 1009
f 1130 1133 1132
f 1012 1132 1014
f 1132 1134 1014
f 1012 1014 1011
f 1132 1135 1134
f 1014 1134 1016
f 1134 1136 1016
f 1014 1016 1013
f 1134 1137 1136
f 1016 1136 1018
f 1136 1022 1018
f 1016 1018 1015
f 1136 1025 1022
f 1018 1022 1020
f 1136 1138 1025
f 1023 1022 1025
f 1137 1138 1136
f 1024 1025 1138
f 1024 1138 1027
f 1027 1138 1139
f 1137 1139 1138
f 1027 1139 192
f 192 1139 194
f 1029 1027 192
f 1026 1027 1029
f 192 1080 1029
f 189 1080 192
f 1029 1080 1078
f 1029 1078 1028
f 190 1080 189
f 190 1140 1080
f 193 1140 190
f 1140 1079 1080
f 1082 1079 1140
f 1082 1140 1088
f 1088 1140 1141
f 1084 1082 1088
f 1084 1081 1082
f 194 1141 1140
f 1088 1141 1142
f 1143 1142 1141
f 1088 1142 1144
f 1144 1142 1145
f 1092 1088 1144
f 1087 1088 1092
f 1092 1144 1146
f 1146 1144 1147
f 1096 1092 1146
f 1091 1092 1096
f 1096 1146 1148
f 1148 1146 1149
f 1100 1096 1148
f 1095 1096 1100
f 1100 1148 1107
f 1107 1148 1110
f 1104 1100 1107
f 1099 1100 1104
f 1148 1149 1110
f 1107 1110 1108
f 1110 1149 1112
f 1149 1150 1112
f 1110 1112 1109
f 1149 1147 1150
f 1112 1150 1114
f 1150 1151 1114
f 1112 1114 1111
f 1150 1152 1151
f 1114 1151 1153
f 1154 1153 1151
f 1114 1153 1116
f 1155 1116 1153
f 1114 1116 1113
f 1156 1116 1155
f 1155 1153 1154
f 1155 1154 1129
f 1129 1154 1131
f 1156 1155 1129
f 1124 1156 1129
f 1118 1156 1124
f 1124 1129 1127
f 1118 1115 1156
f 1120 1118 1124
f 1120 1117 1118
f 1156 1115 1116
f 1154 1157 1131
f 1129 1131 1128
f 1154 1151 1157
f 1157 1158 1131
f 1157 1152 1158
f 1131 1158 1133
f 1158 1159 1133
f 1131 1133 1130
f 1158 1160 1159
f 1159 1161 1133
f 1159 1162 1161
f 1133 1161 1135
f 1161 1163 1135
f 1133 1135 1132
f 1161 1164 1163
f 1163 1165 1135
f 1163 1145 1165
f 1135 1165 1137
f 1165 1143 1137
f 1135 1137 1134
f 1165 1142 1143
f 1143 194 1137
f 1143 1141 194
f 1137 194 1139
f 1165 1145 1142
f 1163 1164 1145
f 1144 1145 1164
f 1144 1164 1147
f 1147 1164 1162
f 1161 1162 1164
f 1147 1162 1160
f 1159 1160 1162
f 1147 1160 1150
f 1150 1160 1152
f 1158 1152 1160
f 1157 1151 1152
f 1146 1147 1149
f 193 194 1140
f 191 192 194
f 981 978 1122
f 1122 978 979
f 1105 1102 1101
f 957 1105 960
f 958 1105 957
f 958 1166 1105
f 1167 1166 958
f 1166 1102 1105
f 1166 1168 1102
f 1169 1168 1166
f 1168 1098 1102
f 1168 1170 1098
f 1102 1098 1097
f 1171 1170 1168
f 1170 1094 1098
f 1170 1172 1094
f 1098 1094 1093
f 1173 1172 1170
f 1172 1174 1094
f 1172 1071 1174
f 1174 1175 1094
f 1174 1176 1175
f 1094 1175 1089
f 1175 1090 1089
f 1175 1073 1090
f 1175 1176 1073
f 1090 1073 1177
f 1177 1073 1072
f 1090 1177 1086
f 1086 1177 1075
f 1075 1177 1072
f 1073 1176 1070
f 1176 1071 1070
f 1174 1071 1176
f 1172 1069 1071
f 1173 1069 1172
f 1071 1069 1068
f 1173 1066 1069
f 1067 1066 1173
f 1067 1173 1170
f 1171 1067 1170
f 1065 1067 1171
f 1065 1064 1067
f 1063 1065 1171
f 1063 1062 1065
f 1178 1063 1171
f 1061 1063 1178
f 1178 1171 1169
f 1169 1171 1168
f 1179 1178 1169
f 1180 1178 1179
f 1179 1169 1167
f 1167 1169 1166
f 1181 1179 1167
f 919 1179 1181
f 1181 1167 1182
f 1182 1167 958
f 1183 1181 1182
f 1184 1181 1183
f 1183 1182 956
f 956 1182 955
f 956 1185 1183
f 956 1186 1185
f 1185 1187 1183
f 1185 926 1187
f 1183 1187 1188
f 1187 923 1188
f 1183 1188 1184
f 1188 924 1184
f 1188 923 924
f 1184 924 921
f 924 922 921
f 1184 921 918
f 918 919 1184
f 1184 919 1181
f 1187 926 923
f 1186 926 1185
f 1186 951 926
f 1189 951 1186
f 928 926 951
f 925 926 928
f 928 951 949
f 953 951 1189
f 1189 1186 956
f 956 953 1189
f 954 953 956
f 953 950 951
f 1182 958 955
f 919 1180 1179
f 916 1180 919
f 916 1055 1180
f 917 1055 916
f 1055 1057 1180
f 1055 1054 1057
f 1057 1059 1180
f 1057 1056 1059
f 1180 1059 1178
f 1059 1061 1178
f 1059 1058 1061
f 917 1053 1055
f 1061 1060 1063
f 914 915 917
f 864 865 867
f 989 990 994
f 994 992 989
f 996 993 994
f 983 980 981
f 927 928 930
f 934 936 933
f 946 938 936
f 936 938 935
f 945 942 938
f 938 942 937
f 942 940 937
f 941 942 944
f 688 689 691
f 808 809 811
f 442 444 441
f 754 755 758
f 721 722 725
f 723 414 410
f 414 409 410
f 720 410 406
f 410 405 406
f 717 406 402
f 406 401 402
f 714 402 398
f 402 397 398
f 711 398 394
f 398 393 394
f 386 394 385
f 394 388 385
f 657 659 656
f 382 379 380
f 317 316 321
f 313 314 316
f 319 317 321
f 528 1190 491
f 528 524 1190
f 1190 1191 491
f 1190 1192 1191
f 1191 1193 491
f 1191 1194 1193
f 1193 1195 491
f 1193 1196 1195
f 491 1195 1197
f 1197 1195 1198
f 491 1197 492
f 492 1197 494
f 1197 1198 494
f 494 1198 1199
f 1198 1200 1199
f 494 1199 496
f 496 1199 503
f 493 494 496
f 1199 505 503
f 496 503 498
f 498 503 501
f 495 496 498
f 1199 1200 505
f 503 505 502
f 1200 507 505
f 1200 1201 507
f 505 507 504
f 1196 1201 1200
f 1201 509 507
f 1202 509 1201
f 507 509 506
f 516 509 1202
f 1202 1201 1194
f 1194 1201 1196
f 1192 1202 1194
f 520 1202 1192
f 1192 1194 1191
f 520 516 1202
f 524 520 1192
f 519 520 524
f 524 1192 1190
f 515 516 520
f 1194 1196 1193
f 516 508 509
f 511 508 516
f 1198 1196 1200
f 1195 1196 1198
f 523 524 528
f 226 223 222
f 497 498 500
f 204 206 203
f 1203 422 425
f 1204 422 1203
f 1203 425 426
f 424 1203 426
f 1204 1203 424
f 426 423 424
f 424 421 1204
f 1204 421 422
f 249 250 252
f 147 146 151
f 187 188 195
f 195 190 187
f 129 130 132
f 125 13 14
f 20 21 26
f 26 23 20
f 23 25 22
