# Momo 3D Model - Front Shell (Face & OLED)
v -17.8000 -2.5391 -5.0000
v -17.8000 2.5391 -5.0000
v -15.8000 -2.5391 -5.0000
v -17.8000 -15.0000 -2.0000
v -15.8000 2.5391 -5.0000
v -15.8000 -2.6964 -8.0000
v -13.8000 -2.6964 -8.0000
v -18.8000 -2.6177 -6.5000
v -15.8000 -6.6964 -8.0000
v -18.8000 -2.5391 -5.0000
v -18.8000 -6.7750 -6.5000
v -17.8000 -6.8536 -5.0000
v -18.8000 -6.8536 -5.0000
v -17.8000 -15.0000 -5.0000
v -15.8000 -6.8536 -5.0000
v -17.7655 -15.4380 -5.0000
v -17.7655 -15.4380 -2.0000
v -15.8000 -15.0000 -5.0000
v -15.7902 -15.1251 -5.0000
v -15.8000 -15.0000 0.0000
v -15.8000 -7.1156 0.0000
v -15.7902 -15.1251 0.0000
v -18.0000 -15.0000 0.0000
v -15.7608 -15.2472 -5.0000
v -15.7608 -15.2472 0.0000
v -17.6630 -15.8652 -5.0000
v -17.4948 -16.2712 -5.0000
v -17.6630 -15.8652 -2.0000
v -19.7553 -16.5451 -2.0000
v -19.4550 -17.2700 -2.0000
v -19.9384 -15.7822 -2.0000
v -19.7975 -16.4087 3.0000
v -20.0000 -15.0000 -2.0000
v -20.0000 -15.0000 3.0000
v -17.8000 15.0000 -2.0000
v -20.0000 15.0000 -2.0000
v -17.8000 6.8536 -5.0000
v -17.8000 15.0000 -5.0000
v -18.8000 6.8536 -5.0000
v -18.8000 6.7750 -6.5000
v -18.8000 2.5391 -5.0000
v -18.8000 2.6177 -6.5000
v -15.8000 2.6964 -8.0000
v -13.8000 2.6964 -8.0000
v -13.8000 6.6964 -8.0000
v -15.8000 2.2771 0.0000
v -13.8000 1.9626 6.0000
v -15.8000 -2.2771 0.0000
v -18.0000 15.0000 0.0000
v -15.8000 7.1156 0.0000
v -18.0000 15.0000 3.0000
v -15.8000 -7.4244 5.8914
v -15.4693 -7.4281 5.9631
v -15.8000 -1.9683 5.8914
v -15.9271 -15.0000 5.8532
v -15.4693 -1.9646 5.9631
v -15.8000 1.9683 5.8914
v -15.0000 -1.9626 6.0000
v -15.0000 1.9626 6.0000
v -13.8000 -1.9626 6.0000
v -13.8000 -6.6964 -8.0000
v -13.8000 -7.4301 6.0000
v -15.0000 -7.4301 6.0000
v -15.0000 -15.0000 6.0000
v -15.4693 -15.0000 5.9631
v -15.4635 -15.0734 5.9631
v -15.4463 -15.1450 5.9631
v -15.9156 -15.1450 5.8532
v -15.8817 -15.2865 5.8532
v -16.3452 -15.2131 5.6730
v -16.2953 -15.4209 5.6730
v -16.3620 -15.0000 5.6730
v -16.7416 -15.2759 5.4270
v -16.3620 15.0000 5.6730
v -16.7634 15.0000 5.4270
v -15.9271 15.0000 5.8532
v -15.9156 15.1450 5.8532
v -15.8000 7.4244 5.8914
v -15.4693 7.4281 5.9631
v -15.0000 7.4301 6.0000
v -15.0000 15.0000 6.0000
v -13.8000 7.4301 6.0000
v -15.8000 6.8536 -5.0000
v -15.8000 15.0000 -5.0000
v -15.8000 6.6964 -8.0000
v -15.7902 15.1251 -5.0000
v -17.7655 15.4380 -5.0000
v -15.7902 15.1251 0.0000
v -15.7608 15.2472 0.0000
v -15.8000 15.0000 0.0000
v -17.9631 15.4693 0.0000
v -17.9631 15.4693 3.0000
v -17.8532 15.9271 3.0000
v -17.8532 15.9271 0.0000
v -17.8180 15.9156 3.4693
v -17.9266 15.4635 3.4693
v -17.6401 16.3452 3.4693
v -17.5422 16.2953 3.9271
v -17.6730 16.3620 3.0000
v -17.3972 16.7416 3.4693
v -17.3083 16.6771 3.9271
v -17.4271 16.7634 3.0000
v -17.6730 16.3620 0.0000
v -17.0952 17.0952 3.4693
v -17.0175 17.0175 3.9271
v -17.1213 17.1213 3.0000
v -17.4271 16.7634 0.0000
v -16.7416 17.3972 3.4693
v -16.6771 17.3083 3.9271
v -16.7634 17.4271 3.0000
v -17.1213 17.1213 0.0000
v -16.3452 17.6401 3.4693
v -16.2953 17.5422 3.9271
v -16.3620 17.6730 3.0000
v -16.7634 17.4271 0.0000
v -15.9156 17.8180 3.4693
v -15.8817 17.7135 3.9271
v -15.9271 17.8532 3.0000
v -16.3620 17.6730 0.0000
v -15.4635 17.9266 3.4693
v -15.4463 17.8180 3.9271
v -15.4693 17.9631 3.0000
v -15.9271 17.8532 0.0000
v -15.0000 17.9631 3.4693
v -15.0000 17.8532 3.9271
v -15.0000 18.0000 3.0000
v -15.4693 17.9631 0.0000
v 15.0000 18.0000 3.0000
v -15.0000 18.0000 0.0000
v 15.0000 17.9631 3.4693
v 15.4635 17.9266 3.4693
v 15.0000 17.8532 3.9271
v 15.4463 17.8180 3.9271
v -15.0000 17.6730 4.3620
v 15.0000 17.6730 4.3620
v -15.4182 17.6401 4.3620
v -15.0000 17.4271 4.7634
v -15.8260 17.5422 4.3620
v -15.3797 17.3972 4.7634
v -16.2135 17.3817 4.3620
v -15.7500 17.3083 4.7634
v -16.5712 17.1625 4.3620
v -16.1019 17.1625 4.7634
v -16.8901 16.8901 4.3620
v -16.4266 16.9635 4.7634
v -17.1625 16.5712 4.3620
v -16.7162 16.7162 4.7634
v -17.3817 16.2135 4.3620
v -16.9635 16.4266 4.7634
v -17.7135 15.8817 3.9271
v -17.5422 15.8260 4.3620
v -17.8180 15.4463 3.9271
v -17.9631 15.0000 3.4693
v -17.8532 15.0000 3.9271
v -17.6401 15.4182 4.3620
v -17.8532 -15.0000 3.9271
v -17.9631 -15.0000 3.4693
v -17.6730 -15.0000 4.3620
v -17.6730 15.0000 4.3620
v -17.8180 -15.4463 3.9271
v -17.6401 -15.4182 4.3620
v -17.9266 -15.4635 3.4693
v -17.8180 -15.9156 3.4693
v -17.9631 -15.4693 3.0000
v -17.8532 -15.9271 3.0000
v -18.0000 -15.0000 3.0000
v -17.9631 -15.4693 0.0000
v -17.8532 -15.9271 0.0000
v -15.7128 -15.3632 0.0000
v -17.6730 -16.3620 0.0000
v -17.6730 -16.3620 3.0000
v -15.6472 -15.4702 0.0000
v -17.4271 -16.7634 0.0000
v -15.6472 -15.4702 -5.0000
v -15.7128 -15.3632 -5.0000
v -15.5657 -15.5657 -5.0000
v -15.5657 -15.5657 0.0000
v -16.9799 -16.9799 -5.0000
v -16.6458 -17.2652 -5.0000
v -17.2652 -16.6458 -5.0000
v -17.2652 -16.6458 -2.0000
v -17.4948 -16.2712 -2.0000
v -19.0451 -17.9389 -2.0000
v -19.2063 -17.7032 3.0000
v -19.4550 -17.2700 3.0000
v -19.0451 -17.9389 3.0000
v -18.7787 -18.2743 3.0000
v -19.1635 -17.6757 3.7116
v -18.7403 -18.2410 3.7116
v -19.5019 -17.0559 3.7116
v -19.5482 -17.0771 3.0000
v -19.3639 -16.9929 4.4087
v -19.0359 -17.5937 4.4087
v -19.6031 -16.3516 4.4087
v -19.3639 -16.2814 5.0771
v -19.7486 -16.3943 3.7116
v -19.7486 -15.6828 4.4087
v -19.7553 -16.5451 3.0000
v -19.8987 -15.7043 3.7116
v -19.9491 -15.7116 3.0000
v -19.9491 -15.0000 3.7116
v -19.9491 15.0000 3.7116
v -19.9384 15.0000 3.7822
v -20.0000 15.0000 3.0000
v -19.8987 15.7043 3.7116
v -19.9491 15.7116 3.0000
v -19.9384 15.7822 -2.0000
v -19.7486 16.3943 3.7116
v -19.7975 16.4087 3.0000
v -19.6031 16.3516 4.4087
v -19.7486 15.6828 4.4087
v -19.3639 16.9929 4.4087
v -19.5019 17.0559 3.7116
v -19.1372 16.8894 5.0771
v -19.3639 16.2814 5.0771
v -18.8262 17.4589 5.0771
v -19.0359 17.5937 4.4087
v -18.5385 17.2741 5.7032
v -18.8262 16.7473 5.7032
v -18.1789 17.7545 5.7032
v -18.4373 17.9784 5.0771
v -17.8558 17.4746 6.2743
v -18.1789 17.0429 6.2743
v -17.4746 17.8558 6.2743
v -17.7545 18.1789 5.7032
v -17.1442 17.4746 6.7787
v -17.4746 17.1442 6.7787
v -16.7702 17.7545 6.7787
v -17.0429 18.1789 6.2743
v -16.4615 17.2741 7.2063
v -16.7702 17.0429 7.2063
v -16.1230 17.4589 7.2063
v -16.3602 17.9784 6.7787
v -15.8628 16.8894 7.5482
v -16.1230 16.7473 7.5482
v -15.5852 16.9929 7.5482
v -15.3969 16.3516 7.7975
v -15.7616 17.5937 7.2063
v -15.2956 17.0559 7.5482
v -15.9225 18.1417 6.7787
v -15.3847 17.6757 7.2063
v -16.5697 18.4373 6.2743
v -16.0646 18.6257 6.2743
v -17.2741 18.5385 5.7032
v -16.7473 18.8262 5.7032
v -17.9784 18.4373 5.0771
v -17.4589 18.8262 5.0771
v -18.6257 18.1417 4.4087
v -18.1417 18.6257 4.4087
v -19.1635 17.6757 3.7116
v -18.7403 18.2410 3.7116
v -19.4550 17.2700 3.0000
v -19.2063 17.7032 3.0000
v -19.5482 17.0771 3.0000
v -19.4550 17.2700 -2.0000
v -19.7553 16.5451 3.0000
v -19.7553 16.5451 -2.0000
v -17.6630 15.8652 -2.0000
v -17.7655 15.4380 -2.0000
v -17.4948 16.2712 -2.0000
v -17.6630 15.8652 -5.0000
v -17.4948 16.2712 -5.0000
v -17.2652 16.6458 -2.0000
v -15.7128 15.3632 -5.0000
v -15.7608 15.2472 -5.0000
v -15.6472 15.4702 -5.0000
v -17.2652 16.6458 -5.0000
v -15.6472 15.4702 0.0000
v -15.5657 15.5657 0.0000
v -15.7128 15.3632 0.0000
v -15.4702 15.6472 0.0000
v -15.5657 15.5657 -5.0000
v -15.3632 15.7128 0.0000
v -15.4702 15.6472 -5.0000
v -15.2472 15.7608 0.0000
v -15.3632 15.7128 -5.0000
v -15.1251 15.7901 0.0000
v -15.2472 15.7608 -5.0000
v -15.0000 15.8000 0.0000
v -15.1251 15.7901 -5.0000
v 15.0000 18.0000 0.0000
v 15.0000 15.8000 0.0000
v 15.4693 17.9631 3.0000
v 15.4693 17.9631 0.0000
v 15.9156 17.8180 3.4693
v 15.8817 17.7135 3.9271
v 15.9271 17.8532 3.0000
v 16.3452 17.6401 3.4693
v 16.2953 17.5422 3.9271
v 16.3620 17.6730 3.0000
v 15.9271 17.8532 0.0000
v 16.7416 17.3972 3.4693
v 16.6771 17.3083 3.9271
v 16.7634 17.4271 3.0000
v 16.3620 17.6730 0.0000
v 17.0952 17.0952 3.4693
v 17.0175 17.0175 3.9271
v 17.1213 17.1213 3.0000
v 16.7634 17.4271 0.0000
v 17.3972 16.7416 3.4693
v 17.3083 16.6771 3.9271
v 17.4271 16.7634 3.0000
v 17.1213 17.1213 0.0000
v 17.6401 16.3452 3.4693
v 17.5422 16.2953 3.9271
v 17.6730 16.3620 3.0000
v 17.4271 16.7634 0.0000
v 17.8180 15.9156 3.4693
v 17.7135 15.8817 3.9271
v 17.8532 15.9271 3.0000
v 17.6730 16.3620 0.0000
v 17.9266 15.4635 3.4693
v 17.8180 15.4463 3.9271
v 17.9631 15.4693 3.0000
v 17.8532 15.9271 0.0000
v 17.9631 15.0000 3.4693
v 17.8532 15.0000 3.9271
v 18.0000 15.0000 3.0000
v 17.9631 15.4693 0.0000
v 18.0000 -15.0000 3.0000
v 18.0000 15.0000 0.0000
v 17.9631 -15.0000 3.4693
v 17.9266 -15.4635 3.4693
v 17.8532 -15.0000 3.9271
v 17.8180 -15.4463 3.9271
v 17.6730 15.0000 4.3620
v 17.6730 -15.0000 4.3620
v 17.6401 15.4182 4.3620
v 17.4271 15.0000 4.7634
v 17.5422 15.8260 4.3620
v 17.3972 15.3797 4.7634
v 17.3817 16.2135 4.3620
v 17.3083 15.7500 4.7634
v 17.1625 16.5712 4.3620
v 17.1625 16.1019 4.7634
v 16.8901 16.8901 4.3620
v 16.9635 16.4266 4.7634
v 16.5712 17.1625 4.3620
v 16.7162 16.7162 4.7634
v 16.2135 17.3817 4.3620
v 16.4266 16.9635 4.7634
v 15.8260 17.5422 4.3620
v 16.1019 17.1625 4.7634
v 15.4182 17.6401 4.3620
v 15.7500 17.3083 4.7634
v 15.3797 17.3972 4.7634
v 15.6555 17.0175 5.1213
v 15.9631 16.8901 5.1213
v 15.3318 17.0952 5.1213
v 15.0000 17.4271 4.7634
v 15.5449 16.6771 5.4270
v 15.8005 16.5712 5.4270
v 15.2758 16.7416 5.4270
v 15.0000 17.1213 5.1213
v 15.4209 16.2953 5.6730
v 15.6183 16.2135 5.6730
v 15.2131 16.3452 5.6730
v 15.0000 16.7634 5.4270
v 15.2865 15.8817 5.8532
v 15.4209 15.8260 5.8532
v 15.1450 15.9156 5.8532
v 15.0000 16.3620 5.6730
v 15.1450 15.4463 5.9631
v 15.2131 15.4182 5.9631
v 15.0734 15.4635 5.9631
v 15.0000 15.9271 5.8532
v 15.0000 15.0000 6.0000
v 15.0000 15.4693 5.9631
v -15.0000 15.4693 5.9631
v -15.0000 15.9271 5.8532
v -15.0734 15.4635 5.9631
v -15.1450 15.4463 5.9631
v -15.1450 15.9156 5.8532
v -15.2865 15.8817 5.8532
v -15.2131 16.3452 5.6730
v -15.4209 16.2953 5.6730
v -15.0000 16.3620 5.6730
v -15.2759 16.7416 5.4270
v -15.0000 16.7634 5.4270
v -15.3318 17.0952 5.1213
v -15.6555 17.0175 5.1213
v -15.0000 17.1213 5.1213
v -15.9631 16.8901 5.1213
v -15.5449 16.6771 5.4270
v -16.2469 16.7162 5.1213
v -15.8005 16.5712 5.4270
v -16.5000 16.5000 5.1213
v -16.0365 16.4266 5.4270
v -16.7162 16.2469 5.1213
v -16.2469 16.2469 5.4270
v -17.1625 16.1019 4.7634
v -16.8901 15.9631 5.1213
v -17.3083 15.7500 4.7634
v -17.0175 15.6555 5.1213
v -17.3972 15.3797 4.7634
v -16.5712 15.8005 5.4270
v -16.4266 16.0365 5.4270
v -16.6771 15.5449 5.4270
v -17.0952 15.3318 5.1213
v -16.2135 15.6183 5.6730
v -16.1019 15.8005 5.6730
v -16.2953 15.4209 5.6730
v -16.7416 15.2758 5.4270
v -15.8260 15.4209 5.8532
v -15.7500 15.5449 5.8532
v -15.8817 15.2865 5.8532
v -16.3452 15.2131 5.6730
v -15.4182 15.2131 5.9631
v -15.3797 15.2758 5.9631
v -15.4463 15.1450 5.9631
v -15.4635 15.0734 5.9631
v -15.4693 15.0000 5.9631
v -15.3318 15.3318 5.9631
v -15.2759 15.3797 5.9631
v -15.6555 15.6555 5.8532
v -15.2131 15.4182 5.9631
v -15.5449 15.7500 5.8532
v -15.4209 15.8260 5.8532
v -15.6183 16.2135 5.6730
v -15.8005 16.1019 5.6730
v -15.9631 15.9631 5.6730
v -17.1213 15.0000 5.1213
v -16.7634 -15.0000 5.4270
v -17.4271 15.0000 4.7634
v -17.1213 -15.0000 5.1213
v -17.4271 -15.0000 4.7634
v -17.3972 -15.3797 4.7634
v -17.0952 -15.3318 5.1213
v -17.5422 -15.8260 4.3620
v -17.3083 -15.7500 4.7634
v -17.7135 -15.8817 3.9271
v -17.5422 -16.2953 3.9271
v -17.6401 -16.3452 3.4693
v -17.4271 -16.7634 3.0000
v -17.3972 -16.7416 3.4693
v -17.1213 -17.1213 0.0000
v -17.1213 -17.1213 3.0000
v -15.4702 -15.6472 0.0000
v -16.7634 -17.4271 0.0000
v -15.4702 -15.6472 -5.0000
v -15.3632 -15.7128 -5.0000
v -15.3632 -15.7128 0.0000
v -16.2712 -17.4948 -5.0000
v -15.8652 -17.6630 -5.0000
v -16.6458 -17.2652 -2.0000
v -16.2712 -17.4948 -2.0000
v -16.9799 -16.9799 -2.0000
v -17.9389 -19.0451 -2.0000
v -18.5355 -18.5355 -2.0000
v -18.5355 -18.5355 3.0000
v -18.2743 -18.7787 3.0000
v -18.2410 -18.7403 3.7116
v -18.6257 -18.1417 4.4087
v -18.1417 -18.6257 4.4087
v -18.8262 -17.4589 5.0771
v -18.4373 -17.9784 5.0771
v -19.1372 -16.8894 5.0771
v -18.8262 -16.7473 5.7032
v -18.5385 -17.2741 5.7032
v -19.0359 -16.1850 5.7032
v -18.6257 -16.0646 6.2743
v -19.1635 -15.5986 5.7032
v -19.5019 -15.6473 5.0771
v -18.7403 -15.5378 6.2743
v -19.0451 -15.0000 5.9389
v -18.7787 -15.0000 6.2743
v -19.2063 -15.0000 5.7032
v -19.0451 15.0000 5.9389
v -19.4550 -15.0000 5.2700
v -19.2063 15.0000 5.7032
v -19.5482 -15.0000 5.0771
v -19.4550 15.0000 5.2700
v -19.7553 -15.0000 4.5451
v -19.5482 15.0000 5.0771
v -19.7975 -15.0000 4.4087
v -19.7553 15.0000 4.5451
v -19.9384 -15.0000 3.7822
v -19.7975 15.0000 4.4087
v -19.5019 15.6473 5.0771
v -19.0359 16.1850 5.7032
v -19.1635 15.5986 5.7032
v -18.4373 16.5697 6.2743
v -18.6257 16.0646 6.2743
v -17.7545 16.7702 6.7787
v -17.9784 16.3602 6.7787
v -17.0429 16.7702 7.2063
v -17.2741 16.4615 7.2063
v -16.3602 16.5697 7.5482
v -16.5697 16.3602 7.5482
v -15.7616 16.1850 7.7975
v -15.9225 16.0646 7.7975
v -15.5852 16.2814 7.7975
v -15.2956 15.6473 7.9491
v -15.3847 15.5986 7.9491
v -15.2005 15.6828 7.9491
v -15.0000 15.0000 8.0000
v -15.1013 15.7043 7.9491
v -15.2005 16.3943 7.7975
v -15.0000 15.7116 7.9491
v 15.0000 15.0000 8.0000
v -15.0000 15.7822 7.9384
v 15.0000 15.7116 7.9491
v -15.0000 16.4087 7.7975
v 15.0000 15.7822 7.9384
v -15.0000 16.5451 7.7553
v 15.0000 16.4087 7.7975
v -15.0000 17.0771 7.5482
v 15.0000 16.5451 7.7553
v -15.0000 17.2700 7.4550
v 15.0000 17.0771 7.5482
v -15.0000 17.7032 7.2063
v 15.0000 17.2700 7.4550
v -15.0000 17.9389 7.0451
v 15.0000 17.7032 7.2063
v -15.4660 18.2410 6.7787
v -15.0000 18.2743 6.7787
v -15.5378 18.7403 6.2743
v -16.1850 19.0359 5.7032
v -15.0000 18.5355 6.5355
v 15.0000 18.2743 6.7787
v -15.0000 18.7787 6.2743
v 15.0000 18.5355 6.5355
v -15.0000 19.0451 5.9389
v 15.0000 18.7787 6.2743
v -15.5986 19.1635 5.7032
v -15.0000 19.2063 5.7032
v -16.2814 19.3639 5.0771
v -15.6473 19.5019 5.0771
v -16.8894 19.1371 5.0771
v -16.9929 19.3639 4.4087
v -16.3516 19.6031 4.4087
v -17.5937 19.0359 4.4087
v -17.6757 19.1635 3.7116
v -18.2410 18.7403 3.7116
v -18.5355 18.5355 3.0000
v -18.2743 18.7787 3.0000
v -18.7787 18.2743 3.0000
v -18.5355 18.5355 -2.0000
v -19.0451 17.9389 3.0000
v -19.0451 17.9389 -2.0000
v -16.9799 16.9799 -2.0000
v -16.9799 16.9799 -5.0000
v -16.6458 17.2652 -2.0000
v -16.6458 17.2652 -5.0000
v -16.2712 17.4948 -5.0000
v -16.2712 17.4948 -2.0000
v -15.8652 17.6630 -5.0000
v -15.8652 17.6630 -2.0000
v -15.4380 17.7655 -5.0000
v -15.4380 17.7655 -2.0000
v -15.0000 15.8000 -5.0000
v -15.0000 17.8000 -5.0000
v 15.0000 15.8000 -5.0000
v 15.1251 15.7901 0.0000
v 15.1251 15.7901 -5.0000
v 15.2472 15.7608 0.0000
v 15.3632 15.7128 0.0000
v 15.2472 15.7608 -5.0000
v 15.4702 15.6472 0.0000
v 15.3632 15.7128 -5.0000
v 15.5657 15.5657 0.0000
v 15.4702 15.6472 -5.0000
v 15.6472 15.4702 0.0000
v 15.5657 15.5657 -5.0000
v 15.7128 15.3632 0.0000
v 15.6472 15.4702 -5.0000
v 15.7608 15.2472 0.0000
v 15.7128 15.3632 -5.0000
v 15.7901 15.1251 0.0000
v 15.7608 15.2472 -5.0000
v 15.8000 15.0000 0.0000
v 15.7901 15.1251 -5.0000
v 15.8000 7.1156 0.0000
v 15.8000 6.8536 -5.0000
v 15.8000 2.2771 0.0000
v 15.8000 7.4244 5.8914
v 15.8000 -2.2771 0.0000
v 15.8000 -2.5391 -5.0000
v 18.0000 -15.0000 0.0000
v 15.8000 -7.1156 0.0000
v 17.9631 -15.4693 3.0000
v 17.9631 -15.4693 0.0000
v 17.8180 -15.9156 3.4693
v 17.7135 -15.8817 3.9271
v 17.8532 -15.9271 3.0000
v 17.6401 -16.3452 3.4693
v 17.5422 -16.2953 3.9271
v 17.6730 -16.3620 3.0000
v 17.8532 -15.9271 0.0000
v 17.3972 -16.7416 3.4693
v 17.3083 -16.6771 3.9271
v 17.4271 -16.7634 3.0000
v 17.6730 -16.3620 0.0000
v 17.0952 -17.0952 3.4693
v 17.0175 -17.0175 3.9271
v 17.1213 -17.1213 3.0000
v 17.4271 -16.7634 0.0000
v 16.7416 -17.3972 3.4693
v 16.6771 -17.3083 3.9271
v 16.7634 -17.4271 3.0000
v 17.1213 -17.1213 0.0000
v 16.3452 -17.6401 3.4693
v 16.2953 -17.5422 3.9271
v 16.3620 -17.6730 3.0000
v 16.7634 -17.4271 0.0000
v 15.9156 -17.8180 3.4693
v 15.8817 -17.7135 3.9271
v 15.9271 -17.8532 3.0000
v 16.3620 -17.6730 0.0000
v 15.4635 -17.9266 3.4693
v 15.4463 -17.8180 3.9271
v 15.4693 -17.9631 3.0000
v 15.9271 -17.8532 0.0000
v 15.0000 -17.9631 3.4693
v 15.0000 -17.8532 3.9271
v 15.0000 -18.0000 3.0000
v 15.4693 -17.9631 0.0000
v -15.0000 -18.0000 3.0000
v 15.0000 -18.0000 0.0000
v -15.0000 -17.9631 3.4693
v -15.4635 -17.9266 3.4693
v -15.0000 -17.8532 3.9271
v -15.4463 -17.8180 3.9271
v 15.0000 -17.6730 4.3620
v -15.0000 -17.6730 4.3620
v 15.4182 -17.6401 4.3620
v 15.0000 -17.4271 4.7634
v 15.8260 -17.5422 4.3620
v 15.3797 -17.3972 4.7634
v 16.2135 -17.3817 4.3620
v 15.7500 -17.3083 4.7634
v 16.5712 -17.1625 4.3620
v 16.1019 -17.1625 4.7634
v 16.8901 -16.8901 4.3620
v 16.4266 -16.9635 4.7634
v 17.1625 -16.5712 4.3620
v 16.7162 -16.7162 4.7634
v 17.3817 -16.2135 4.3620
v 16.9635 -16.4266 4.7634
v 17.5422 -15.8260 4.3620
v 17.1625 -16.1019 4.7634
v 17.6401 -15.4182 4.3620
v 17.3083 -15.7500 4.7634
v 17.3972 -15.3797 4.7634
v 17.0175 -15.6555 5.1213
v 16.8901 -15.9631 5.1213
v 17.0952 -15.3318 5.1213
v 17.4271 -15.0000 4.7634
v 16.6771 -15.5449 5.4270
v 16.5712 -15.8005 5.4270
v 16.7416 -15.2759 5.4270
v 17.1213 -15.0000 5.1213
v 16.2953 -15.4209 5.6730
v 16.2135 -15.6183 5.6730
v 16.3452 -15.2131 5.6730
v 16.7634 -15.0000 5.4270
v 15.8817 -15.2865 5.8532
v 15.8260 -15.4209 5.8532
v 15.9156 -15.1450 5.8532
v 16.3620 -15.0000 5.6730
v 15.4463 -15.1450 5.9631
v 15.4182 -15.2131 5.9631
v 15.4635 -15.0734 5.9631
v 15.9271 -15.0000 5.8532
v 15.0000 -15.0000 6.0000
v 15.4693 -15.0000 5.9631
v 15.4693 -7.4281 5.9631
v 15.8000 -7.4244 5.8914
v 15.8000 -1.9683 5.8914
v 15.9271 15.0000 5.8532
v 15.4693 -1.9646 5.9631
v 15.0000 -1.9626 6.0000
v 15.4693 1.9646 5.9631
v 15.8000 1.9683 5.8914
v 15.4693 15.0000 5.9631
v 15.4693 7.4281 5.9631
v 15.9156 15.1450 5.8532
v 15.4635 15.0734 5.9631
v 16.3452 15.2131 5.6730
v 16.2953 15.4209 5.6730
v 16.3620 15.0000 5.6730
v 16.7416 15.2758 5.4270
v 16.7634 15.0000 5.4270
v 17.0952 15.3318 5.1213
v 17.0175 15.6555 5.1213
v 17.1213 15.0000 5.1213
v 16.8901 15.9631 5.1213
v 16.6771 15.5449 5.4270
v 16.7162 16.2469 5.1213
v 16.5712 15.8005 5.4270
v 16.5000 16.5000 5.1213
v 16.4266 16.0365 5.4270
v 16.2469 16.7162 5.1213
v 16.2469 16.2469 5.4270
v 16.0365 16.4266 5.4270
v 15.8005 16.1019 5.6730
v 15.9631 15.9631 5.6730
v 15.5449 15.7500 5.8532
v 15.6555 15.6555 5.8532
v 15.2758 15.3797 5.9631
v 15.3318 15.3318 5.9631
v 15.3797 15.2758 5.9631
v 15.4182 15.2131 5.9631
v 15.7500 15.5449 5.8532
v 15.4463 15.1450 5.9631
v 15.8260 15.4209 5.8532
v 15.8817 15.2865 5.8532
v 15.0000 7.4301 6.0000
v 13.8000 7.4301 6.0000
v 13.8000 6.6964 -8.0000
v 13.8000 1.9626 6.0000
v 13.8000 2.6964 -8.0000
v 4.3500 6.5046 6.0000
v 13.8000 -1.9626 6.0000
v -4.5500 6.5046 6.0000
v -4.5500 6.5046 8.0000
v -4.5500 2.7046 6.0000
v -4.5500 2.7046 8.0000
v 4.0615 -3.2510 6.0000
v 4.2827 -3.3955 6.0000
v 3.8195 -3.1448 6.0000
v 4.0615 -3.2510 8.0000
v 3.5634 -3.0799 6.0000
v 3.8195 -3.1448 8.0000
v 3.3000 -3.0581 6.0000
v 3.5634 -3.0799 8.0000
v -3.1000 -3.0581 6.0000
v -3.1000 -3.0581 8.0000
v -3.3634 -3.0799 6.0000
v -3.6195 -3.1448 6.0000
v -3.3634 -3.0799 8.0000
v -3.8615 -3.2510 6.0000
v -3.6195 -3.1448 8.0000
v -4.0827 -3.3955 6.0000
v -3.8615 -3.2510 8.0000
v -4.2772 -3.5745 6.0000
v -4.0827 -3.3955 8.0000
v -4.4395 -3.7830 6.0000
v -4.2772 -3.5745 8.0000
v -4.5652 -4.0154 6.0000
v -15.4693 1.9646 5.9631
v -4.4395 -3.7830 8.0000
v -4.6510 -4.2653 6.0000
v -4.5652 -4.0154 8.0000
v -4.6945 -4.5260 6.0000
v -4.6510 -4.2653 8.0000
v -4.6945 -4.7903 6.0000
v -4.6945 -4.5260 8.0000
v -4.6510 -5.0509 6.0000
v -4.6945 -4.7903 8.0000
v -4.5652 -5.3008 6.0000
v -4.6510 -5.0509 8.0000
v -4.4395 -5.5332 6.0000
v -4.5652 -5.3008 8.0000
v -4.2772 -5.7418 6.0000
v -4.4395 -5.5332 8.0000
v -4.0827 -5.9208 6.0000
v -4.2772 -5.7418 8.0000
v -3.8615 -6.0653 6.0000
v -4.0827 -5.9208 8.0000
v -3.6195 -6.1714 6.0000
v -3.8615 -6.0653 8.0000
v -3.3634 -6.2363 6.0000
v -3.6195 -6.1714 8.0000
v -3.1000 -6.2581 6.0000
v -3.3634 -6.2363 8.0000
v 13.8000 -7.4301 6.0000
v 3.3000 -6.2581 6.0000
v 15.0000 -7.4301 6.0000
v -15.0000 -15.4693 5.9631
v 15.0000 -15.4693 5.9631
v -15.0734 -15.4635 5.9631
v -15.0000 -15.9271 5.8532
v -15.1450 -15.4463 5.9631
v -15.1450 -15.9156 5.8532
v -15.2131 -15.4182 5.9631
v -15.2865 -15.8817 5.8532
v -15.2759 -15.3797 5.9631
v -15.4209 -15.8260 5.8532
v -15.3318 -15.3318 5.9631
v -15.5449 -15.7500 5.8532
v -15.3797 -15.2759 5.9631
v -15.6555 -15.6555 5.8532
v -15.4182 -15.2131 5.9631
v -15.7500 -15.5449 5.8532
v -15.8260 -15.4209 5.8532
v -16.2135 -15.6183 5.6730
v -16.1019 -15.8005 5.6730
v -16.5712 -15.8005 5.4270
v -16.4266 -16.0365 5.4270
v -16.6771 -15.5449 5.4270
v -16.8901 -15.9631 5.1213
v -17.0175 -15.6555 5.1213
v -17.1625 -16.1019 4.7634
v -17.3817 -16.2135 4.3620
v -17.1625 -16.5712 4.3620
v -17.3083 -16.6771 3.9271
v -17.0952 -17.0952 3.4693
v -17.0175 -17.0175 3.9271
v -16.7634 -17.4271 3.0000
v -16.7416 -17.3972 3.4693
v -16.3620 -17.6730 0.0000
v -16.3620 -17.6730 3.0000
v -15.2472 -15.7608 0.0000
v -15.9271 -17.8532 0.0000
v -15.2472 -15.7608 -5.0000
v -15.1251 -15.7902 -5.0000
v -15.1251 -15.7902 0.0000
v -15.4380 -17.7655 -5.0000
v -15.0000 -17.8000 -5.0000
v -15.8652 -17.6630 -2.0000
v -15.4380 -17.7655 -2.0000
v -16.5451 -19.7553 -2.0000
v -15.7822 -19.9384 -2.0000
v -17.2700 -19.4550 -2.0000
v -17.0771 -19.5482 3.0000
v -17.7032 -19.2063 3.0000
v -17.9389 -19.0451 3.0000
v -17.2700 -19.4550 3.0000
v -17.6757 -19.1635 3.7116
v -17.0559 -19.5019 3.7116
v -17.5937 -19.0359 4.4087
v -17.9784 -18.4373 5.0771
v -17.4589 -18.8262 5.0771
v -18.1789 -17.7545 5.7032
v -17.7545 -18.1789 5.7032
v -18.1789 -17.0429 6.2743
v -17.8558 -17.4746 6.2743
v -18.4373 -16.5697 6.2743
v -17.9784 -16.3602 6.7787
v -17.7545 -16.7702 6.7787
v -18.1417 -15.9225 6.7787
v -17.5937 -15.7616 7.2063
v -18.2410 -15.4660 6.7787
v -17.6757 -15.3847 7.2063
v -17.9389 -15.0000 7.0451
v -17.7032 -15.0000 7.2063
v -18.2743 -15.0000 6.7787
v -17.9389 15.0000 7.0451
v -18.5355 -15.0000 6.5355
v -18.2743 15.0000 6.7787
v -18.5355 15.0000 6.5355
v -18.7787 15.0000 6.2743
v -18.7403 15.5378 6.2743
v -18.1417 15.9225 6.7787
v -18.2410 15.4660 6.7787
v -17.4589 16.1230 7.2063
v -17.5937 15.7616 7.2063
v -16.7473 16.1230 7.5482
v -16.8894 15.8628 7.5482
v -16.0646 15.9225 7.7975
v -16.1850 15.7616 7.7975
v -15.4660 15.5378 7.9491
v -15.5378 15.4660 7.9491
v -15.5986 15.3847 7.9491
v -15.6473 15.2956 7.9491
v -16.2814 15.5852 7.7975
v -15.6828 15.2005 7.9491
v -16.3516 15.3969 7.7975
v -15.7043 15.1013 7.9491
v -16.3943 15.2005 7.7975
v -15.7116 15.0000 7.9491
v -15.7116 -15.0000 7.9491
v -15.7822 15.0000 7.9384
v -16.4087 15.0000 7.7975
v -15.7822 -15.0000 7.9384
v -16.4087 -15.0000 7.7975
v -16.3943 -15.2005 7.7975
v -16.5451 -15.0000 7.7553
v -15.7043 -15.1013 7.9491
v -16.3516 -15.3969 7.7975
v -16.9929 -15.5852 7.5482
v -15.6828 -15.2005 7.9491
v -16.2814 -15.5852 7.7975
v -15.0000 -15.0000 8.0000
v -15.6473 -15.2956 7.9491
v 4.3500 6.5046 8.0000
v 15.0000 -15.0000 8.0000
v 4.3500 2.7046 8.0000
v 15.7116 15.0000 7.9491
v 15.7116 -15.0000 7.9491
v 15.7043 15.1013 7.9491
v 15.7822 15.0000 7.9384
v 15.6828 15.2005 7.9491
v 16.3516 15.3969 7.7975
v 15.6473 15.2956 7.9491
v 15.5986 15.3847 7.9491
v 16.2814 15.5852 7.7975
v 16.1850 15.7616 7.7975
v 16.7473 16.1230 7.5482
v 16.0646 15.9225 7.7975
v 16.5697 16.3602 7.5482
v 15.5378 15.4660 7.9491
v 15.9225 16.0646 7.7975
v 15.4660 15.5378 7.9491
v 15.3847 15.5986 7.9491
v 15.7616 16.1850 7.7975
v 15.2956 15.6473 7.9491
v 15.5852 16.2814 7.7975
v 15.2005 15.6828 7.9491
v 15.3969 16.3516 7.7975
v 15.1013 15.7043 7.9491
v 15.2005 16.3943 7.7975
v 15.2956 17.0559 7.5482
v 15.5852 16.9929 7.5482
v 15.3847 17.6757 7.2063
v 15.8628 16.8894 7.5482
v 15.7616 17.5937 7.2063
v 16.1230 16.7473 7.5482
v 16.1230 17.4589 7.2063
v 16.3602 16.5697 7.5482
v 16.4615 17.2741 7.2063
v 16.7702 17.0429 7.2063
v 17.0429 16.7702 7.2063
v 16.7702 17.7545 6.7787
v 17.1442 17.4746 6.7787
v 16.3602 17.9784 6.7787
v 16.5697 18.4373 6.2743
v 15.9225 18.1417 6.7787
v 16.0646 18.6257 6.2743
v 15.4660 18.2410 6.7787
v 15.5378 18.7403 6.2743
v 15.0000 17.9389 7.0451
v 15.0000 19.0451 5.9389
v 15.5986 19.1635 5.7032
v 15.0000 19.2063 5.7032
v -15.0000 19.4550 5.2700
v 15.0000 19.4550 5.2700
v -15.0000 19.5482 5.0771
v -15.0000 19.7553 4.5451
v 15.0000 19.5482 5.0771
v -15.6828 19.7486 4.4087
v -15.0000 19.7975 4.4087
v -16.3943 19.7486 3.7116
v -17.0559 19.5019 3.7116
v -15.7043 19.8987 3.7116
v -15.0000 19.9384 3.7822
v -16.4087 19.7975 3.0000
v -16.5451 19.7553 3.0000
v -15.7116 19.9491 3.0000
v -15.0000 19.9491 3.7116
v -15.7822 19.9384 -2.0000
v -15.0000 20.0000 3.0000
v -16.5451 19.7553 -2.0000
v -17.0771 19.5482 3.0000
v -17.2700 19.4550 -2.0000
v -17.2700 19.4550 3.0000
v -17.7032 19.2063 3.0000
v -17.9389 19.0451 3.0000
v -17.9389 19.0451 -2.0000
v -15.0000 17.8000 -2.0000
v -15.0000 20.0000 -2.0000
v 15.0000 17.8000 -2.0000
v 15.0000 17.8000 -5.0000
v 15.0000 20.0000 -2.0000
v 15.4380 17.7655 -2.0000
v 15.7822 19.9384 -2.0000
v 15.4380 17.7655 -5.0000
v 15.8652 17.6630 -2.0000
v 15.8652 17.6630 -5.0000
v 16.2712 17.4948 -5.0000
v 16.2712 17.4948 -2.0000
v 16.6458 17.2652 -5.0000
v 16.6458 17.2652 -2.0000
v 16.9799 16.9799 -5.0000
v 16.9799 16.9799 -2.0000
v 17.2652 16.6458 -5.0000
v 17.2652 16.6458 -2.0000
v 17.4948 16.2712 -5.0000
v 17.4948 16.2712 -2.0000
v 17.6630 15.8652 -5.0000
v 17.6630 15.8652 -2.0000
v 17.7655 15.4380 -5.0000
v 17.7655 15.4380 -2.0000
v 15.8000 15.0000 -5.0000
v 17.8000 15.0000 -5.0000
v 17.8000 6.8536 -5.0000
v 17.8000 15.0000 -2.0000
v 15.8000 6.6964 -8.0000
v 18.8000 6.7750 -6.5000
v 15.8000 2.6964 -8.0000
v 17.8000 2.5391 -5.0000
v 18.8000 2.6177 -6.5000
v 18.8000 2.5391 -5.0000
v 18.8000 6.8536 -5.0000
v 17.8000 -15.0000 -2.0000
v 17.8000 -2.5391 -5.0000
v 20.0000 15.0000 -2.0000
v 19.9384 15.7822 -2.0000
v 20.0000 -15.0000 -2.0000
v 20.0000 15.0000 3.0000
v 17.7655 -15.4380 -2.0000
v 19.9384 -15.7822 -2.0000
v 17.8000 -15.0000 -5.0000
v 17.8000 -6.8536 -5.0000
v 17.7655 -15.4380 -5.0000
v 17.6630 -15.8652 -2.0000
v 15.7901 -15.1251 -5.0000
v 15.8000 -15.0000 -5.0000
v 15.7608 -15.2472 -5.0000
v 17.6630 -15.8652 -5.0000
v 15.7608 -15.2472 0.0000
v 15.7128 -15.3632 0.0000
v 15.7901 -15.1251 0.0000
v 15.8000 -15.0000 0.0000
v 15.8000 -6.8536 -5.0000
v 13.8000 -6.6964 -8.0000
v 13.8000 -2.6964 -8.0000
v 15.8000 -6.6964 -8.0000
v 15.8000 -2.6964 -8.0000
v 18.8000 -6.7750 -6.5000
v 18.8000 -6.8536 -5.0000
v 18.8000 -2.6177 -6.5000
v 18.8000 -2.5391 -5.0000
v 15.8000 2.5391 -5.0000
v 15.0000 1.9626 6.0000
v 4.3500 2.7046 6.0000
v 4.6395 -3.7830 6.0000
v 3.3000 -3.0581 8.0000
v 4.2827 -3.3955 8.0000
v 4.4772 -3.5745 8.0000
v 4.6395 -3.7830 8.0000
v 4.4772 -3.5745 6.0000
v 4.7652 -4.0154 8.0000
v 4.7652 -4.0154 6.0000
v 4.8510 -4.2653 8.0000
v 4.8510 -4.2653 6.0000
v 4.8945 -4.5260 6.0000
v 4.8945 -4.5260 8.0000
v 4.8945 -4.7903 8.0000
v 4.8510 -5.0509 8.0000
v 4.8945 -4.7903 6.0000
v 4.7652 -5.3008 8.0000
v 4.8510 -5.0509 6.0000
v 4.6395 -5.5332 8.0000
v 4.7652 -5.3008 6.0000
v 4.4772 -5.7418 8.0000
v 4.6395 -5.5332 6.0000
v 4.2827 -5.9208 8.0000
v 4.4772 -5.7418 6.0000
v 4.0615 -6.0653 8.0000
v 4.2827 -5.9208 6.0000
v 3.8195 -6.1714 8.0000
v 4.0615 -6.0653 6.0000
v 3.5634 -6.2363 8.0000
v 3.8195 -6.1714 6.0000
v 3.3000 -6.2581 8.0000
v 3.5634 -6.2363 6.0000
v -3.1000 -6.2581 8.0000
v 15.0000 -15.7116 7.9491
v -15.0000 -15.7116 7.9491
v 15.1013 -15.7043 7.9491
v 15.0000 -15.7822 7.9384
v 15.2005 -15.6828 7.9491
v 15.3969 -16.3516 7.7975
v 15.2956 -15.6473 7.9491
v 15.3847 -15.5986 7.9491
v 15.5852 -16.2814 7.7975
v 15.7616 -16.1850 7.7975
v 16.1230 -16.7473 7.5482
v 15.9225 -16.0646 7.7975
v 16.3602 -16.5697 7.5482
v 15.4660 -15.5378 7.9491
v 16.0646 -15.9225 7.7975
v 15.5378 -15.4660 7.9491
v 15.5986 -15.3847 7.9491
v 16.1850 -15.7616 7.7975
v 15.6473 -15.2956 7.9491
v 16.2814 -15.5852 7.7975
v 15.6828 -15.2005 7.9491
v 16.3516 -15.3969 7.7975
v 15.7043 -15.1013 7.9491
v 16.3943 -15.2005 7.7975
v 15.7822 -15.0000 7.9384
v 16.4087 -15.0000 7.7975
v 16.4087 15.0000 7.7975
v 16.3943 15.2005 7.7975
v 16.5451 15.0000 7.7553
v 16.9929 15.5852 7.5482
v 17.0559 15.2956 7.5482
v 16.8894 15.8628 7.5482
v 17.4589 16.1230 7.2063
v 17.5937 15.7616 7.2063
v 17.2741 16.4615 7.2063
v 17.7545 16.7702 6.7787
v 17.4746 17.1442 6.7787
v 17.4746 17.8558 6.2743
v 17.8558 17.4746 6.2743
v 17.0429 18.1789 6.2743
v 17.2741 18.5385 5.7032
v 16.7473 18.8262 5.7032
v 16.1850 19.0359 5.7032
v 16.2814 19.3639 5.0771
v 15.6473 19.5019 5.0771
v 15.0000 19.7553 4.5451
v 15.6828 19.7486 4.4087
v 15.0000 19.7975 4.4087
v 15.0000 19.9384 3.7822
v 15.0000 19.9491 3.7116
v 15.7043 19.8987 3.7116
v 15.0000 20.0000 3.0000
v 15.7116 19.9491 3.0000
v 16.3943 19.7486 3.7116
v 16.4087 19.7975 3.0000
v 16.3516 19.6031 4.4087
v 16.9929 19.3639 4.4087
v 17.0559 19.5019 3.7116
v 16.8894 19.1371 5.0771
v 17.4589 18.8262 5.0771
v 17.5937 19.0359 4.4087
v 17.7545 18.1789 5.7032
v 17.9784 18.4373 5.0771
v 18.1789 17.7545 5.7032
v 18.1789 17.0429 6.2743
v 18.5385 17.2741 5.7032
v 17.9784 16.3602 6.7787
v 18.4373 16.5697 6.2743
v 18.1417 15.9225 6.7787
v 17.6757 15.3847 7.2063
v 18.6257 16.0646 6.2743
v 18.2410 15.4660 6.7787
v 18.8262 16.7473 5.7032
v 19.0359 16.1850 5.7032
v 18.8262 17.4589 5.0771
v 19.1371 16.8894 5.0771
v 18.4373 17.9784 5.0771
v 18.6257 18.1417 4.4087
v 18.1417 18.6257 4.4087
v 17.6757 19.1635 3.7116
v 18.2410 18.7403 3.7116
v 17.2700 19.4550 3.0000
v 17.7032 19.2063 3.0000
v 17.0771 19.5482 3.0000
v 17.2700 19.4550 -2.0000
v 16.5451 19.7553 3.0000
v 16.5451 19.7553 -2.0000
v 17.9389 19.0451 -2.0000
v 18.5355 18.5355 -2.0000
v 18.2743 18.7787 3.0000
v 19.0451 17.9389 -2.0000
v 18.7787 18.2743 3.0000
v 19.4550 17.2700 -2.0000
v 19.2063 17.7032 3.0000
v 19.7553 16.5451 -2.0000
v 19.5482 17.0771 3.0000
v 19.7975 16.4087 3.0000
v 19.9491 15.7116 3.0000
v 19.7553 16.5451 3.0000
v 19.7486 16.3943 3.7116
v 19.5019 17.0559 3.7116
v 19.8987 15.7043 3.7116
v 19.7486 15.6828 4.4087
v 19.9491 15.0000 3.7116
v 19.9384 15.0000 3.7822
v 19.9491 -15.0000 3.7116
v 19.9384 -15.0000 3.7822
v 20.0000 -15.0000 3.0000
v 19.8987 -15.7043 3.7116
v 19.9491 -15.7116 3.0000
v 19.7486 -16.3943 3.7116
v 19.7975 -16.4087 3.0000
v 19.6031 -16.3516 4.4087
v 19.7486 -15.6828 4.4087
v 19.3639 -16.9929 4.4087
v 19.5019 -17.0559 3.7116
v 19.1371 -16.8894 5.0771
v 19.3639 -16.2814 5.0771
v 18.8262 -17.4589 5.0771
v 19.0359 -17.5937 4.4087
v 18.5385 -17.2741 5.7032
v 18.8262 -16.7473 5.7032
v 18.1789 -17.7545 5.7032
v 18.4373 -17.9784 5.0771
v 17.8558 -17.4746 6.2743
v 18.1789 -17.0429 6.2743
v 17.4746 -17.8558 6.2743
v 17.7545 -18.1789 5.7032
v 17.1442 -17.4746 6.7787
v 17.4746 -17.1442 6.7787
v 16.7702 -17.7545 6.7787
v 17.0429 -18.1789 6.2743
v 16.4615 -17.2741 7.2063
v 16.7702 -17.0429 7.2063
v 16.1230 -17.4589 7.2063
v 16.3602 -17.9784 6.7787
v 15.8628 -16.8894 7.5482
v 15.5852 -16.9929 7.5482
v 15.7616 -17.5937 7.2063
v 15.2956 -17.0559 7.5482
v 15.9225 -18.1417 6.7787
v 15.3847 -17.6757 7.2063
v 16.5697 -18.4373 6.2743
v 16.0646 -18.6257 6.2743
v 17.2741 -18.5385 5.7032
v 16.7473 -18.8262 5.7032
v 17.9784 -18.4373 5.0771
v 17.4589 -18.8262 5.0771
v 18.6257 -18.1417 4.4087
v 18.1417 -18.6257 4.4087
v 19.1635 -17.6757 3.7116
v 18.7403 -18.2410 3.7116
v 19.4550 -17.2700 3.0000
v 19.2063 -17.7032 3.0000
v 19.5482 -17.0771 3.0000
v 19.4550 -17.2700 -2.0000
v 19.7553 -16.5451 3.0000
v 19.7553 -16.5451 -2.0000
v 17.4948 -16.2712 -2.0000
v 17.4948 -16.2712 -5.0000
v 17.2652 -16.6458 -2.0000
v 15.7128 -15.3632 -5.0000
v 15.6472 -15.4702 -5.0000
v 17.2652 -16.6458 -5.0000
v 15.6472 -15.4702 0.0000
v 15.5657 -15.5657 0.0000
v 15.4702 -15.6472 0.0000
v 15.5657 -15.5657 -5.0000
v 15.3632 -15.7128 0.0000
v 15.4702 -15.6472 -5.0000
v 15.2472 -15.7608 0.0000
v 15.3632 -15.7128 -5.0000
v 15.1251 -15.7902 0.0000
v 15.2472 -15.7608 -5.0000
v 15.0000 -15.8000 0.0000
v 15.1251 -15.7902 -5.0000
v -15.0000 -18.0000 0.0000
v -15.0000 -15.8000 0.0000
v -15.4693 -17.9631 3.0000
v -15.4693 -17.9631 0.0000
v -15.9156 -17.8180 3.4693
v -15.8817 -17.7135 3.9271
v -15.9271 -17.8532 3.0000
v -16.3452 -17.6401 3.4693
v -16.2953 -17.5422 3.9271
v -16.6771 -17.3083 3.9271
v -16.8901 -16.8901 4.3620
v -16.5712 -17.1625 4.3620
v -16.9635 -16.4266 4.7634
v -16.7162 -16.7162 4.7634
v -16.7162 -16.2469 5.1213
v -16.5000 -16.5000 5.1213
v -16.4266 -16.9635 4.7634
v -16.2469 -16.7162 5.1213
v -16.2135 -17.3817 4.3620
v -16.1019 -17.1625 4.7634
v -15.8260 -17.5422 4.3620
v -15.4182 -17.6401 4.3620
v -15.7500 -17.3083 4.7634
v -15.3797 -17.3972 4.7634
v -15.6555 -17.0175 5.1213
v -15.9631 -16.8901 5.1213
v -15.3318 -17.0952 5.1213
v -15.0000 -17.4271 4.7634
v -15.5449 -16.6771 5.4270
v -15.8005 -16.5712 5.4270
v -15.2759 -16.7416 5.4270
v -15.0000 -17.1213 5.1213
v -15.4209 -16.2953 5.6730
v -15.6183 -16.2135 5.6730
v -15.2131 -16.3452 5.6730
v -15.0000 -16.7634 5.4270
v -15.0000 -16.3620 5.6730
v 15.0000 -15.9271 5.8532
v 15.0000 -16.3620 5.6730
v 15.1450 -15.9156 5.8532
v 15.0734 -15.4635 5.9631
v 15.2131 -16.3452 5.6730
v 15.4209 -16.2953 5.6730
v 15.2758 -16.7416 5.4270
v 15.5449 -16.6771 5.4270
v 15.0000 -16.7634 5.4270
v 15.3318 -17.0952 5.1213
v 15.0000 -17.1213 5.1213
v 15.6555 -17.0175 5.1213
v 15.9631 -16.8901 5.1213
v 16.2469 -16.7162 5.1213
v 15.8005 -16.5712 5.4270
v 16.5000 -16.5000 5.1213
v 16.0365 -16.4266 5.4270
v 16.7162 -16.2469 5.1213
v 16.2469 -16.2469 5.4270
v 16.4266 -16.0365 5.4270
v 16.1019 -15.8005 5.6730
v 15.9631 -15.9631 5.6730
v 15.7500 -15.5449 5.8532
v 15.6555 -15.6555 5.8532
v 15.3797 -15.2759 5.9631
v 15.3318 -15.3318 5.9631
v 15.2758 -15.3797 5.9631
v 15.2131 -15.4182 5.9631
v 15.5449 -15.7500 5.8532
v 15.1450 -15.4463 5.9631
v 15.4209 -15.8260 5.8532
v 15.2865 -15.8817 5.8532
v 15.6183 -16.2135 5.6730
v 15.8005 -16.1019 5.6730
v -15.8005 -16.1019 5.6730
v -15.9631 -15.9631 5.6730
v -16.0365 -16.4266 5.4270
v -16.2469 -16.2469 5.4270
v -15.0000 -15.8000 -5.0000
v 15.0000 -15.8000 -5.0000
v 15.0000 -17.8000 -5.0000
v 15.4380 -17.7655 -5.0000
v 15.8652 -17.6630 -5.0000
v 15.0000 -17.8000 -2.0000
v 15.4380 -17.7655 -2.0000
v -15.0000 -17.8000 -2.0000
v 15.0000 -20.0000 -2.0000
v 15.7822 -19.9384 -2.0000
v -15.0000 -20.0000 -2.0000
v 15.0000 -20.0000 3.0000
v -15.7116 -19.9491 3.0000
v -16.4087 -19.7975 3.0000
v -15.0000 -20.0000 3.0000
v -15.7043 -19.8987 3.7116
v -15.0000 -19.9491 3.7116
v -16.3943 -19.7486 3.7116
v -16.3516 -19.6031 4.4087
v -15.6828 -19.7486 4.4087
v -16.9929 -19.3639 4.4087
v -16.8894 -19.1372 5.0771
v -16.2814 -19.3639 5.0771
v -17.2741 -18.5385 5.7032
v -16.7473 -18.8262 5.7032
v -17.4746 -17.8558 6.2743
v -17.0429 -18.1789 6.2743
v -17.4746 -17.1442 6.7787
v -17.1442 -17.4746 6.7787
v -17.2741 -16.4615 7.2063
v -17.0429 -16.7702 7.2063
v -17.4589 -16.1230 7.2063
v -16.8894 -15.8628 7.5482
v -16.7473 -16.1230 7.5482
v -17.0559 -15.2956 7.5482
v -17.0771 -15.0000 7.5482
v -16.5451 15.0000 7.7553
v -17.2700 -15.0000 7.4550
v -17.0771 15.0000 7.5482
v -17.2700 15.0000 7.4550
v -17.7032 15.0000 7.2063
v -17.0559 15.2956 7.5482
v -17.6757 15.3847 7.2063
v -16.9929 15.5852 7.5482
v -16.1850 -15.7616 7.7975
v -16.5697 -16.3602 7.5482
v -15.5986 -15.3847 7.9491
v -16.0646 -15.9225 7.7975
v -15.5378 -15.4660 7.9491
v -15.4660 -15.5378 7.9491
v -15.9225 -16.0646 7.7975
v -15.3847 -15.5986 7.9491
v -15.7616 -16.1850 7.7975
v -15.2956 -15.6473 7.9491
v -15.5852 -16.2814 7.7975
v -15.2005 -15.6828 7.9491
v -15.3969 -16.3516 7.7975
v -15.1013 -15.7043 7.9491
v -15.2005 -16.3943 7.7975
v -15.0000 -15.7822 7.9384
v -15.0000 -16.4087 7.7975
v 15.0000 -16.4087 7.7975
v 15.2005 -16.3943 7.7975
v 15.0000 -16.5451 7.7553
v 15.0000 -17.0771 7.5482
v -15.0000 -16.5451 7.7553
v 15.0000 -17.2700 7.4550
v -15.0000 -17.0771 7.5482
v 15.0000 -17.7032 7.2063
v -15.0000 -17.2700 7.4550
v 15.0000 -17.9389 7.0451
v -15.0000 -17.7032 7.2063
v 15.4660 -18.2410 6.7787
v 15.0000 -18.2743 6.7787
v 15.5378 -18.7403 6.2743
v 16.1850 -19.0359 5.7032
v 15.0000 -18.5355 6.5355
v -15.0000 -18.2743 6.7787
v 15.0000 -18.7787 6.2743
v -15.0000 -18.5355 6.5355
v 15.0000 -19.0451 5.9389
v -15.0000 -18.7787 6.2743
v 15.5986 -19.1635 5.7032
v 15.0000 -19.2063 5.7032
v 16.2814 -19.3639 5.0771
v 15.6473 -19.5019 5.0771
v 16.8894 -19.1372 5.0771
v 16.9929 -19.3639 4.4087
v 16.3516 -19.6031 4.4087
v 17.5937 -19.0359 4.4087
v 17.6757 -19.1635 3.7116
v 18.2410 -18.7403 3.7116
v 18.5355 -18.5355 3.0000
v 18.2743 -18.7787 3.0000
v 18.7787 -18.2743 3.0000
v 18.5355 -18.5355 -2.0000
v 19.0451 -17.9389 3.0000
v 19.0451 -17.9389 -2.0000
v 16.9799 -16.9799 -2.0000
v 16.9799 -16.9799 -5.0000
v 16.6458 -17.2652 -2.0000
v 16.6458 -17.2652 -5.0000
v 16.2712 -17.4948 -5.0000
v 16.2712 -17.4948 -2.0000
v 15.8652 -17.6630 -2.0000
v 16.5451 -19.7553 -2.0000
v 17.2700 -19.4550 -2.0000
v 16.4087 -19.7975 3.0000
v 15.7116 -19.9491 3.0000
v 16.5451 -19.7553 3.0000
v 17.0771 -19.5482 3.0000
v 16.3943 -19.7486 3.7116
v 17.0559 -19.5019 3.7116
v 15.7043 -19.8987 3.7116
v 15.6828 -19.7486 4.4087
v 15.0000 -19.9491 3.7116
v 15.0000 -19.9384 3.7822
v -15.0000 -19.9384 3.7822
v -15.0000 -19.7975 4.4087
v -15.0000 -19.7553 4.5451
v 15.0000 -19.7975 4.4087
v -15.6473 -19.5019 5.0771
v -15.0000 -19.5482 5.0771
v -16.1850 -19.0359 5.7032
v -15.5986 -19.1635 5.7032
v -16.5697 -18.4373 6.2743
v -16.0646 -18.6257 6.2743
v -16.7702 -17.7545 6.7787
v -16.3602 -17.9784 6.7787
v -16.7702 -17.0429 7.2063
v -16.4615 -17.2741 7.2063
v -16.3602 -16.5697 7.5482
v -16.1230 -16.7473 7.5482
v -15.8628 -16.8894 7.5482
v -16.1230 -17.4589 7.2063
v -15.5852 -16.9929 7.5482
v -15.7616 -17.5937 7.2063
v -15.2956 -17.0559 7.5482
v -15.3847 -17.6757 7.2063
v -15.0000 -17.9389 7.0451
v -15.4660 -18.2410 6.7787
v -15.9225 -18.1417 6.7787
v -15.5378 -18.7403 6.2743
v -15.0000 -19.0451 5.9389
v -15.0000 -19.2063 5.7032
v 15.0000 -19.4550 5.2700
v -15.0000 -19.4550 5.2700
v 15.0000 -19.5482 5.0771
v 15.0000 -19.7553 4.5451
v 17.2700 -19.4550 3.0000
v 17.7032 -19.2063 3.0000
v 17.9389 -19.0451 3.0000
v 17.9389 -19.0451 -2.0000
v -16.5451 -19.7553 3.0000
v 17.0429 -16.7702 7.2063
v 16.5697 -16.3602 7.5482
v 17.2741 -16.4615 7.2063
v 16.7473 -16.1230 7.5482
v 16.8894 -15.8628 7.5482
v 17.4589 -16.1230 7.2063
v 16.9929 -15.5852 7.5482
v 17.5937 -15.7616 7.2063
v 17.0559 -15.2956 7.5482
v 17.6757 -15.3847 7.2063
v 17.0771 -15.0000 7.5482
v 17.2700 -15.0000 7.4550
v 16.5451 -15.0000 7.7553
v 17.0771 15.0000 7.5482
v 17.2700 15.0000 7.4550
v 17.7032 15.0000 7.2063
v 17.9389 15.0000 7.0451
v 17.7032 -15.0000 7.2063
v 18.2743 15.0000 6.7787
v 17.9389 -15.0000 7.0451
v 18.7403 15.5378 6.2743
v 18.5355 15.0000 6.5355
v 19.1635 15.5986 5.7032
v 19.3639 16.2814 5.0771
v 19.0451 15.0000 5.9389
v 18.7787 15.0000 6.2743
v 19.2063 15.0000 5.7032
v 19.0451 -15.0000 5.9389
v 19.4550 15.0000 5.2700
v 19.2063 -15.0000 5.7032
v 19.5019 15.6473 5.0771
v 19.5482 15.0000 5.0771
v 19.6031 16.3516 4.4087
v 19.3639 16.9929 4.4087
v 19.1635 17.6757 3.7116
v 19.4550 17.2700 3.0000
v 19.0359 17.5937 4.4087
v 18.7403 18.2410 3.7116
v 18.5355 18.5355 3.0000
v 17.9389 19.0451 3.0000
v 19.0451 17.9389 3.0000
v 19.7553 15.0000 4.5451
v 19.7975 15.0000 4.4087
v 19.7553 -15.0000 4.5451
v 19.7975 -15.0000 4.4087
v 19.5019 -15.6473 5.0771
v 19.5482 -15.0000 5.0771
v 19.0359 -16.1850 5.7032
v 19.1635 -15.5986 5.7032
v 18.4373 -16.5697 6.2743
v 18.6257 -16.0646 6.2743
v 17.7545 -16.7702 6.7787
v 17.9784 -16.3602 6.7787
v 18.1417 -15.9225 6.7787
v 18.2410 -15.4660 6.7787
v 18.7403 -15.5378 6.2743
v 18.2743 -15.0000 6.7787
v 18.5355 -15.0000 6.5355
v 18.7787 -15.0000 6.2743
v 19.4550 -15.0000 5.2700
v 16.2135 15.6183 5.6730
v 16.1019 15.8005 5.6730
f 1 2 3
f 4 2 1
f 3 2 5
f 3 6 1
f 3 7 6
f 1 6 8
f 6 9 8
f 1 8 10
f 11 10 8
f 1 10 12
f 12 10 13
f 4 1 12
f 12 14 4
f 15 14 12
f 16 4 14
f 16 17 4
f 18 16 14
f 19 16 18
f 18 14 15
f 15 20 18
f 21 20 15
f 18 20 19
f 19 20 22
f 23 22 20
f 19 22 24
f 24 22 25
f 24 26 19
f 24 27 26
f 19 26 16
f 26 17 16
f 26 28 17
f 27 28 26
f 28 29 17
f 28 30 29
f 17 29 31
f 32 31 29
f 17 31 4
f 4 31 33
f 31 34 33
f 4 33 35
f 35 33 36
f 35 2 4
f 35 37 2
f 38 37 35
f 37 39 2
f 37 40 39
f 2 39 41
f 41 39 42
f 2 41 42
f 2 42 5
f 42 43 5
f 40 43 42
f 5 43 44
f 44 43 45
f 5 44 46
f 46 44 47
f 48 5 46
f 3 5 48
f 46 49 48
f 46 50 49
f 48 49 23
f 49 51 23
f 48 23 21
f 21 23 20
f 21 52 48
f 52 21 53
f 48 52 54
f 54 52 55
f 54 56 48
f 54 57 56
f 48 56 58
f 59 58 56
f 48 58 60
f 58 59 60
f 3 48 60
f 60 7 3
f 60 61 7
f 62 61 60
f 9 7 61
f 6 7 9
f 15 9 61
f 11 9 15
f 15 61 21
f 21 61 62
f 21 62 63
f 62 64 63
f 53 21 63
f 65 53 63
f 65 52 53
f 63 64 65
f 64 66 65
f 64 67 66
f 65 66 68
f 66 69 68
f 65 68 55
f 55 68 70
f 55 52 65
f 68 71 70
f 55 70 72
f 72 70 73
f 72 74 55
f 72 75 74
f 55 74 76
f 77 76 74
f 55 76 54
f 54 76 57
f 76 78 57
f 79 78 76
f 50 57 78
f 46 57 50
f 78 79 50
f 50 79 80
f 79 81 80
f 50 80 82
f 81 82 80
f 83 50 82
f 83 84 50
f 82 45 83
f 82 44 45
f 83 45 85
f 45 43 85
f 83 85 37
f 37 85 40
f 83 37 84
f 84 37 38
f 84 38 86
f 86 38 87
f 86 88 84
f 86 89 88
f 84 88 90
f 91 90 88
f 50 84 90
f 49 50 90
f 49 90 91
f 92 49 91
f 51 49 92
f 92 91 93
f 93 91 94
f 95 92 93
f 95 96 92
f 97 95 93
f 98 95 97
f 97 93 99
f 93 94 99
f 100 97 99
f 101 97 100
f 100 99 102
f 99 103 102
f 104 100 102
f 105 100 104
f 104 102 106
f 102 107 106
f 108 104 106
f 109 104 108
f 108 106 110
f 106 111 110
f 112 108 110
f 113 108 112
f 112 110 114
f 110 115 114
f 116 112 114
f 117 112 116
f 116 114 118
f 114 119 118
f 120 116 118
f 121 116 120
f 120 118 122
f 118 123 122
f 124 120 122
f 125 120 124
f 124 122 126
f 122 127 126
f 126 128 124
f 129 128 126
f 124 128 130
f 128 131 130
f 124 130 125
f 125 130 132
f 130 133 132
f 125 132 134
f 134 132 135
f 134 121 125
f 134 136 121
f 125 121 120
f 137 136 134
f 136 117 121
f 136 138 117
f 121 117 116
f 139 138 136
f 138 113 117
f 138 140 113
f 117 113 112
f 141 140 138
f 140 109 113
f 140 142 109
f 113 109 108
f 143 142 140
f 142 105 109
f 142 144 105
f 109 105 104
f 145 144 142
f 144 101 105
f 144 146 101
f 105 101 100
f 147 146 144
f 146 98 101
f 146 148 98
f 101 98 97
f 149 148 146
f 148 150 98
f 148 151 150
f 98 150 95
f 150 96 95
f 150 152 96
f 151 152 150
f 153 96 152
f 51 96 153
f 153 152 154
f 154 152 155
f 156 153 154
f 157 153 156
f 156 154 158
f 158 154 159
f 158 160 156
f 158 161 160
f 156 160 162
f 160 163 162
f 156 162 157
f 157 162 164
f 162 165 164
f 157 164 166
f 164 167 166
f 166 51 157
f 23 51 166
f 157 51 153
f 166 167 23
f 167 22 23
f 167 25 22
f 168 25 167
f 168 169 25
f 164 168 167
f 165 168 164
f 165 170 168
f 171 170 165
f 170 169 168
f 170 172 169
f 173 172 170
f 174 169 172
f 175 169 174
f 174 172 176
f 176 172 177
f 176 178 174
f 176 179 178
f 174 178 180
f 178 181 180
f 174 180 175
f 175 180 27
f 180 182 27
f 175 27 24
f 24 25 175
f 175 25 169
f 180 181 182
f 27 182 28
f 182 30 28
f 182 183 30
f 181 183 182
f 184 30 183
f 185 30 184
f 184 183 186
f 186 183 187
f 184 186 188
f 188 186 189
f 185 184 188
f 190 185 188
f 191 185 190
f 190 188 192
f 192 188 193
f 192 194 190
f 192 195 194
f 190 194 196
f 196 194 197
f 198 190 196
f 191 190 198
f 198 196 32
f 32 196 199
f 32 29 198
f 198 29 191
f 191 29 30
f 191 30 185
f 196 197 199
f 32 199 200
f 200 199 201
f 200 31 32
f 200 34 31
f 200 201 34
f 201 202 34
f 201 203 202
f 34 202 204
f 205 204 202
f 204 36 34
f 206 36 204
f 34 36 33
f 206 207 36
f 206 204 205
f 208 206 205
f 209 206 208
f 208 205 210
f 210 205 211
f 212 208 210
f 213 208 212
f 212 210 214
f 214 210 215
f 216 212 214
f 217 212 216
f 216 214 218
f 218 214 219
f 220 216 218
f 221 216 220
f 220 218 222
f 222 218 223
f 224 220 222
f 225 220 224
f 224 222 226
f 226 222 227
f 228 224 226
f 229 224 228
f 228 226 230
f 230 226 231
f 232 228 230
f 233 228 232
f 232 230 234
f 234 230 235
f 234 236 232
f 234 237 236
f 232 236 238
f 239 238 236
f 232 238 233
f 233 238 240
f 241 240 238
f 233 240 242
f 242 240 243
f 242 229 233
f 242 244 229
f 233 229 228
f 245 244 242
f 244 225 229
f 244 246 225
f 229 225 224
f 247 246 244
f 246 221 225
f 246 248 221
f 225 221 220
f 249 248 246
f 248 217 221
f 248 250 217
f 221 217 216
f 251 250 248
f 250 213 217
f 250 252 213
f 217 213 212
f 253 252 250
f 252 254 213
f 252 255 254
f 254 256 213
f 254 257 256
f 213 256 208
f 256 209 208
f 256 257 209
f 209 257 207
f 258 207 257
f 209 207 206
f 259 207 258
f 258 257 260
f 260 257 255
f 261 258 260
f 87 258 261
f 261 260 262
f 262 260 263
f 264 261 262
f 265 261 264
f 264 262 266
f 266 262 267
f 266 268 264
f 266 269 268
f 264 268 270
f 107 270 268
f 264 270 265
f 265 270 89
f 103 89 270
f 265 89 86
f 86 87 265
f 265 87 261
f 94 89 103
f 103 270 107
f 102 103 107
f 94 88 89
f 99 94 103
f 91 88 94
f 107 268 111
f 111 268 269
f 106 107 111
f 111 269 115
f 115 269 271
f 110 111 115
f 272 271 269
f 115 271 119
f 119 271 273
f 114 115 119
f 274 273 271
f 119 273 123
f 123 273 275
f 118 119 123
f 276 275 273
f 123 275 127
f 127 275 277
f 122 123 127
f 278 277 275
f 127 277 129
f 129 277 279
f 126 127 129
f 280 279 277
f 129 279 281
f 281 279 282
f 281 128 129
f 128 281 283
f 283 281 284
f 128 283 131
f 285 131 283
f 286 131 285
f 285 283 287
f 283 284 287
f 288 285 287
f 289 285 288
f 288 287 290
f 287 291 290
f 292 288 290
f 293 288 292
f 292 290 294
f 290 295 294
f 296 292 294
f 297 292 296
f 296 294 298
f 294 299 298
f 300 296 298
f 301 296 300
f 300 298 302
f 298 303 302
f 304 300 302
f 305 300 304
f 304 302 306
f 302 307 306
f 308 304 306
f 309 304 308
f 308 306 310
f 306 311 310
f 312 308 310
f 313 308 312
f 312 310 314
f 310 315 314
f 316 312 314
f 317 312 316
f 316 314 318
f 314 319 318
f 318 320 316
f 321 320 318
f 316 320 322
f 320 323 322
f 316 322 317
f 317 322 324
f 322 325 324
f 317 324 326
f 326 324 327
f 326 313 317
f 326 328 313
f 317 313 312
f 329 328 326
f 328 309 313
f 328 330 309
f 313 309 308
f 331 330 328
f 330 305 309
f 330 332 305
f 309 305 304
f 333 332 330
f 332 301 305
f 332 334 301
f 305 301 300
f 335 334 332
f 334 297 301
f 334 336 297
f 301 297 296
f 337 336 334
f 336 293 297
f 336 338 293
f 297 293 292
f 339 338 336
f 338 289 293
f 338 340 289
f 293 289 288
f 341 340 338
f 340 286 289
f 340 342 286
f 289 286 285
f 343 342 340
f 342 133 286
f 344 133 342
f 286 133 131
f 130 131 133
f 132 133 344
f 344 342 345
f 345 342 343
f 346 344 345
f 135 344 346
f 346 345 347
f 347 345 348
f 349 346 347
f 350 346 349
f 349 347 351
f 351 347 352
f 353 349 351
f 354 349 353
f 353 351 355
f 355 351 356
f 357 353 355
f 358 353 357
f 357 355 359
f 359 355 360
f 361 357 359
f 362 357 361
f 361 359 363
f 363 359 364
f 365 361 363
f 366 361 365
f 365 363 367
f 363 364 367
f 367 368 365
f 81 368 367
f 365 368 366
f 369 366 368
f 370 366 369
f 369 368 81
f 81 371 369
f 81 372 371
f 369 371 373
f 371 374 373
f 369 373 370
f 370 373 375
f 373 376 375
f 370 375 377
f 377 375 378
f 377 362 370
f 377 358 362
f 370 362 366
f 361 366 362
f 379 358 377
f 357 362 358
f 379 354 358
f 377 378 379
f 379 378 380
f 378 381 380
f 379 380 382
f 382 380 139
f 382 354 379
f 382 350 354
f 137 350 382
f 349 354 350
f 137 135 350
f 382 139 137
f 137 139 136
f 134 135 137
f 346 350 135
f 380 141 139
f 380 381 141
f 139 141 138
f 381 143 141
f 381 383 143
f 141 143 140
f 384 383 381
f 383 145 143
f 383 385 145
f 143 145 142
f 386 385 383
f 385 147 145
f 385 387 147
f 145 147 144
f 388 387 385
f 387 149 147
f 387 389 149
f 147 149 146
f 390 389 387
f 389 391 149
f 392 391 389
f 149 391 148
f 391 151 148
f 393 151 391
f 155 151 393
f 393 391 392
f 394 393 392
f 395 393 394
f 394 392 396
f 396 392 397
f 398 394 396
f 399 394 398
f 398 396 400
f 400 396 401
f 402 398 400
f 403 398 402
f 402 400 404
f 404 400 405
f 406 402 404
f 407 402 406
f 406 404 408
f 408 404 409
f 410 406 408
f 77 406 410
f 410 408 81
f 408 409 81
f 411 410 81
f 411 77 410
f 81 412 411
f 79 412 81
f 411 412 76
f 76 412 79
f 76 77 411
f 409 413 81
f 409 405 413
f 413 414 81
f 413 415 414
f 414 416 81
f 414 417 416
f 416 372 81
f 416 418 372
f 417 418 416
f 372 418 374
f 374 418 419
f 371 372 374
f 418 420 419
f 374 419 376
f 376 419 386
f 373 374 376
f 419 388 386
f 376 386 384
f 384 386 383
f 375 376 384
f 375 384 378
f 378 384 381
f 419 420 388
f 386 388 385
f 420 390 388
f 421 390 420
f 388 390 387
f 397 390 421
f 421 420 417
f 417 420 418
f 415 421 417
f 401 421 415
f 415 417 414
f 401 397 421
f 405 401 415
f 400 401 405
f 405 415 413
f 396 397 401
f 397 389 390
f 392 389 397
f 404 405 409
f 77 407 406
f 74 407 77
f 407 74 75
f 75 403 407
f 403 75 422
f 407 403 402
f 423 422 75
f 422 399 403
f 399 422 424
f 403 399 398
f 425 424 422
f 424 395 399
f 395 424 159
f 399 395 394
f 426 159 424
f 159 155 395
f 155 159 154
f 395 155 393
f 158 159 426
f 426 424 425
f 425 427 426
f 425 428 427
f 426 427 161
f 427 429 161
f 426 161 158
f 427 430 429
f 161 429 431
f 429 432 431
f 161 431 160
f 160 431 163
f 431 433 163
f 431 432 433
f 163 433 171
f 433 434 171
f 163 171 165
f 162 163 165
f 433 435 434
f 434 173 171
f 434 436 173
f 171 173 170
f 437 436 434
f 436 177 173
f 436 438 177
f 173 177 172
f 439 438 436
f 440 177 438
f 176 177 440
f 440 438 441
f 441 438 442
f 441 443 440
f 441 444 443
f 440 443 179
f 443 445 179
f 440 179 176
f 443 446 445
f 179 445 447
f 445 448 447
f 179 447 178
f 178 447 181
f 447 449 181
f 447 448 449
f 181 449 183
f 187 183 449
f 187 449 450
f 450 449 451
f 187 450 189
f 189 450 452
f 186 187 189
f 450 451 452
f 189 452 453
f 453 452 454
f 193 189 453
f 188 189 193
f 193 453 455
f 455 453 456
f 457 193 455
f 192 193 457
f 457 455 458
f 458 455 459
f 458 460 457
f 458 461 460
f 457 460 195
f 462 195 460
f 457 195 192
f 463 195 462
f 462 460 464
f 464 460 461
f 464 465 462
f 464 466 465
f 465 467 462
f 465 468 467
f 462 467 469
f 467 470 469
f 462 469 463
f 469 471 463
f 469 472 471
f 463 471 473
f 471 474 473
f 463 473 197
f 197 473 475
f 197 194 463
f 463 194 195
f 473 476 475
f 197 475 477
f 475 478 477
f 199 197 477
f 199 477 201
f 477 203 201
f 477 478 203
f 211 203 478
f 205 203 211
f 211 478 476
f 475 476 478
f 211 476 479
f 479 476 474
f 215 211 479
f 210 211 215
f 215 479 480
f 480 479 481
f 219 215 480
f 214 215 219
f 219 480 482
f 482 480 483
f 223 219 482
f 218 219 223
f 223 482 484
f 484 482 485
f 227 223 484
f 222 223 227
f 227 484 486
f 486 484 487
f 231 227 486
f 226 227 231
f 231 486 488
f 488 486 489
f 235 231 488
f 230 231 235
f 235 488 490
f 490 488 491
f 492 235 490
f 234 235 492
f 492 490 493
f 493 490 494
f 493 495 492
f 493 496 495
f 492 495 237
f 497 237 495
f 492 237 234
f 498 237 497
f 497 495 496
f 496 499 497
f 496 500 499
f 497 499 501
f 499 502 501
f 497 501 498
f 501 503 498
f 501 504 503
f 498 503 505
f 503 506 505
f 498 505 239
f 505 507 239
f 239 236 498
f 498 236 237
f 505 508 507
f 239 507 509
f 507 510 509
f 239 509 241
f 509 511 241
f 241 238 239
f 509 512 511
f 241 511 513
f 511 514 513
f 241 513 515
f 515 513 516
f 515 240 241
f 515 243 240
f 517 243 515
f 517 518 243
f 515 516 517
f 517 516 519
f 516 520 519
f 519 521 517
f 519 522 521
f 517 521 523
f 521 524 523
f 517 523 525
f 523 526 525
f 525 518 517
f 525 527 518
f 528 527 525
f 529 518 527
f 245 518 529
f 529 527 530
f 530 527 531
f 530 532 529
f 530 533 532
f 529 532 247
f 532 249 247
f 529 247 245
f 245 247 244
f 532 534 249
f 247 249 246
f 533 534 532
f 534 251 249
f 534 535 251
f 249 251 248
f 536 535 534
f 535 537 251
f 535 538 537
f 537 539 251
f 537 540 539
f 251 539 250
f 539 253 250
f 539 540 253
f 253 540 255
f 263 255 540
f 253 255 252
f 260 255 263
f 263 540 541
f 541 540 538
f 267 263 541
f 262 263 267
f 267 541 542
f 542 541 543
f 272 267 542
f 266 267 272
f 272 542 274
f 274 542 544
f 274 271 272
f 542 543 544
f 274 544 276
f 276 544 545
f 276 273 274
f 544 546 545
f 276 545 278
f 278 545 547
f 278 275 276
f 545 548 547
f 278 547 280
f 280 547 549
f 280 277 278
f 547 550 549
f 280 549 551
f 551 549 552
f 551 279 280
f 551 553 279
f 551 552 553
f 279 553 282
f 553 554 282
f 555 554 553
f 284 282 554
f 281 282 284
f 284 554 291
f 291 554 556
f 287 284 291
f 555 556 554
f 291 556 295
f 295 556 557
f 290 291 295
f 558 557 556
f 295 557 299
f 299 557 559
f 294 295 299
f 560 559 557
f 299 559 303
f 303 559 561
f 298 299 303
f 562 561 559
f 303 561 307
f 307 561 563
f 302 303 307
f 564 563 561
f 307 563 311
f 311 563 565
f 306 307 311
f 566 565 563
f 311 565 315
f 315 565 567
f 310 311 315
f 568 567 565
f 315 567 319
f 319 567 569
f 314 315 319
f 570 569 567
f 319 569 321
f 321 569 571
f 318 319 321
f 572 571 569
f 321 571 573
f 573 571 574
f 573 575 321
f 573 576 575
f 321 575 577
f 577 575 578
f 321 577 579
f 577 580 579
f 579 320 321
f 320 579 581
f 581 579 582
f 320 581 323
f 583 323 581
f 584 323 583
f 583 581 585
f 581 582 585
f 586 583 585
f 587 583 586
f 586 585 588
f 585 589 588
f 590 586 588
f 591 586 590
f 590 588 592
f 588 593 592
f 594 590 592
f 595 590 594
f 594 592 596
f 592 597 596
f 598 594 596
f 599 594 598
f 598 596 600
f 596 601 600
f 602 598 600
f 603 598 602
f 602 600 604
f 600 605 604
f 606 602 604
f 607 602 606
f 606 604 608
f 604 609 608
f 610 606 608
f 611 606 610
f 610 608 612
f 608 613 612
f 614 610 612
f 615 610 614
f 614 612 616
f 612 617 616
f 616 618 614
f 619 618 616
f 614 618 620
f 618 621 620
f 614 620 615
f 615 620 622
f 620 623 622
f 615 622 624
f 624 622 625
f 624 611 615
f 624 626 611
f 615 611 610
f 627 626 624
f 626 607 611
f 626 628 607
f 611 607 606
f 629 628 626
f 628 603 607
f 628 630 603
f 607 603 602
f 631 630 628
f 630 599 603
f 630 632 599
f 603 599 598
f 633 632 630
f 632 595 599
f 632 634 595
f 599 595 594
f 635 634 632
f 634 591 595
f 634 636 591
f 595 591 590
f 637 636 634
f 636 587 591
f 636 638 587
f 591 587 586
f 639 638 636
f 638 584 587
f 638 640 584
f 587 584 583
f 641 640 638
f 640 325 584
f 642 325 640
f 584 325 323
f 322 323 325
f 324 325 642
f 642 640 643
f 643 640 641
f 644 642 643
f 327 642 644
f 644 643 645
f 645 643 646
f 647 644 645
f 648 644 647
f 647 645 649
f 649 645 650
f 651 647 649
f 652 647 651
f 651 649 653
f 653 649 654
f 655 651 653
f 656 651 655
f 655 653 657
f 657 653 658
f 659 655 657
f 660 655 659
f 659 657 661
f 661 657 662
f 663 659 661
f 664 659 663
f 663 661 665
f 661 662 665
f 665 666 663
f 667 666 665
f 663 666 664
f 664 666 667
f 667 668 664
f 668 667 580
f 669 664 668
f 670 664 669
f 580 669 668
f 577 669 580
f 669 577 671
f 671 577 672
f 669 671 673
f 673 671 672
f 673 674 669
f 674 673 575
f 669 674 670
f 670 674 576
f 575 576 674
f 670 576 675
f 675 576 676
f 675 677 670
f 675 678 677
f 670 677 679
f 677 680 679
f 670 679 681
f 681 679 682
f 681 660 670
f 681 656 660
f 670 660 664
f 659 664 660
f 683 656 681
f 655 660 656
f 683 652 656
f 681 682 683
f 683 682 684
f 682 685 684
f 683 684 686
f 686 684 331
f 686 652 683
f 686 648 652
f 329 648 686
f 647 652 648
f 329 327 648
f 686 331 329
f 329 331 328
f 326 327 329
f 644 648 327
f 684 333 331
f 684 685 333
f 331 333 330
f 685 335 333
f 685 687 335
f 333 335 332
f 688 687 685
f 687 337 335
f 687 689 337
f 335 337 334
f 690 689 687
f 689 339 337
f 689 691 339
f 337 339 336
f 692 691 689
f 691 341 339
f 691 693 341
f 339 341 338
f 694 693 691
f 693 343 341
f 348 343 693
f 341 343 340
f 345 343 348
f 348 693 695
f 695 693 694
f 352 348 695
f 347 348 352
f 352 695 696
f 696 695 697
f 356 352 696
f 351 352 356
f 356 696 698
f 698 696 699
f 360 356 698
f 355 356 360
f 360 698 700
f 700 698 701
f 364 360 700
f 359 360 364
f 364 700 367
f 700 701 367
f 701 702 367
f 701 699 702
f 702 703 367
f 702 704 703
f 703 705 367
f 703 706 705
f 367 705 678
f 678 705 707
f 367 678 675
f 708 367 675
f 367 708 709
f 675 676 708
f 573 708 676
f 709 708 573
f 573 676 576
f 573 710 709
f 574 710 573
f 709 710 711
f 711 710 712
f 711 713 709
f 714 713 711
f 81 709 713
f 367 709 81
f 81 713 715
f 715 713 716
f 715 717 81
f 717 715 718
f 81 717 82
f 717 719 82
f 717 720 719
f 82 719 721
f 719 722 721
f 82 721 47
f 47 721 723
f 47 44 82
f 721 724 723
f 47 723 725
f 723 726 725
f 725 727 47
f 727 725 728
f 47 727 729
f 727 728 729
f 47 729 730
f 729 731 730
f 730 732 47
f 730 733 732
f 47 732 734
f 732 735 734
f 734 736 47
f 734 737 736
f 47 736 738
f 736 739 738
f 47 738 59
f 59 738 740
f 46 47 59
f 741 46 59
f 57 46 741
f 56 741 59
f 56 57 741
f 738 742 740
f 59 740 743
f 740 744 743
f 743 745 59
f 743 746 745
f 60 59 745
f 60 745 62
f 62 745 747
f 745 748 747
f 62 747 749
f 747 750 749
f 749 751 62
f 749 752 751
f 62 751 753
f 751 754 753
f 62 753 755
f 753 756 755
f 755 757 62
f 755 758 757
f 62 757 759
f 757 760 759
f 62 759 761
f 759 762 761
f 761 763 62
f 761 764 763
f 62 763 765
f 763 766 765
f 62 765 767
f 767 765 768
f 767 64 62
f 767 665 64
f 769 665 767
f 665 770 64
f 771 770 665
f 64 770 772
f 772 770 773
f 772 774 64
f 772 775 774
f 774 776 64
f 774 777 776
f 776 778 64
f 776 779 778
f 778 780 64
f 778 781 780
f 780 782 64
f 780 783 782
f 782 784 64
f 782 785 784
f 784 67 64
f 784 786 67
f 785 786 784
f 67 786 69
f 69 786 787
f 66 67 69
f 786 788 787
f 69 787 71
f 71 787 789
f 68 69 71
f 787 790 789
f 71 789 791
f 791 789 792
f 70 71 791
f 70 791 73
f 73 791 793
f 791 792 793
f 73 793 428
f 428 793 430
f 423 73 428
f 72 73 423
f 423 428 425
f 425 422 423
f 423 75 72
f 793 794 430
f 428 430 427
f 793 792 794
f 430 794 795
f 794 796 795
f 430 795 429
f 429 795 432
f 795 797 432
f 795 796 797
f 432 797 435
f 797 798 435
f 432 435 433
f 797 799 798
f 435 798 437
f 798 800 437
f 435 437 434
f 798 801 800
f 800 439 437
f 800 802 439
f 437 439 436
f 803 802 800
f 802 442 439
f 802 804 442
f 439 442 438
f 805 804 802
f 806 442 804
f 441 442 806
f 806 804 807
f 807 804 808
f 807 809 806
f 807 810 809
f 806 809 444
f 809 811 444
f 806 444 441
f 809 812 811
f 444 811 446
f 811 813 446
f 444 446 443
f 811 814 813
f 446 813 815
f 816 815 813
f 446 815 445
f 445 815 448
f 817 448 815
f 818 448 817
f 817 815 819
f 819 815 816
f 817 819 820
f 820 819 821
f 818 817 820
f 452 818 820
f 451 818 452
f 452 820 454
f 454 820 822
f 820 821 822
f 454 822 823
f 823 822 824
f 456 454 823
f 453 454 456
f 456 823 825
f 825 823 826
f 459 456 825
f 455 456 459
f 459 825 827
f 827 825 828
f 829 459 827
f 458 459 829
f 829 827 830
f 830 827 831
f 830 832 829
f 830 833 832
f 829 832 461
f 834 461 832
f 829 461 458
f 464 461 834
f 834 832 835
f 835 832 833
f 835 836 834
f 835 837 836
f 834 836 838
f 836 839 838
f 834 838 464
f 464 838 840
f 838 841 840
f 840 466 464
f 840 842 466
f 840 841 842
f 466 842 843
f 844 843 842
f 466 843 465
f 465 843 468
f 844 468 843
f 481 468 844
f 481 470 468
f 483 481 844
f 480 481 483
f 483 844 845
f 845 844 846
f 485 483 845
f 482 483 485
f 485 845 847
f 847 845 848
f 487 485 847
f 484 485 487
f 487 847 849
f 849 847 850
f 489 487 849
f 486 487 489
f 489 849 851
f 851 849 852
f 491 489 851
f 488 489 491
f 491 851 853
f 853 851 854
f 494 491 853
f 490 491 494
f 494 853 496
f 853 854 496
f 493 494 496
f 854 855 496
f 854 852 855
f 855 856 496
f 855 857 856
f 856 858 496
f 856 859 858
f 858 860 496
f 858 861 860
f 862 496 860
f 863 496 862
f 860 864 862
f 860 865 864
f 866 862 864
f 863 862 866
f 866 864 867
f 867 864 865
f 866 867 868
f 868 867 869
f 870 866 868
f 870 863 866
f 868 871 870
f 868 872 871
f 870 871 873
f 874 873 871
f 870 873 875
f 876 875 873
f 875 863 870
f 875 496 863
f 875 718 496
f 875 746 718
f 496 718 716
f 718 715 716
f 496 716 500
f 500 716 877
f 716 713 877
f 500 877 878
f 878 877 879
f 500 878 880
f 880 878 881
f 500 880 882
f 882 880 883
f 882 884 500
f 882 885 884
f 886 500 884
f 886 887 500
f 886 884 888
f 888 884 885
f 888 889 886
f 888 890 889
f 886 889 887
f 889 891 887
f 889 892 891
f 887 891 893
f 891 894 893
f 887 893 500
f 893 895 500
f 893 894 895
f 895 896 500
f 895 897 896
f 896 898 500
f 896 899 898
f 898 900 500
f 898 901 900
f 900 902 500
f 900 903 902
f 502 500 902
f 499 500 502
f 902 504 502
f 902 506 504
f 501 502 504
f 903 506 902
f 503 504 506
f 903 508 506
f 903 510 508
f 505 506 508
f 904 510 903
f 507 508 510
f 904 512 510
f 901 904 903
f 905 904 901
f 901 903 900
f 905 906 904
f 899 905 901
f 907 905 899
f 899 901 898
f 907 908 905
f 897 907 899
f 909 907 897
f 897 899 896
f 909 910 907
f 894 909 897
f 911 909 894
f 894 897 895
f 911 912 909
f 891 911 894
f 892 911 891
f 892 913 911
f 914 913 892
f 913 912 911
f 913 915 912
f 916 915 913
f 915 917 912
f 915 918 917
f 912 917 910
f 917 919 910
f 912 910 909
f 917 920 919
f 910 919 908
f 919 921 908
f 910 908 907
f 919 922 921
f 908 921 906
f 921 520 906
f 908 906 905
f 921 522 520
f 906 520 923
f 516 923 520
f 906 923 514
f 513 514 923
f 904 906 514
f 514 512 904
f 511 512 514
f 513 923 516
f 922 522 921
f 519 520 522
f 922 524 522
f 922 924 524
f 521 522 524
f 925 924 922
f 523 524 924
f 523 924 526
f 526 924 926
f 925 926 924
f 526 926 927
f 927 926 928
f 525 526 927
f 525 927 528
f 927 929 528
f 927 928 929
f 528 929 930
f 929 931 930
f 528 930 932
f 932 930 933
f 932 531 528
f 934 531 932
f 528 531 527
f 935 531 934
f 934 932 936
f 936 932 937
f 938 934 936
f 939 934 938
f 938 936 940
f 940 936 941
f 940 942 938
f 940 943 942
f 938 942 944
f 550 944 942
f 938 944 939
f 939 944 945
f 945 944 946
f 945 935 939
f 945 947 935
f 939 935 934
f 945 946 947
f 935 947 533
f 947 948 533
f 935 533 530
f 530 531 935
f 947 946 948
f 948 949 533
f 948 950 949
f 533 949 534
f 949 536 534
f 949 950 536
f 536 950 538
f 543 538 950
f 536 538 535
f 541 538 543
f 543 950 546
f 546 950 946
f 544 543 546
f 948 946 950
f 546 946 548
f 548 946 944
f 545 546 548
f 548 944 550
f 547 548 550
f 550 942 951
f 951 942 952
f 549 550 951
f 549 951 552
f 953 552 951
f 954 552 953
f 951 952 953
f 953 952 955
f 943 955 952
f 953 955 956
f 956 955 957
f 954 953 956
f 954 956 958
f 958 956 959
f 555 954 958
f 553 954 555
f 555 958 558
f 558 958 960
f 558 556 555
f 958 959 960
f 558 960 560
f 560 960 961
f 560 557 558
f 960 962 961
f 560 961 562
f 562 961 963
f 562 559 560
f 961 964 963
f 562 963 564
f 564 963 965
f 564 561 562
f 963 966 965
f 564 965 566
f 566 965 967
f 566 563 564
f 965 968 967
f 566 967 568
f 568 967 969
f 568 565 566
f 967 970 969
f 568 969 570
f 570 969 971
f 570 567 568
f 969 972 971
f 570 971 572
f 572 971 973
f 572 569 570
f 971 974 973
f 572 973 975
f 975 973 976
f 975 571 572
f 574 571 975
f 975 976 574
f 574 976 977
f 978 977 976
f 977 979 574
f 977 980 979
f 574 979 710
f 979 712 710
f 981 712 979
f 981 982 712
f 981 979 983
f 983 979 980
f 983 984 981
f 980 984 983
f 981 984 982
f 982 984 977
f 977 984 985
f 978 982 977
f 986 982 978
f 986 987 982
f 978 988 986
f 978 989 988
f 986 988 990
f 991 990 988
f 986 990 992
f 992 990 993
f 994 986 992
f 986 994 995
f 994 992 996
f 996 992 997
f 998 994 996
f 999 994 998
f 998 996 1000
f 1000 996 1001
f 1000 1002 998
f 1000 1003 1002
f 998 1002 1004
f 589 1004 1002
f 998 1004 999
f 999 1004 1005
f 582 1005 1004
f 580 999 1005
f 1006 999 580
f 579 580 1005
f 579 1005 582
f 1006 995 999
f 1006 580 767
f 580 769 767
f 767 1007 1006
f 767 1008 1007
f 1006 1007 1009
f 1007 1010 1009
f 1006 1009 995
f 995 1009 1011
f 1009 1010 1011
f 995 1011 1012
f 1013 1012 1011
f 995 1012 987
f 987 1012 1014
f 995 987 986
f 1014 1012 1013
f 987 1014 1013
f 987 1013 578
f 1013 1010 578
f 578 1015 987
f 578 575 1015
f 987 1015 982
f 712 982 1015
f 712 1015 711
f 711 1015 575
f 575 1016 711
f 575 673 1016
f 1016 672 711
f 673 672 1016
f 711 672 714
f 577 714 672
f 577 1008 714
f 578 1008 577
f 714 1008 767
f 767 1017 714
f 767 1018 1017
f 714 1017 713
f 713 1017 877
f 877 1017 879
f 1017 717 879
f 1017 720 717
f 879 717 718
f 718 737 879
f 718 739 737
f 879 737 735
f 734 735 737
f 735 733 879
f 732 733 735
f 879 733 731
f 730 731 733
f 879 731 728
f 729 728 731
f 728 1019 879
f 728 725 1019
f 879 1019 726
f 725 726 1019
f 879 726 724
f 723 724 726
f 724 722 879
f 721 722 724
f 722 1020 879
f 719 1020 722
f 879 1020 1021
f 720 1021 1020
f 879 1021 1022
f 1023 1022 1021
f 1024 879 1022
f 878 879 1024
f 1018 1024 1022
f 1025 1024 1018
f 1018 1022 1023
f 1018 1023 1017
f 1017 1023 720
f 1023 1021 720
f 1025 1026 1024
f 1025 1018 767
f 767 1027 1025
f 767 1028 1027
f 1027 1026 1025
f 1027 1029 1026
f 1028 1029 1027
f 878 1026 1029
f 1024 1026 878
f 878 1029 1030
f 1028 1030 1029
f 1030 1031 878
f 1032 1031 1030
f 1031 1033 878
f 1034 1033 1031
f 878 1033 1035
f 1036 1035 1033
f 878 1035 1037
f 1038 1037 1035
f 1037 1039 878
f 1040 1039 1037
f 878 1039 1041
f 1042 1041 1039
f 878 1041 1043
f 1044 1043 1041
f 1043 1045 878
f 1046 1045 1043
f 878 1045 1047
f 1048 1047 1045
f 878 1047 875
f 875 1047 1049
f 878 875 1050
f 1050 875 1051
f 878 1050 1052
f 1052 1050 1053
f 1052 1054 878
f 1052 1055 1054
f 1056 878 1054
f 1056 1057 878
f 1056 1054 1058
f 1058 1054 1055
f 1058 1059 1056
f 1058 1060 1059
f 1056 1059 1057
f 1059 1061 1057
f 1059 1062 1061
f 1057 1061 1063
f 1061 1064 1063
f 1057 1063 878
f 1063 1065 878
f 1063 1064 1065
f 1065 1066 878
f 1065 1067 1066
f 1066 1068 878
f 1066 1069 1068
f 1068 1070 878
f 1068 1071 1070
f 1070 1072 878
f 1070 1073 1072
f 881 878 1072
f 1072 1074 881
f 1072 1075 1074
f 883 881 1074
f 880 881 883
f 883 1074 1076
f 1076 1074 1075
f 883 1076 1077
f 1077 1076 1078
f 882 883 1077
f 1077 885 882
f 1077 1079 885
f 1080 1079 1077
f 1081 885 1079
f 888 885 1081
f 1081 1079 1082
f 1082 1079 1083
f 1082 1084 1081
f 1082 1085 1084
f 1081 1084 890
f 1084 914 890
f 1081 890 888
f 1084 1086 914
f 890 914 892
f 890 892 889
f 1085 1086 1084
f 1086 916 914
f 1086 1087 916
f 914 916 913
f 1088 1087 1086
f 1087 1089 916
f 1087 1090 1089
f 916 1089 915
f 1089 918 915
f 1089 1091 918
f 1090 1091 1089
f 1091 1092 918
f 1091 1093 1092
f 918 1092 920
f 1092 925 920
f 918 920 917
f 1092 1094 925
f 920 925 922
f 920 922 919
f 1093 1094 1092
f 1094 928 925
f 1094 931 928
f 925 928 926
f 1094 1095 931
f 929 928 931
f 1096 1095 1094
f 930 931 1095
f 930 1095 933
f 933 1095 1097
f 1096 1097 1095
f 933 1097 937
f 937 1097 1098
f 932 933 937
f 1096 1098 1097
f 937 1098 941
f 941 1098 1099
f 936 937 941
f 1100 1099 1098
f 941 1099 943
f 943 1099 1101
f 940 941 943
f 1100 1101 1099
f 1101 955 943
f 1102 955 1101
f 1102 957 955
f 1102 1101 1100
f 1103 1102 1100
f 1104 1102 1103
f 1103 1100 1105
f 1105 1100 1096
f 1106 1103 1105
f 1107 1103 1106
f 1106 1105 1108
f 1108 1105 1093
f 1109 1106 1108
f 1110 1106 1109
f 1109 1108 1090
f 1090 1108 1091
f 1111 1109 1090
f 1112 1109 1111
f 1111 1090 1087
f 1088 1111 1087
f 1113 1111 1088
f 1113 1112 1111
f 1114 1113 1088
f 1115 1113 1114
f 1114 1088 1085
f 1085 1088 1086
f 1116 1114 1085
f 1117 1114 1116
f 1116 1085 1082
f 1082 1083 1116
f 1116 1083 1118
f 1119 1118 1083
f 1116 1118 1117
f 1117 1118 1120
f 1121 1120 1118
f 1117 1120 1122
f 1122 1120 1123
f 1122 1115 1117
f 1122 1124 1115
f 1117 1115 1114
f 1125 1124 1122
f 1124 1126 1115
f 1124 1127 1126
f 1115 1126 1113
f 1126 1112 1113
f 1126 1128 1112
f 1127 1128 1126
f 1128 1110 1112
f 1128 1129 1110
f 1112 1110 1109
f 1130 1129 1128
f 1129 1107 1110
f 1129 1131 1107
f 1110 1107 1106
f 1132 1131 1129
f 1131 1133 1107
f 1131 1134 1133
f 1133 1135 1107
f 1133 1136 1135
f 1107 1135 1103
f 1135 1104 1103
f 1135 1136 1104
f 1104 1136 957
f 959 957 1136
f 1104 957 1102
f 956 957 959
f 959 1136 962
f 962 1136 1134
f 960 959 962
f 1133 1134 1136
f 962 1134 964
f 964 1134 1137
f 961 962 964
f 1132 1137 1134
f 964 1137 966
f 966 1137 1138
f 963 964 966
f 1139 1138 1137
f 966 1138 968
f 968 1138 1140
f 965 966 968
f 1141 1140 1138
f 968 1140 970
f 970 1140 1142
f 967 968 970
f 1143 1142 1140
f 970 1142 972
f 972 1142 1144
f 969 970 972
f 1145 1144 1142
f 972 1144 974
f 974 1144 989
f 971 972 974
f 1146 989 1144
f 974 989 978
f 973 974 978
f 973 978 976
f 1147 989 1146
f 1146 1144 1148
f 1148 1144 1145
f 1148 1149 1146
f 1148 1150 1149
f 1146 1149 1151
f 1149 1152 1151
f 1146 1151 1147
f 1147 1151 1153
f 1151 1154 1153
f 1147 1153 991
f 1153 1155 991
f 1147 991 989
f 989 991 988
f 1153 1156 1155
f 991 1155 1157
f 1158 1157 1155
f 1157 990 991
f 1159 990 1157
f 1159 993 990
f 1159 1157 1158
f 1160 1159 1158
f 1161 1159 1160
f 1160 1158 1162
f 1162 1158 1163
f 1164 1160 1162
f 1165 1160 1164
f 1164 1162 1166
f 1166 1162 1167
f 1168 1164 1166
f 1169 1164 1168
f 1168 1166 1170
f 1170 1166 1171
f 1172 1168 1170
f 1173 1168 1172
f 1172 1170 1174
f 1174 1170 1175
f 1176 1172 1174
f 1177 1172 1176
f 1176 1174 1178
f 1178 1174 1179
f 1180 1176 1178
f 1181 1176 1180
f 1180 1178 1182
f 1182 1178 1183
f 1184 1180 1182
f 1185 1180 1184
f 1184 1182 1186
f 1186 1182 1060
f 1186 1187 1184
f 1186 1055 1187
f 1184 1187 1188
f 1189 1188 1187
f 1184 1188 1185
f 1185 1188 1190
f 1191 1190 1188
f 1185 1190 1192
f 1192 1190 1193
f 1192 1181 1185
f 1192 1194 1181
f 1185 1181 1180
f 1195 1194 1192
f 1194 1177 1181
f 1194 1196 1177
f 1181 1177 1176
f 1197 1196 1194
f 1196 1173 1177
f 1196 1198 1173
f 1177 1173 1172
f 1199 1198 1196
f 1198 1169 1173
f 1198 1200 1169
f 1173 1169 1168
f 1201 1200 1198
f 1200 1165 1169
f 1200 1202 1165
f 1169 1165 1164
f 1203 1202 1200
f 1202 1204 1165
f 1202 1205 1204
f 1204 1206 1165
f 1204 1207 1206
f 1165 1206 1160
f 1206 1161 1160
f 1206 1207 1161
f 1161 1207 993
f 997 993 1207
f 1161 993 1159
f 992 993 997
f 997 1207 1208
f 1208 1207 1205
f 1001 997 1208
f 996 997 1001
f 1001 1208 1209
f 1209 1208 1210
f 1211 1001 1209
f 1000 1001 1211
f 1211 1209 1212
f 1212 1209 1213
f 1212 1214 1211
f 1212 1215 1214
f 1211 1214 1003
f 597 1003 1214
f 1211 1003 1000
f 593 1003 597
f 597 1214 601
f 601 1214 1215
f 596 597 601
f 601 1215 605
f 605 1215 1216
f 600 601 605
f 1217 1216 1215
f 605 1216 609
f 609 1216 1218
f 604 605 609
f 1219 1218 1216
f 609 1218 613
f 613 1218 1220
f 608 609 613
f 1221 1220 1218
f 613 1220 617
f 617 1220 1222
f 612 613 617
f 1223 1222 1220
f 617 1222 619
f 619 1222 1224
f 616 617 619
f 1225 1224 1222
f 619 1224 1226
f 1226 1224 1227
f 1226 618 619
f 618 1226 1228
f 1228 1226 1229
f 618 1228 621
f 1230 621 1228
f 1231 621 1230
f 1230 1228 1232
f 1228 1229 1232
f 1233 1230 1232
f 1234 1230 1233
f 1233 1232 803
f 1232 805 803
f 801 1233 803
f 1235 1233 801
f 801 803 800
f 1235 1234 1233
f 799 1235 801
f 1236 1235 799
f 799 801 798
f 1236 1237 1235
f 796 1236 799
f 1238 1236 796
f 796 799 797
f 1238 1239 1236
f 794 1238 796
f 792 1238 794
f 792 1240 1238
f 789 1240 792
f 1240 1239 1238
f 1240 1241 1239
f 790 1241 1240
f 1241 1242 1239
f 1241 1243 1242
f 1239 1242 1237
f 1242 1244 1237
f 1239 1237 1236
f 1242 1245 1244
f 1237 1244 1234
f 1244 1231 1234
f 1237 1234 1235
f 1244 1246 1231
f 1234 1231 1230
f 1245 1246 1244
f 1246 623 1231
f 1247 623 1246
f 1231 623 621
f 620 621 623
f 622 623 1247
f 1247 1246 1248
f 1248 1246 1245
f 1249 1247 1248
f 625 1247 1249
f 1249 1248 1250
f 1250 1248 1251
f 1252 1249 1250
f 1253 1249 1252
f 1252 1250 1254
f 1254 1250 1255
f 1256 1252 1254
f 1257 1252 1256
f 1256 1254 1258
f 1258 1254 1259
f 1260 1256 1258
f 1261 1256 1260
f 1260 1258 777
f 777 1258 779
f 775 1260 777
f 1262 1260 775
f 775 777 774
f 1260 1262 1261
f 775 773 1262
f 773 775 772
f 1263 1262 773
f 1264 1262 1263
f 1263 773 771
f 771 773 770
f 771 1265 1263
f 771 1266 1265
f 1263 1265 1267
f 1265 1268 1267
f 1263 1267 1264
f 1264 1267 1269
f 1267 1270 1269
f 1264 1269 1271
f 1271 1269 1272
f 1271 1261 1264
f 1271 1257 1261
f 1264 1261 1262
f 1273 1257 1271
f 1256 1261 1257
f 1273 1253 1257
f 1271 1272 1273
f 1273 1272 629
f 1272 631 629
f 1273 629 627
f 627 629 626
f 627 1253 1273
f 627 625 1253
f 624 625 627
f 1249 1253 625
f 1272 1274 631
f 629 631 628
f 1269 1274 1272
f 1274 633 631
f 1274 1275 633
f 631 633 630
f 1270 1275 1274
f 1275 635 633
f 1275 1276 635
f 633 635 632
f 1277 1276 1275
f 1276 637 635
f 1276 1278 637
f 635 637 634
f 1279 1278 1276
f 1278 639 637
f 1278 1280 639
f 637 639 636
f 1281 1280 1278
f 1280 641 639
f 646 641 1280
f 639 641 638
f 643 641 646
f 646 1280 1282
f 1282 1280 1281
f 650 646 1282
f 645 646 650
f 650 1282 1283
f 1283 1282 1284
f 654 650 1283
f 649 650 654
f 654 1283 1285
f 1285 1283 1286
f 658 654 1285
f 653 654 658
f 658 1285 1287
f 1287 1285 1288
f 662 658 1287
f 657 658 662
f 662 1287 665
f 1287 1288 665
f 1288 1289 665
f 1288 1286 1289
f 1289 1290 665
f 1289 1291 1290
f 1290 1292 665
f 1290 1293 1292
f 665 1292 1266
f 1266 1292 1294
f 665 1266 771
f 1292 1293 1294
f 1266 1294 1265
f 1265 1294 1268
f 1294 1295 1268
f 1294 1293 1295
f 1268 1295 1277
f 1295 1279 1277
f 1268 1277 1270
f 1270 1277 1275
f 1267 1268 1270
f 1295 1296 1279
f 1277 1279 1276
f 1293 1296 1295
f 1296 1281 1279
f 1284 1281 1296
f 1279 1281 1278
f 1282 1281 1284
f 1284 1296 1291
f 1291 1296 1293
f 1286 1284 1291
f 1283 1284 1286
f 1286 1291 1289
f 1291 1293 1290
f 1285 1286 1288
f 1269 1270 1274
f 1252 1257 1253
f 1258 1259 779
f 777 779 776
f 779 1259 781
f 1259 1297 781
f 779 781 778
f 1259 1255 1297
f 781 1297 783
f 1297 1298 783
f 781 783 780
f 1297 1299 1298
f 783 1298 785
f 1298 788 785
f 783 785 782
f 1298 1300 788
f 785 788 786
f 1299 1300 1298
f 788 1300 790
f 790 1300 1241
f 787 788 790
f 1300 1243 1241
f 1299 1243 1300
f 1251 1243 1299
f 1251 1245 1243
f 1255 1251 1299
f 1250 1251 1255
f 1255 1299 1297
f 1248 1245 1251
f 1243 1245 1242
f 1254 1255 1259
f 1247 625 622
f 789 790 1240
f 1232 1229 805
f 803 805 802
f 1229 808 805
f 1229 1227 808
f 805 808 804
f 1226 1227 1229
f 1301 808 1227
f 807 808 1301
f 1224 1301 1227
f 1302 1301 1224
f 1302 1303 1301
f 1302 1224 1225
f 1225 1304 1302
f 1225 1305 1304
f 1302 1304 1303
f 1304 1306 1303
f 1304 1307 1306
f 1308 1303 1306
f 810 1303 1308
f 1306 1309 1308
f 1306 1310 1309
f 1308 1309 1311
f 1312 1311 1309
f 1308 1311 812
f 812 1311 814
f 810 1308 812
f 810 812 809
f 1313 814 1311
f 812 814 811
f 1314 814 1313
f 1313 1311 1315
f 1315 1311 1312
f 1313 1315 1316
f 1316 1315 1317
f 1318 1313 1316
f 1314 1313 1318
f 1318 1316 1319
f 1319 1316 1320
f 1321 1318 1319
f 821 1318 1321
f 1321 1319 1322
f 1322 1319 1323
f 824 1321 1322
f 822 1321 824
f 824 1322 1324
f 1324 1322 1325
f 826 824 1324
f 823 824 826
f 826 1324 1326
f 1326 1324 1327
f 828 826 1326
f 825 826 828
f 828 1326 1328
f 1328 1326 1329
f 831 828 1328
f 827 828 831
f 831 1328 1330
f 1330 1328 1331
f 1332 831 1330
f 830 831 1332
f 1332 1330 1333
f 1333 1330 1334
f 1333 872 1332
f 1333 871 872
f 1332 872 833
f 1335 833 872
f 1332 833 830
f 835 833 1335
f 1335 872 868
f 868 869 1335
f 869 1336 1335
f 869 1337 1336
f 1335 1336 1338
f 1336 1339 1338
f 1335 1338 835
f 1338 837 835
f 1338 1340 837
f 1338 1339 1340
f 837 1340 1341
f 1341 1340 1342
f 837 1341 836
f 836 1341 839
f 1343 839 1341
f 1343 841 839
f 1342 1343 1341
f 1344 1343 1342
f 848 1343 1344
f 1344 1342 859
f 859 1342 861
f 857 1344 859
f 850 1344 857
f 857 859 856
f 850 848 1344
f 852 850 857
f 849 850 852
f 852 857 855
f 847 848 850
f 1342 1339 861
f 859 861 858
f 1342 1340 1339
f 861 1339 1337
f 1336 1337 1339
f 861 1337 865
f 869 865 1337
f 861 865 860
f 867 865 869
f 848 846 1343
f 845 846 848
f 846 841 1343
f 846 842 841
f 844 842 846
f 838 839 841
f 874 871 1333
f 1333 1334 874
f 874 1334 1345
f 1334 1346 1345
f 874 1345 876
f 876 1345 1347
f 876 873 874
f 1345 1348 1347
f 876 1347 875
f 1347 1349 875
f 1347 1348 1349
f 1349 1350 875
f 1349 1351 1350
f 1350 1352 875
f 1350 1353 1352
f 1352 1354 875
f 1352 1355 1354
f 1354 1356 875
f 1354 1357 1356
f 1356 1358 875
f 1356 1359 1358
f 1051 875 1358
f 1358 1360 1051
f 1358 1361 1360
f 1053 1051 1360
f 1050 1051 1053
f 1053 1360 1362
f 1362 1360 1361
f 1053 1362 1363
f 1363 1362 1364
f 1052 1053 1363
f 1363 1055 1052
f 1363 1187 1055
f 1189 1187 1363
f 1363 1364 1189
f 1364 1365 1189
f 1364 1366 1365
f 1189 1365 1367
f 1365 1368 1367
f 1189 1367 1191
f 1367 1369 1191
f 1191 1188 1189
f 1367 1370 1369
f 1191 1369 1371
f 1369 1372 1371
f 1191 1371 1373
f 1373 1371 1374
f 1373 1190 1191
f 1373 1193 1190
f 1375 1193 1373
f 1375 1376 1193
f 1373 1374 1375
f 1375 1374 1377
f 1374 1378 1377
f 1377 1379 1375
f 1377 1380 1379
f 1375 1379 1381
f 1379 1382 1381
f 1375 1381 1383
f 1381 1384 1383
f 1383 1376 1375
f 1383 1385 1376
f 1386 1385 1383
f 1387 1376 1385
f 1195 1376 1387
f 1387 1385 1388
f 1388 1385 1389
f 1388 1390 1387
f 1388 1391 1390
f 1387 1390 1197
f 1390 1199 1197
f 1387 1197 1195
f 1195 1197 1194
f 1390 1392 1199
f 1197 1199 1196
f 1391 1392 1390
f 1392 1201 1199
f 1392 1393 1201
f 1199 1201 1198
f 1394 1393 1392
f 1393 1395 1201
f 1393 1396 1395
f 1395 1397 1201
f 1395 1398 1397
f 1201 1397 1200
f 1397 1203 1200
f 1397 1398 1203
f 1203 1398 1205
f 1210 1205 1398
f 1203 1205 1202
f 1208 1205 1210
f 1210 1398 1399
f 1399 1398 1396
f 1213 1210 1399
f 1209 1210 1213
f 1213 1399 1400
f 1400 1399 1401
f 1217 1213 1400
f 1212 1213 1217
f 1217 1400 1219
f 1219 1400 1402
f 1219 1216 1217
f 1400 1401 1402
f 1219 1402 1221
f 1221 1402 1403
f 1221 1218 1219
f 1402 1404 1403
f 1221 1403 1223
f 1223 1403 1305
f 1223 1220 1221
f 1403 1405 1305
f 1223 1305 1225
f 1225 1222 1223
f 1403 1404 1405
f 1305 1405 1307
f 1405 1406 1307
f 1305 1307 1304
f 1405 1407 1406
f 1307 1406 1310
f 1408 1310 1406
f 1307 1310 1306
f 1409 1310 1408
f 1408 1406 1410
f 1410 1406 1411
f 1410 1412 1408
f 1410 1413 1412
f 1408 1412 1414
f 1412 1415 1414
f 1408 1414 1409
f 1409 1414 1416
f 1414 1417 1416
f 1409 1416 1312
f 1416 1317 1312
f 1409 1312 1310
f 1310 1312 1309
f 1416 1418 1317
f 1312 1317 1315
f 1417 1418 1416
f 1316 1317 1418
f 1316 1418 1320
f 1320 1418 1419
f 1417 1419 1418
f 1320 1419 1420
f 1421 1420 1419
f 1320 1420 1422
f 1422 1420 1423
f 1323 1320 1422
f 1319 1320 1323
f 1323 1422 1424
f 1424 1422 1425
f 1325 1323 1424
f 1322 1323 1325
f 1325 1424 1426
f 1426 1424 1427
f 1327 1325 1426
f 1324 1325 1327
f 1327 1426 1428
f 1428 1426 1429
f 1329 1327 1428
f 1326 1327 1329
f 1329 1428 1430
f 1430 1428 1431
f 1331 1329 1430
f 1328 1329 1331
f 1331 1430 1346
f 1346 1430 1432
f 1334 1331 1346
f 1330 1331 1334
f 1430 1431 1432
f 1346 1432 1348
f 1348 1432 1351
f 1345 1346 1348
f 1432 1433 1351
f 1348 1351 1349
f 1432 1431 1433
f 1351 1433 1353
f 1433 1434 1353
f 1351 1353 1350
f 1433 1435 1434
f 1353 1434 1355
f 1434 1436 1355
f 1353 1355 1352
f 1434 1437 1436
f 1355 1436 1357
f 1436 1438 1357
f 1355 1357 1354
f 1436 1439 1438
f 1357 1438 1359
f 1438 1368 1359
f 1357 1359 1356
f 1438 1370 1368
f 1359 1368 1366
f 1365 1366 1368
f 1359 1366 1361
f 1364 1361 1366
f 1359 1361 1358
f 1362 1361 1364
f 1372 1370 1438
f 1367 1368 1370
f 1369 1370 1372
f 1438 1439 1372
f 1439 1440 1372
f 1439 1378 1440
f 1371 1372 1440
f 1371 1440 1374
f 1374 1440 1378
f 1441 1378 1439
f 1441 1380 1378
f 1437 1441 1439
f 1442 1441 1437
f 1437 1439 1436
f 1442 1443 1441
f 1435 1442 1437
f 1429 1442 1435
f 1435 1437 1434
f 1429 1427 1442
f 1431 1429 1435
f 1428 1429 1431
f 1431 1435 1433
f 1426 1427 1429
f 1427 1443 1442
f 1427 1425 1443
f 1424 1425 1427
f 1425 1444 1443
f 1425 1445 1444
f 1443 1444 1382
f 1381 1382 1444
f 1443 1382 1380
f 1379 1380 1382
f 1443 1380 1441
f 1381 1444 1384
f 1384 1444 1445
f 1384 1445 1446
f 1446 1445 1447
f 1383 1384 1446
f 1383 1446 1386
f 1446 1448 1386
f 1446 1447 1448
f 1386 1448 1449
f 1448 1423 1449
f 1386 1449 1415
f 1415 1449 1421
f 1415 1389 1386
f 1412 1389 1415
f 1386 1389 1385
f 1413 1389 1412
f 1388 1389 1413
f 1413 1391 1388
f 1413 1450 1391
f 1411 1450 1413
f 1450 1451 1391
f 1450 1407 1451
f 1451 1452 1391
f 1451 1453 1452
f 1391 1452 1392
f 1452 1394 1392
f 1452 1453 1394
f 1394 1453 1396
f 1401 1396 1453
f 1394 1396 1393
f 1399 1396 1401
f 1401 1453 1404
f 1404 1453 1407
f 1402 1401 1404
f 1451 1407 1453
f 1404 1407 1405
f 1411 1407 1450
f 1411 1406 1407
f 1411 1413 1410
f 1449 1420 1421
f 1415 1421 1417
f 1421 1419 1417
f 1414 1415 1417
f 1449 1423 1420
f 1448 1447 1423
f 1422 1423 1447
f 1422 1447 1425
f 1425 1447 1445
f 1377 1378 1380
f 1217 1215 1212
f 1395 1396 1398
f 1195 1193 1376
f 1192 1193 1195
f 822 821 1321
f 821 1454 1318
f 816 1454 821
f 1454 1314 1318
f 1454 813 1314
f 816 813 1454
f 1314 813 814
f 819 816 821
f 1301 1303 810
f 1301 810 807
f 593 1002 1003
f 592 593 597
f 589 1002 593
f 588 589 593
f 1204 1205 1207
f 1058 1055 1186
f 1186 1060 1058
f 1182 1183 1060
f 1060 1183 1062
f 1183 1455 1062
f 1060 1062 1059
f 1183 1179 1455
f 1062 1455 1456
f 1455 1457 1456
f 1062 1456 1061
f 1061 1456 1064
f 1456 1458 1064
f 1456 1457 1458
f 1064 1458 1067
f 1458 1459 1067
f 1064 1067 1065
f 1458 1460 1459
f 1067 1459 1069
f 1459 1461 1069
f 1067 1069 1066
f 1459 1462 1461
f 1069 1461 1071
f 1461 1463 1071
f 1069 1071 1068
f 1461 1464 1463
f 1071 1463 1073
f 1463 1465 1073
f 1071 1073 1070
f 1463 1466 1465
f 1073 1465 1467
f 1468 1467 1465
f 1073 1467 1075
f 1078 1075 1467
f 1073 1075 1072
f 1076 1075 1078
f 1078 1467 1468
f 1078 1468 1080
f 1080 1468 1469
f 1077 1078 1080
f 1468 1465 1469
f 1080 1469 1119
f 1469 1470 1119
f 1119 1083 1080
f 1080 1083 1079
f 1469 1466 1470
f 1119 1470 1471
f 1470 1472 1471
f 1119 1471 1121
f 1121 1471 1473
f 1121 1118 1119
f 1471 1474 1473
f 1121 1473 1475
f 1475 1473 1476
f 1475 1120 1121
f 1475 1123 1120
f 1477 1123 1475
f 1477 1478 1123
f 1475 1479 1477
f 1475 1480 1479
f 1479 1481 1477
f 1479 1482 1481
f 1477 1481 1483
f 1481 1484 1483
f 1477 1483 1485
f 1483 1486 1485
f 1485 1478 1477
f 1485 1487 1478
f 1152 1487 1485
f 1488 1478 1487
f 1125 1478 1488
f 1488 1487 1150
f 1150 1487 1149
f 1150 1489 1488
f 1150 1490 1489
f 1488 1489 1491
f 1489 1492 1491
f 1488 1491 1125
f 1125 1491 1124
f 1491 1127 1124
f 1491 1492 1127
f 1492 1130 1127
f 1492 1493 1130
f 1127 1130 1128
f 1141 1493 1492
f 1493 1139 1130
f 1493 1138 1139
f 1139 1494 1130
f 1139 1137 1494
f 1130 1494 1129
f 1494 1132 1129
f 1494 1137 1132
f 1141 1138 1493
f 1495 1141 1492
f 1495 1140 1141
f 1489 1495 1492
f 1143 1495 1489
f 1143 1140 1495
f 1490 1143 1489
f 1490 1142 1143
f 1145 1142 1490
f 1145 1490 1150
f 1145 1150 1148
f 1149 1487 1152
f 1125 1123 1478
f 1122 1123 1125
f 1485 1496 1152
f 1485 1486 1496
f 1152 1496 1497
f 1496 1498 1497
f 1152 1497 1154
f 1497 1499 1154
f 1151 1152 1154
f 1497 1498 1499
f 1154 1499 1156
f 1163 1156 1499
f 1154 1156 1153
f 1158 1156 1163
f 1163 1499 1498
f 1163 1498 1500
f 1500 1498 1501
f 1167 1163 1500
f 1162 1163 1167
f 1167 1500 1502
f 1502 1500 1503
f 1171 1167 1502
f 1166 1167 1171
f 1171 1502 1504
f 1504 1502 1505
f 1175 1171 1504
f 1170 1171 1175
f 1175 1504 1506
f 1506 1504 1507
f 1179 1175 1506
f 1174 1175 1179
f 1179 1506 1455
f 1455 1506 1457
f 1506 1507 1457
f 1457 1507 1460
f 1507 1508 1460
f 1457 1460 1458
f 1507 1505 1508
f 1460 1508 1462
f 1508 1509 1462
f 1460 1462 1459
f 1508 1510 1509
f 1462 1509 1464
f 1509 1511 1464
f 1462 1464 1461
f 1509 1512 1511
f 1464 1511 1474
f 1473 1474 1511
f 1464 1474 1472
f 1471 1472 1474
f 1463 1464 1472
f 1472 1466 1463
f 1470 1466 1472
f 1473 1511 1476
f 1476 1511 1512
f 1476 1512 1480
f 1480 1512 1513
f 1476 1480 1475
f 1510 1513 1512
f 1480 1513 1479
f 1479 1513 1482
f 1510 1482 1513
f 1503 1482 1510
f 1503 1484 1482
f 1505 1503 1510
f 1502 1503 1505
f 1505 1510 1508
f 1503 1514 1484
f 1481 1482 1484
f 1500 1514 1503
f 1483 1484 1514
f 1483 1514 1486
f 1486 1514 1501
f 1500 1501 1514
f 1486 1501 1496
f 1496 1501 1498
f 1510 1512 1509
f 1504 1505 1507
f 1158 1155 1156
f 1469 1465 1466
f 1178 1179 1183
f 1132 1134 1131
f 1108 1093 1091
f 1105 1096 1093
f 1093 1096 1094
f 1100 1098 1096
f 1047 765 1049
f 875 1049 766
f 765 766 1049
f 766 764 875
f 763 764 766
f 875 764 762
f 761 762 764
f 875 762 760
f 759 760 762
f 760 758 875
f 757 758 760
f 875 758 756
f 755 756 758
f 875 756 754
f 753 754 756
f 754 752 875
f 751 752 754
f 875 752 750
f 749 750 752
f 875 750 748
f 747 748 750
f 748 746 875
f 745 746 748
f 768 765 1047
f 768 1047 1048
f 767 768 1048
f 1046 767 1048
f 1044 767 1046
f 1048 1045 1046
f 1044 1042 767
f 1046 1043 1044
f 1044 1041 1042
f 767 1042 1040
f 1042 1039 1040
f 767 1040 1038
f 1040 1037 1038
f 1038 1036 767
f 1038 1035 1036
f 767 1036 1034
f 1036 1033 1034
f 767 1034 1032
f 1034 1031 1032
f 1032 1028 767
f 1032 1030 1028
f 720 1020 719
f 742 739 718
f 736 737 739
f 738 739 742
f 718 744 742
f 746 744 718
f 740 742 744
f 743 744 746
f 578 1010 1008
f 1008 1010 1007
f 1011 1010 1013
f 580 667 769
f 667 665 769
f 999 995 994
f 582 1004 589
f 585 582 589
f 985 984 980
f 985 980 977
f 553 552 954
f 942 943 952
f 509 510 512
f 851 852 854
f 481 472 470
f 467 468 470
f 479 472 481
f 469 470 472
f 479 474 472
f 471 472 474
f 451 448 818
f 451 449 448
f 705 706 707
f 678 707 677
f 677 707 680
f 707 1515 680
f 707 706 1515
f 680 1515 690
f 1515 692 690
f 680 690 688
f 688 690 687
f 679 680 688
f 679 688 682
f 682 688 685
f 1515 1516 692
f 690 692 689
f 706 1516 1515
f 1516 694 692
f 697 694 1516
f 692 694 691
f 695 694 697
f 697 1516 704
f 704 1516 706
f 699 697 704
f 696 697 699
f 699 704 702
f 704 706 703
f 698 699 701
f 651 656 652
f 642 327 324
f 272 269 266
f 537 538 540
f 245 243 518
f 242 243 245
f 473 474 476
f 205 202 203
f 155 152 151
f 353 358 354
f 344 135 132
f 87 259 258
f 38 259 87
f 38 35 259
f 35 36 259
f 259 36 207
f 254 255 257
f 51 92 96
f 85 43 40
f 8 9 11
f 12 11 15
f 12 13 11
f 13 10 11
f 42 39 40
